<svg width="176" height="395" viewBox="0 0 176 395" fill="none" xmlns="http://www.w3.org/2000/svg">
<path fill-rule="evenodd" clip-rule="evenodd" d="M155.2 268.768C155.9 228.168 149.7 195.868 149.7 195.868H149.6C155.621 153.056 126.208 155.905 108.313 157.638C107.483 157.719 106.677 157.797 105.9 157.868C90.444 159.281 71.5555 163.113 64.3919 185.139C67.8001 183.519 71.003 183.608 72.6001 186C73.1231 186.783 73.8457 187.504 74.5375 188.195C76.3891 190.042 78.0199 191.67 75.0105 193.679C70.8766 196.439 65.4883 199.321 63.5655 196.441C63.1947 195.886 62.7079 195.361 62.2044 194.838C62.203 194.848 62.2016 194.858 62.2003 194.868C59.7069 212.67 60.3741 229.765 60.8875 242.918C61.2595 252.448 61.5507 259.909 60.5003 264.068C58.0003 274.068 21.6003 323.968 21.6003 323.968L45.0003 347.968C45.0003 347.968 88.4003 291.868 93.1003 285.368C97.8003 278.868 108.1 226.268 108.1 226.268C108.1 226.268 118 252.668 118.2 266.468C118.4 280.268 114.8 364.668 114.8 364.668H149.7C149.7 364.668 154.5 309.368 155.2 268.768Z" fill="#412F51"/>
<path d="M73.1005 185C73.1005 185 72.1004 185.5 66.6004 186C61.1005 186.5 59.6008 191 59.6004 192C59.6001 193 59.1001 193 59.1001 193L58.6001 189.5C58.6001 189.5 63.1764 181.441 73.1005 185Z" fill="#002C24"/>
<path d="M114.9 389.468V394.868H175.6V389.468C175.6 389.468 175.1 375.568 161.8 372.168C156.5 370.768 151.5 368.568 147.1 365.368L146.4 364.868H119C119 364.868 114.8 372.868 114.8 389.468H114.9Z" fill="#FFF5E3"/>
<path d="M175.6 390.668H114.9" stroke="#1A161A" stroke-width="0.8" stroke-miterlimit="10" stroke-linecap="round"/>
<path d="M149.8 367.068L142.8 372.168L140.4 369.768L147.2 365.368" stroke="#1A161A" stroke-width="0.8" stroke-miterlimit="10" stroke-linecap="round"/>
<path d="M154.3 369.468L147 375.868L144.6 373.468L151.4 367.968" stroke="#1A161A" stroke-width="0.8" stroke-miterlimit="10" stroke-linecap="round"/>
<path d="M3.90038 341.068L0.000350952 344.868L42.2003 388.468L46.1003 384.668C46.1003 384.668 55.7004 374.668 49.0004 362.768C46.3004 357.968 44.4003 352.868 43.7003 347.468V346.468L24.5004 326.968C24.5004 326.968 15.9004 329.568 3.90038 341.068Z" fill="#FFF5E3"/>
<path d="M45.2998 385.468L3.09985 341.868" stroke="#1A161A" stroke-width="0.8" stroke-miterlimit="10" stroke-linecap="round"/>
<path d="M44.2002 350.468L35.8002 349.068V345.568L43.7002 347.468" stroke="#1A161A" stroke-width="0.8" stroke-miterlimit="10" stroke-linecap="round"/>
<path d="M45.7002 355.468L36.0002 354.568V351.268L44.7002 352.268" stroke="#1A161A" stroke-width="0.8" stroke-miterlimit="10" stroke-linecap="round"/>
<path d="M117.9 56.0681C117.9 56.0681 108 58.8681 92.1998 43.6681C85.0998 45.5681 70.6999 48.3681 63.9999 52.3681C57.8999 55.9681 53.0999 61.3681 49.9999 67.7681C41.8999 84.4681 38.1999 105.268 38.3999 129.968C38.3999 129.968 38.9999 164.968 49.9999 175.068C52.0999 176.968 53.6999 179.268 54.5999 181.868C55.1999 183.568 55.6998 185.468 55.6998 187.568C55.9998 193.568 59.0996 193 59.0996 193C58.5993 186.832 64.5996 183 73.0996 185C73.0996 185 73.8998 182.268 72.6998 180.468C83.3998 183.368 90.8998 181.468 95.6998 175.168C99.0998 170.668 104.9 168.668 110.3 170.268C120.5 173.268 131 174.768 141.7 174.168C141.7 174.168 148.4 176.368 149 181.568C149.6 186.768 146.8 187.068 149.6 195.868C149.6 195.868 152.5 186.068 151.3 180.168C150.4 175.668 149.9 171.068 150.1 166.468C150.7 150.568 150.7 135.568 149.4 122.368C148.2 109.968 147.2 97.5681 146.3 85.1681C145.8 79.0681 144.8 73.1681 142.8 70.2681C137.7 63.2681 124.1 54.9681 124.1 54.9681L117.8 56.0681H117.9Z" fill="#15595D"/>
<path d="M118 200.268C118 200.268 111.3 210.868 108.2 226.268" stroke="#1A161A" stroke-width="0.8" stroke-miterlimit="10" stroke-linecap="round"/>
<path d="M119.3 51.7681C117.2 57.8681 109.2 81.2681 106 85.7681L112.9 92.5681C112.9 92.5681 122.6 71.0681 124.2 54.9681C124.2 54.9681 123.9 52.4681 121.4 50.9681C120.6 50.4681 119.6 50.8681 119.3 51.7681Z" fill="#C22C38"/>
<path d="M107.2 100.368L101.8 93.968C101.8 93.968 79.5002 113.468 68.3002 117.568C68.3002 117.568 69.6002 125.768 69.0002 129.668C83.5002 119.968 96.7002 110.268 107.2 100.368Z" fill="#C22C38"/>
<path d="M105.9 85.7681C105.9 85.7681 104.7 86.5681 104.4 89.5681C104.1 93.3681 102.8 91.2681 101.8 93.8681L107.2 100.268C109.9 98.5681 108.7 96.6681 110.9 95.8681C113.1 94.9681 112.8 92.5681 112.8 92.5681L105.9 85.7681Z" fill="#D2D1E2"/>
<path d="M143.5 84.5681C143.5 84.5681 139.2 112.168 135.9 121.668C132.7 131.268 145.3 157.468 141.8 174.068" stroke="#1A161A" stroke-width="0.8" stroke-miterlimit="10" stroke-linecap="round"/>
<path d="M71.3003 83.1681C71.3003 83.1681 69.4003 96.5681 68.4003 105.568C67.4003 114.668 68.4003 117.468 68.4003 117.468" stroke="#1A161A" stroke-width="0.8" stroke-miterlimit="10" stroke-linecap="round"/>
<path d="M69.0003 129.668C69.0003 129.668 68.5003 134.968 66.6003 139.468C64.8003 143.668 64.3003 148.368 65.4003 152.868C68.2003 164.068 69.3003 176.768 72.8003 180.468" stroke="#1A161A" stroke-width="0.8" stroke-miterlimit="10" stroke-linecap="round"/>
<path d="M118.3 47.1681C118.3 47.1681 116.5 50.0681 119.3 51.7681" stroke="#1A161A" stroke-width="0.8" stroke-miterlimit="10" stroke-linecap="round"/>
<path d="M130 28.0681C127.4 35.9681 122.1 48.9681 115.6 47.1681C106.3 44.4681 106.1 32.9681 106.1 32.9681" stroke="#1A161A" stroke-width="0.8" stroke-miterlimit="10" stroke-linecap="round"/>
<path d="M130.6 19.5C128.6 19.5 124.4 18.8 122.6 17.5C118.8 14.8 119.1 22.5 115.6 15.5681C111.8 16.8681 107.3 31.2681 107.3 26.2681C107.3 21.2681 103.7 18.7681 103.7 18.7681C103.9 1.86807 113.2 2.46807 117.2 3.36807C118.6 3.66807 119.6 2.96807 121.1 3.36807C143.7 8.66807 130.1 28.1681 130.1 28.1681C130.6 26.4681 132.264 21 130.6 19.5Z" fill="#D1AB09"/>
<path d="M103.7 18.6681C103.7 18.6681 101.7 18.4681 101.7 22.0681C101.7 25.6681 103.2 28.5681 103.2 28.5681C103.2 28.5681 103 44.8681 92.1002 43.6681" stroke="#1A161A" stroke-width="0.8" stroke-miterlimit="10" stroke-linecap="round"/>
<path d="M102.102 28.6552C102.041 28.6108 101.994 28.5562 101.958 28.4967C101.992 28.5821 102.043 28.6469 102.103 28.6907C102.194 28.7556 102.32 28.7844 102.476 28.7572C102.35 28.7609 102.217 28.7379 102.102 28.6552Z" stroke="#956F00" stroke-width="0.5"/>
<path d="M115.541 7.2443C115.205 5.67907 116.083 4.4711 117.578 4.56465C118.164 4.60131 118.756 4.65609 119.269 4.73715C119.727 4.80959 120.274 4.92699 120.836 5.06255C121.81 5.2974 122.819 5.81908 123.549 6.49181C124.272 7.15744 124.71 7.95414 124.616 8.79142C124.42 10.5297 122.701 11.5965 120.822 11.4234L120.444 11.3885L119.497 11.1813C117.837 10.8181 116.289 9.42454 115.692 7.75527L115.672 7.6993C115.617 7.54779 115.574 7.3957 115.541 7.2443Z" fill="#D2D1E2" stroke="#956F00" stroke-width="0.5"/>
<path d="M135.015 12.5819C135.189 11.0609 134.219 9.31348 132.775 8.66044C132.21 8.40455 131.64 8.16536 131.15 7.99441C130.712 7.8416 130.193 7.69277 129.66 7.55565C128.736 7.31812 127.807 7.37297 127.163 7.73118C126.526 8.08561 126.179 8.72553 126.352 9.67744C126.711 11.6536 128.485 13.6727 130.293 14.433L130.657 14.586L131.556 14.8396C133.133 15.2843 134.501 14.5597 134.919 13.058L134.933 13.0076C134.971 12.8713 134.998 12.729 135.015 12.5819Z" fill="#D2D1E2" stroke="#956F00" stroke-width="0.5"/>
<path d="M114.02 7L108.353 11.8538C107.572 12.5231 106.898 13.309 106.357 14.1838L105.489 15.5857" stroke="#956F00" stroke-width="0.5" stroke-linecap="round"/>
</svg>
