<svg width="250" height="381" viewBox="0 0 250 381" fill="none" xmlns="http://www.w3.org/2000/svg">
<path d="M227.001 251.001C236.997 240.501 250 180.429 250 130.621C250 80.7021 247.5 19.5 205 19.5C191.5 19.5 175 40.5001 173.5 49.0002C176 58.5002 176.501 61.5002 186 62.5002C195.561 63.5066 190.678 75.7834 185.188 89.5841C181.482 98.9017 177.5 108.914 177.5 116.621C177.5 126.808 177.35 136.777 177.205 146.41C176.655 183.083 176.178 214.868 184.309 235.15C178.412 234.792 173.586 234.675 171.597 235.046C167.856 235.743 164.182 236.356 160.632 236.949C139.9 240.41 96.3218 233.813 95.5009 248.501C95.1359 255.031 147.131 274.374 172.72 269.603C188.586 266.645 215.415 263.17 227.001 251.001Z" fill="#C22C38"/>
<path d="M159.358 67.1801C159.358 67.1801 161.322 69.9718 158.624 71.83" stroke="#1A161A" stroke-width="0.8" stroke-miterlimit="10" stroke-linecap="round"/>
<path d="M147 49.5001C150.05 57.2377 155.669 69.1954 162.055 67.0248C171.184 63.7948 170.723 52.3022 170.723 52.3022" stroke="#1A161A" stroke-width="0.8" stroke-miterlimit="10" stroke-linecap="round"/>
<path d="M145.488 40.2646C147.485 40.1496 151.638 39.2094 153.36 37.8081C156.999 34.8941 157.142 42.5987 160.237 35.477C164.106 36.5565 169.426 50.6741 169.139 45.6823C168.851 40.6906 172.302 37.9878 172.302 37.9878C171.131 21.1272 161.881 22.2607 157.939 23.3891C156.559 23.7691 155.52 23.1277 154.046 23.6132C131.787 30.2034 146.486 48.8896 146.486 48.8896C145.889 47.2211 143.913 41.8577 145.488 40.2646Z" fill="#D1AB09"/>
<path d="M172.501 38.0002C172.501 38.0002 174.282 37.5734 174.489 41.1675C174.696 44.7615 173.365 47.7429 173.365 47.7429C173.365 47.7429 174.502 64.0046 185.315 62.1801" stroke="#1A161A" stroke-width="0.8" stroke-miterlimit="10" stroke-linecap="round"/>
<path d="M174.465 47.7667C174.524 47.7188 174.568 47.6616 174.6 47.6002C174.571 47.6874 174.524 47.755 174.466 47.8022C174.38 47.8722 174.255 47.9082 174.098 47.89C174.224 47.8865 174.355 47.8558 174.465 47.7667Z" stroke="#956F00" stroke-width="0.5"/>
<path d="M161.555 45.0862C160.949 45.1894 160.348 45.3096 159.847 45.444C159.399 45.5641 158.882 45.7351 158.359 45.9244C157.453 46.2523 156.676 46.842 156.283 47.534C155.894 48.2187 155.887 48.9869 156.471 49.7278C157.684 51.2659 160.138 52.0179 162.046 51.637L162.431 51.5603L163.323 51.2606C164.888 50.735 165.739 49.2974 165.414 47.7261L165.403 47.6734C165.374 47.5308 165.332 47.3889 165.28 47.249C164.736 45.8025 163.1 44.8227 161.555 45.0862Z" fill="#D2D1E2" stroke="#956F00" stroke-width="0.5"/>
<path d="M147.024 48.9798C147.58 48.7717 148.147 48.5789 148.649 48.4446C149.097 48.3245 149.64 48.2114 150.204 48.1095C151.181 47.933 152.274 48.0214 153.154 48.3726C154.023 48.7201 154.666 49.3139 154.826 50.1685C155.158 51.9427 153.873 53.6967 152.072 54.3097L151.709 54.4331L150.767 54.6251C149.113 54.962 147.26 54.2488 146.21 52.8718L146.175 52.8256C146.08 52.7007 145.994 52.5707 145.919 52.4368C145.143 51.0525 145.603 49.5108 147.024 48.9798Z" fill="#D2D1E2" stroke="#956F00" stroke-width="0.5"/>
<path d="M166 46.1823L170.068 39.8478C170.6 39.0186 171.252 38.2727 172.003 37.6342L172.702 37.0389" stroke="#956F00" stroke-width="0.5" stroke-linecap="round"/>
<path d="M65.0995 332.846L61.963 337.298L12.2455 302.513L15.3819 298.062C15.3819 298.062 23.7404 287.003 36.5492 291.739C41.7154 293.647 47.0515 294.718 52.4943 294.557L53.4817 294.399L75.7693 310.278C75.7693 310.278 74.5601 319.181 65.0995 332.846Z" fill="#FFF5E3"/>
<path d="M14.8665 298.677L64.2382 333.951" stroke="#1A161A" stroke-width="0.8" stroke-miterlimit="10" stroke-linecap="round"/>
<path d="M49.6433 294.58L52.2725 302.679L55.7339 302.161L52.6843 294.63" stroke="#1A161A" stroke-width="0.8" stroke-miterlimit="10" stroke-linecap="round"/>
<path d="M44.4762 293.837L46.8036 303.296L50.0671 302.807L47.7891 294.352" stroke="#1A161A" stroke-width="0.8" stroke-miterlimit="10" stroke-linecap="round"/>
<path d="M103.949 207.001C113.449 202.501 135.92 189.636 151.181 187.863C175.567 165.255 206.75 187.972 206.75 187.972C206.75 187.972 216.5 226.5 206.83 231.959C197.161 237.418 169.876 240.822 169.876 240.822C169.876 240.822 164.85 242.146 157.15 248.621C146.751 257.366 144.066 260.845 143.198 263.158C142.329 265.471 136.03 323.267 136.03 323.267L104 320L108.927 263.956L79.7583 313.095L52.6404 294.087L69.8135 259.504C69.8135 259.504 94.9869 211.246 103.949 207.001Z" fill="#412F51"/>
<path d="M160.5 196.501C145.042 200.786 122 221.501 118.5 225.501C115 229.501 109 264.001 109 264.001" stroke="#1A161A" stroke-width="0.8" stroke-linecap="round"/>
<path d="M165.501 74.5003C169.001 74.5003 170.201 77.2003 186.001 62.0002C193.101 63.9003 207.501 66.5003 213.001 70.0003C213.001 70.0003 216.886 72.0005 219.501 76.5003C222.115 81.0001 224.001 90.0003 224.001 96.5004C224.001 100 223.063 110.844 215.64 121.326C215.086 124.527 213.886 125.176 213.886 131.5C213.886 137.825 212.886 155.131 210.886 164.131C209.944 170.373 210.001 183.501 211.246 189.601C212.001 193.299 212.001 193.501 212.001 196.001C212.001 198.501 211.015 199.317 210.886 199.501C208.422 203.001 191.001 197.001 184.673 194.501C179.501 191.501 177.001 189.601 170.501 190.501C160.301 193.501 136.93 195.995 136.386 192.001C135.742 187.277 137.585 181.354 139.628 174.787C140.229 172.858 141 172 141.5 170.5C139.628 171.228 130.149 174.94 129.251 173.954C129.733 173.74 130.858 172.896 131.502 171.228C132.308 169.142 131.734 166.283 131.127 164.131C130.641 162.409 127.333 159.47 125.74 158.216C125.661 157.386 126.498 155.632 130.48 155.252C133.496 154.965 139.411 151.674 143.853 148.894C143.758 148.096 143.632 147.297 143.473 146.501C142.954 143.904 142.287 140.966 141.56 137.825C135.778 147.174 125.868 153.22 121.576 154.858C120.033 155.446 118.801 155.684 117.729 155.891C115.1 156.398 113.429 156.72 110.482 161.578C107.163 167.05 104.053 167.035 102.913 166.343C103.315 166.002 104.155 164.875 104.301 163.092C104.483 160.863 103.123 158.284 101.932 156.392C100.979 154.878 96.9749 152.995 95.092 152.242C94.7813 151.469 95.0879 149.55 98.7996 148.059C102.511 146.567 109.593 138.621 112.67 134.834C121.422 126.576 123.162 122.68 122.937 121.764C123.989 117.139 130.462 97.2388 133.501 93.0003C136.01 89.5003 140.501 85.0003 143.501 82.5003C146.501 80.0003 158.001 72.5003 158.001 72.5003C158.001 72.5003 162.469 74.5003 165.501 74.5003Z" fill="#15595D"/>
<path d="M197 94.0001C188.966 99.287 172.501 125.975 172.501 125.975C169.625 131.113 154.732 143.057 144 148.501" stroke="#1A161A" stroke-width="0.8" stroke-linecap="round"/>
<path d="M141.5 170.501C147.184 170.059 169.646 164.369 181.443 154.303C193.241 144.237 203 136.5 203 136.5C210.501 129 215.001 121.5 215.001 121.5" stroke="#1A161A" stroke-width="0.8" stroke-linecap="round"/>
<path d="M141 138C140.334 135.667 139.1 129.4 139.5 123C139.9 116.6 141.334 105.334 142 100.5" stroke="#1A161A" stroke-width="0.8" stroke-linecap="round"/>
<path d="M46.0001 131C44.3432 131 43.3703 132.291 43.827 133.884L55.9551 176.18C56.4118 177.772 58.1252 179.064 59.782 179.064H133.782C133.997 179.064 134.201 179.042 134.391 179.001H148C149.105 179.001 150 178.105 150 177.001V176.001C150 174.896 149.105 174.001 148 174.001H135.33L123.827 133.884C123.371 132.291 121.657 131 120 131H46.0001Z" fill="#D2D1E2"/>
<path d="M209 231.08C211.91 230.752 219.582 231.276 227.001 236.001" stroke="#1A161A" stroke-width="0.8" stroke-linecap="round"/>
<path d="M88.8613 189.888C128.293 189.033 159.501 183.543 159.501 181.001C159.501 180.611 159.59 180.291 159.504 180.03C158.978 178.439 151.935 179.001 78.5005 179.001C2.00025 179.001 0 179.239 0 182.001C0 184.615 30.7616 189.45 71.533 189.957C78.4344 219.646 78.1563 328.582 73.1768 337.001C67.8534 346.001 42.5 348.001 42.5 348.001C41.1193 348.001 40 349.12 40 350.501C40 351.882 41.1193 353.001 42.5 353.001H73.1768L73.201 353.001H87.0002L87.0238 353.001H117.5C118.881 353.001 120 351.882 120 350.501C120 349.12 118.881 348.001 117.5 348.001C117.5 348.001 94.2846 346.351 89.0002 337.001C83.0676 326.505 85.0488 215.628 88.8613 189.888Z" fill="#282329"/>
<path d="M54.4885 175.945C54.4885 177.189 44.1039 180 31.6417 180C19.1796 180 9.5 177.639 9.5 176.395C9.5 175.151 10.0642 175.043 31.6417 175.043C55.7578 175.043 54.4885 174.7 54.4885 175.945Z" fill="#C22C38"/>
<path fill-rule="evenodd" clip-rule="evenodd" d="M41.9913 164.625C41.9933 164.525 41.9942 164.428 41.9942 164.334C41.9942 163.125 42.0608 162.416 41.7416 162.009C41.0749 161.159 38.7253 161.63 30.5709 161.63C19.7821 161.63 19.5 161.953 19.5 165.686C19.5 169.418 22 177.5 30.5709 176.5C34.8154 176.5 37.5185 174.959 39.2224 172.903C41.04 172.74 45.5046 170.359 45.5357 168.61C45.5707 166.642 44.0376 164.981 41.9913 164.625ZM41.8836 166.174C41.7207 167.558 41.3519 169.177 40.6112 170.717C40.9098 170.596 41.215 170.489 41.5126 170.384C42.7159 169.962 43.7948 169.583 43.8144 168.485C43.8336 167.408 42.8565 166.79 42.0335 166.269C41.9829 166.237 41.9328 166.205 41.8836 166.174Z" fill="#C22C38"/>
<path d="M133.614 347.707L133.069 353.125L72.6759 347.253L73.2209 341.835C73.2209 341.835 75.0679 328.097 88.5514 325.93C93.9885 325.053 99.1623 323.364 103.824 320.55L104.606 319.927L131.82 322.808C131.82 322.808 135.14 331.157 133.614 347.707Z" fill="#FFF5E3"/>
<path d="M73.092 342.95L133.484 348.838" stroke="#1A161A" stroke-width="0.8" stroke-miterlimit="10" stroke-linecap="round"/>
<path d="M101.169 322.025L107.493 327.728L110.233 325.549L103.828 320.549" stroke="#1A161A" stroke-width="0.8" stroke-miterlimit="10" stroke-linecap="round"/>
<path d="M96.3228 323.963L103.065 330.995L105.648 328.941L99.4497 322.754" stroke="#1A161A" stroke-width="0.8" stroke-miterlimit="10" stroke-linecap="round"/>
<path d="M135.25 174C135.75 175.083 136.75 178.25 136 178.75" stroke="#1A161A" stroke-width="0.8" stroke-linecap="round"/>
<path d="M25.5 175.877C27.025 176.49 31.0265 177.32 34.833 175.736" stroke="#1A161A" stroke-width="0.8" stroke-linecap="round"/>
</svg>
