<svg width="480" height="731" viewBox="0 0 480 731" fill="none" xmlns="http://www.w3.org/2000/svg">
<path d="M435.842 481.922C455.035 461.761 480 346.424 480 250.793C480 154.948 475.201 37.44 393.6 37.4399C367.68 37.4399 336.001 77.7602 333.121 94.0803C337.921 112.32 338.881 118.08 357.121 120C375.478 121.933 366.102 145.504 355.562 172.001C348.446 189.891 340.799 209.115 340.799 223.912C340.799 243.471 340.512 262.612 340.235 281.107C339.178 351.518 338.262 412.547 353.874 451.487C342.552 450.8 333.285 450.576 329.466 451.288C322.283 452.627 315.229 453.804 308.414 454.942C268.609 461.586 184.938 448.921 183.362 477.122C182.661 489.659 282.492 526.798 331.622 517.638C362.086 511.958 413.597 505.287 435.842 481.922Z" fill="#C22C38"/>
<path d="M305.968 128.986C305.968 128.986 309.738 134.346 304.558 137.913" stroke="#1A161A" stroke-width="0.8" stroke-miterlimit="10" stroke-linecap="round"/>
<path d="M282.241 95.0403C288.097 109.896 298.884 132.855 311.145 128.688C328.674 122.486 327.788 100.42 327.788 100.42" stroke="#1A161A" stroke-width="0.8" stroke-miterlimit="10" stroke-linecap="round"/>
<path d="M279.338 77.3078C283.171 77.0871 291.145 75.2819 294.452 72.5914C301.438 66.9966 301.712 81.7893 307.656 68.1158C315.083 70.1883 325.298 97.2942 324.746 87.71C324.194 78.1258 330.819 72.9365 330.819 72.9365C328.571 40.5641 310.811 42.7404 303.243 44.907C300.592 45.6365 298.598 44.4051 295.767 45.3373C253.032 57.9904 281.252 93.8679 281.252 93.8679C280.106 90.6645 276.313 80.3667 279.338 77.3078Z" fill="#D1AB09"/>
<path d="M331.202 72.9603C331.202 72.9603 334.622 72.1409 335.019 79.0415C335.417 85.9421 332.861 91.6664 332.861 91.6664C332.861 91.6664 335.043 122.889 355.804 119.386" stroke="#1A161A" stroke-width="0.8" stroke-miterlimit="10" stroke-linecap="round"/>
<path d="M334.828 91.5334C335.113 91.3029 335.168 90.9065 335.166 90.5719C335.164 90.219 335.097 89.8302 335.038 89.5166C335.038 89.5144 335.038 89.5123 335.037 89.5102C335.322 89.9449 335.481 90.4028 335.515 90.8134C335.557 91.3175 335.412 91.7223 335.12 91.9588C334.829 92.1952 334.403 92.254 333.918 92.1091C333.502 91.9848 333.063 91.7141 332.683 91.3126C332.692 91.316 332.701 91.3195 332.71 91.3231C332.735 91.3325 332.76 91.3422 332.786 91.352C333.088 91.4671 333.462 91.606 333.812 91.675C334.144 91.7403 334.546 91.7627 334.828 91.5334Z" stroke="#956F00" stroke-width="0.5"/>
<path d="M299.217 93.8646C299.835 95.3314 300.639 96.1273 302.235 97.7028C303.98 99.4252 306.543 100.287 308.829 99.8305L311.964 99.2049L314.897 98.2199C317.283 97.4189 318.579 95.228 318.084 92.8333L317.808 91.5011C317.752 91.2303 317.674 90.9609 317.574 90.6952L317.474 90.4278C316.442 87.6858 313.333 85.8159 310.377 86.3074C309.123 86.5158 307.856 86.7635 306.809 87.0441C305.279 87.4539 303.354 88.1654 301.694 88.8262C299.551 89.6798 298.335 91.769 299.217 93.8646Z" fill="#D2D1E2" stroke="#956F00" stroke-width="0.5"/>
<path d="M296.868 94.4939C297.604 95.9291 297.638 96.9312 297.703 98.9171C297.773 101.088 296.493 102.979 294.337 103.714L291.38 104.72L288.282 105.351C285.762 105.865 282.938 104.778 281.337 102.679L280.447 101.512C280.266 101.275 280.104 101.028 279.961 100.773L279.818 100.518C278.347 97.8934 279.215 94.9579 281.922 93.9317C283.07 93.4964 284.261 93.0857 285.308 92.8052C286.838 92.3953 288.925 92.0314 290.764 91.7549C293.139 91.3977 295.817 92.4435 296.868 94.4939Z" fill="#D2D1E2" stroke="#956F00" stroke-width="0.5"/>
<path d="M318.721 88.6699L327.269 75.3573C327.801 74.5281 328.453 73.7822 329.204 73.1436L331.589 71.1146" stroke="#956F00" stroke-width="0.5" stroke-linecap="round"/>
<path d="M124.991 639.065L118.969 647.612L23.5113 580.825L29.5332 572.278C29.5332 572.278 45.5814 551.045 70.1743 560.14C80.0934 563.803 90.3387 565.859 100.789 565.549L102.685 565.245L145.477 595.734C145.477 595.734 143.155 612.827 124.991 639.065Z" fill="#FFF5E3"/>
<path d="M28.5438 573.46L123.338 641.186" stroke="#1A161A" stroke-width="0.8" stroke-miterlimit="10" stroke-linecap="round"/>
<path d="M95.3155 565.593L100.364 581.145L107.009 580.149L101.154 565.689" stroke="#1A161A" stroke-width="0.8" stroke-miterlimit="10" stroke-linecap="round"/>
<path d="M85.3946 564.167L89.8631 582.329L96.1292 581.39L91.7553 565.155" stroke="#1A161A" stroke-width="0.8" stroke-miterlimit="10" stroke-linecap="round"/>
<path d="M199.582 397.441C217.822 388.801 260.967 364.102 290.268 360.696C337.089 317.289 396.961 360.907 396.961 360.907C396.961 360.907 415.68 434.88 397.114 445.361C378.549 455.842 326.162 462.379 326.162 462.379C326.162 462.379 316.513 464.919 301.728 477.352C281.761 494.142 276.606 500.822 274.939 505.263C273.273 509.704 261.177 620.672 261.177 620.672L199.68 614.4L209.139 506.796L153.136 601.142L101.07 564.646L134.042 498.248C134.042 498.248 182.375 405.592 199.582 397.441Z" fill="#412F51"/>
<path d="M308.161 377.281C278.481 385.509 234.24 425.281 227.52 432.961C220.8 440.641 209.28 506.882 209.28 506.882" stroke="#1A161A" stroke-width="0.8" stroke-linecap="round"/>
<path d="M317.761 143.041C324.481 143.041 326.785 148.225 357.121 119.041C370.754 122.689 398.402 127.681 408.962 134.401C408.962 134.401 416.422 138.241 421.442 146.881C426.461 155.52 430.082 172.801 430.082 185.281C430.082 192.001 428.28 212.82 414.029 232.947C412.964 239.092 410.661 240.337 410.661 252.481C410.661 264.625 408.741 297.852 404.901 315.132C403.092 327.116 403.202 352.321 405.592 364.033C407.042 371.133 407.042 371.521 407.042 376.321C407.042 381.121 405.149 382.69 404.901 383.041C400.171 389.761 366.722 378.241 354.573 373.441C344.641 367.681 339.841 364.033 327.361 365.761C307.777 371.521 262.906 376.31 261.861 368.641C260.624 359.571 264.163 348.2 268.087 335.591C269.239 331.887 270.72 330.24 271.68 327.36C268.087 328.757 249.885 335.884 248.162 333.991C249.087 333.581 251.247 331.961 252.484 328.757C254.031 324.752 252.929 319.264 251.763 315.132C250.83 311.826 244.48 306.183 241.421 303.774C241.269 302.182 242.877 298.814 250.522 298.084C256.311 297.532 267.67 291.214 276.197 285.876C276.015 284.343 275.774 282.811 275.468 281.281C274.472 276.297 273.192 270.654 271.795 264.625C260.694 282.574 241.666 294.183 233.427 297.327C230.464 298.457 228.098 298.913 226.039 299.31C220.991 300.284 217.784 300.902 212.125 310.23C205.752 320.736 199.781 320.707 197.592 319.379C198.364 318.725 199.977 316.559 200.257 313.136C200.607 308.857 197.997 303.905 195.709 300.272C193.88 297.365 186.192 293.75 182.577 292.305C181.98 290.821 182.569 287.136 189.695 284.272C196.822 281.409 210.418 266.153 216.326 258.882C233.13 243.027 236.47 235.546 236.04 233.788C238.058 224.907 250.486 186.699 256.321 178.561C261.139 171.841 269.761 163.201 275.521 158.401C281.281 153.601 303.361 139.201 303.361 139.201C303.361 139.201 311.941 143.041 317.761 143.041Z" fill="#15595D"/>
<path d="M386.151 173.752C370.725 183.903 361.236 206.34 351.362 214.033C343.462 220.187 335.651 233.926 331.202 241.873C325.679 251.736 297.085 274.669 276.481 285.121" stroke="#1A161A" stroke-width="0.8" stroke-linecap="round"/>
<path d="M271.681 327.361C282.593 326.513 325.72 315.588 348.371 296.262C371.022 276.935 389.761 262.081 389.761 262.081C404.161 247.681 412.801 233.281 412.801 233.281" stroke="#1A161A" stroke-width="0.8" stroke-linecap="round"/>
<path d="M270.721 264.961C269.441 260.481 267.073 248.449 267.841 236.161C268.609 223.873 271.361 202.241 272.641 192.961" stroke="#1A161A" stroke-width="0.8" stroke-linecap="round"/>
<path d="M88.3203 251.521C85.1391 251.521 83.2711 254 84.1479 257.058L107.434 338.265C108.311 341.323 111.6 343.802 114.782 343.802H256.862C257.275 343.802 257.666 343.76 258.031 343.681H284.161C286.282 343.681 288.001 341.962 288.001 339.841V337.921C288.001 335.8 286.282 334.081 284.161 334.081H259.835L237.748 257.058C236.872 254 233.582 251.521 230.401 251.521H88.3203Z" fill="#D2D1E2"/>
<path d="M401.281 443.673C406.867 443.043 421.598 444.051 435.841 453.122" stroke="#1A161A" stroke-width="0.8" stroke-linecap="round"/>
<path d="M170.614 364.585C246.322 362.943 306.241 352.403 306.241 347.521C306.241 346.773 306.413 346.16 306.247 345.658C305.238 342.603 291.715 343.681 150.721 343.681C3.84048 343.682 0 344.139 0 349.441C0 354.461 59.0623 363.744 137.343 364.718C150.594 421.72 150.06 630.878 140.499 647.042C130.278 664.322 81.6 668.162 81.6 668.162C78.949 668.162 76.8 670.311 76.8 672.962C76.8 675.613 78.949 677.762 81.6 677.762H140.499L140.546 677.763H167.04L167.086 677.762H225.601C228.252 677.762 230.401 675.613 230.401 672.962C230.401 670.311 228.252 668.162 225.601 668.162C225.601 668.162 181.026 664.993 170.88 647.042C159.49 626.89 163.294 414.007 170.614 364.585Z" fill="#282329"/>
<path d="M104.618 337.814C104.618 340.203 84.6798 345.6 60.7524 345.6C36.825 345.6 18.2402 341.068 18.2402 338.679C18.2402 336.29 19.3235 336.083 60.7524 336.083C107.055 336.083 104.618 335.425 104.618 337.814Z" fill="#C22C38"/>
<path fill-rule="evenodd" clip-rule="evenodd" d="M80.6232 316.08C80.6271 315.888 80.6289 315.702 80.6289 315.521C80.6289 313.2 80.7566 311.838 80.1438 311.057C78.8638 309.426 74.3525 310.33 58.696 310.33C37.9816 310.33 37.4399 310.949 37.4399 318.116C37.4399 325.283 42.2399 340.8 58.696 338.88C66.8454 338.88 72.0354 335.921 75.3069 331.973C78.7967 331.661 87.3687 327.089 87.4285 323.731C87.4958 319.954 84.5521 316.764 80.6232 316.08ZM80.4165 319.054C80.1038 321.711 79.3956 324.82 77.9734 327.777C78.5468 327.544 79.1328 327.339 79.7041 327.138C82.0144 326.327 84.086 325.6 84.1236 323.491C84.1604 321.423 82.2845 320.236 80.7042 319.236C80.607 319.175 80.511 319.114 80.4165 319.054Z" fill="#C22C38"/>
<path d="M256.539 667.598L255.493 678L139.538 666.726L140.584 656.324C140.584 656.324 144.131 629.946 170.019 625.785C180.458 624.102 190.392 620.86 199.342 615.455L200.844 614.26L253.094 619.792C253.094 619.792 259.47 635.821 256.539 667.598Z" fill="#FFF5E3"/>
<path d="M140.337 658.465L256.289 669.769" stroke="#1A161A" stroke-width="0.8" stroke-miterlimit="10" stroke-linecap="round"/>
<path d="M194.244 618.288L206.387 629.238L211.647 625.055L199.35 615.454" stroke="#1A161A" stroke-width="0.8" stroke-miterlimit="10" stroke-linecap="round"/>
<path d="M184.94 622.01L197.885 635.51L202.844 631.566L190.943 619.688" stroke="#1A161A" stroke-width="0.8" stroke-miterlimit="10" stroke-linecap="round"/>
<path d="M259.68 334.08C260.64 336.16 262.56 342.24 261.12 343.2" stroke="#1A161A" stroke-width="0.8" stroke-linecap="round"/>
<path d="M48.96 337.685C51.8879 338.862 59.5709 340.455 66.8793 337.413" stroke="#1A161A" stroke-width="0.8" stroke-linecap="round"/>
</svg>
