<svg width="180" height="397" viewBox="0 0 180 397" fill="none" xmlns="http://www.w3.org/2000/svg">
<path d="M61.7 390.638V396.038H1V390.638C1 390.638 1.49999 376.738 14.8 373.338C20.1 371.938 25.1 369.738 29.5 366.538L30.2 366.038H57.6C57.6 366.038 61.8 374.038 61.8 390.638H61.7Z" fill="#FFF5E3"/>
<path d="M1 391.838H61.7" stroke="#1A161A" stroke-width="0.8" stroke-miterlimit="10" stroke-linecap="round"/>
<path d="M26.7998 368.238L33.7998 373.338L36.1998 370.938L29.3998 366.538" stroke="#1A161A" stroke-width="0.8" stroke-miterlimit="10" stroke-linecap="round"/>
<path d="M22.2998 370.638L29.5998 377.038L31.9998 374.638L25.1998 369.138" stroke="#1A161A" stroke-width="0.8" stroke-miterlimit="10" stroke-linecap="round"/>
<path d="M149.082 358.462L151.572 363.305L97.6997 391.226L95.2101 386.384C95.2101 386.384 89.2874 373.85 99.423 364.698C103.509 361.005 106.932 356.774 109.312 351.877L109.63 350.929L134.033 338.544C134.033 338.544 141.361 343.744 149.082 358.462Z" fill="#FFF5E3"/>
<path d="M95.7153 387.397L149.587 359.475" stroke="#1A161A" stroke-width="0.8" stroke-miterlimit="10" stroke-linecap="round"/>
<path d="M107.885 354.562L116.294 355.905L117.407 352.587L109.313 351.877" stroke="#1A161A" stroke-width="0.8" stroke-miterlimit="10" stroke-linecap="round"/>
<path d="M104.873 358.826L114.356 361.056L115.405 357.928L106.839 356.11" stroke="#1A161A" stroke-width="0.8" stroke-miterlimit="10" stroke-linecap="round"/>
<path d="M53.2788 46.841C53.2788 46.841 54.1948 50.1291 51.0308 50.977" stroke="#1A161A" stroke-width="0.8" stroke-miterlimit="10" stroke-linecap="round"/>
<path d="M47.3955 25.2294C47.6794 33.5414 49.1273 47.5054 55.8713 47.5975C65.5553 47.6095 68.9674 36.6256 68.9674 36.6256" stroke="#1A161A" stroke-width="0.8" stroke-miterlimit="10" stroke-linecap="round"/>
<path d="M49.2186 16.836C51.1386 17.396 55.3666 17.9001 57.4586 17.1561C61.8626 15.6281 59.4185 22.9361 64.7193 17.2614C68.0033 19.5735 68.2912 34.6575 69.6912 29.8575C71.0913 25.0575 75.2473 23.6655 75.2473 23.6655C79.7875 7.38558 70.6915 5.35749 66.5995 5.10146C65.1715 4.99744 64.4076 4.04546 62.8556 4.00945C39.6756 2.76924 47.2713 25.2973 47.2713 25.2973C47.2673 23.5253 47.2012 17.8101 49.2186 16.836Z" fill="#D1AB09"/>
<path d="M75.2758 23.5695C75.2758 23.5695 77.2518 23.9376 76.2438 27.3936C75.2357 30.8495 72.9837 33.2135 72.9837 33.2135C72.9837 33.2135 68.6116 48.9175 79.4115 50.8176" stroke="#1A161A" stroke-width="0.8" stroke-miterlimit="10" stroke-linecap="round"/>
<path d="M74.0128 33.6046C74.0844 33.5792 74.1446 33.5399 74.1953 33.4927C74.1391 33.5653 74.0725 33.6134 74.0019 33.6384C73.8972 33.6754 73.7674 33.6676 73.6258 33.598C73.7451 33.6366 73.8794 33.6518 74.0128 33.6046Z" stroke="#956F00" stroke-width="0.5" stroke-linecap="round"/>
<path d="M65.9015 6.14427C65.3287 6.01537 64.7453 5.90228 64.2304 5.83654C63.7702 5.77778 63.2126 5.73742 62.6348 5.7101C61.6339 5.66278 60.5194 5.88115 59.6296 6.32239C58.7493 6.75896 58.1062 7.40128 57.9623 8.23148C57.6635 9.95501 59.015 11.4604 60.8671 11.8203L61.2398 11.8928L62.2067 11.959C63.9021 12.0751 65.7782 11.1707 66.8193 9.73555L66.8542 9.68742C66.9487 9.55717 67.0331 9.42336 67.1068 9.28713C67.868 7.87872 67.3634 6.47322 65.9015 6.14427Z" fill="#D2D1E2" stroke="#956F00" stroke-width="0.5" stroke-linecap="round"/>
<path d="M50.166 5.82101C50.7807 5.73374 51.3943 5.66357 51.9126 5.63668C52.3759 5.61264 52.9164 5.61523 53.4664 5.63284C54.4193 5.66335 55.2958 5.97612 55.8138 6.50036C56.3264 7.01907 56.4806 7.73063 56.0478 8.59597C55.1492 10.3924 52.8811 11.834 50.9325 12.0577L50.5404 12.1027L49.6059 12.0943C47.9674 12.0796 46.8573 11.001 46.8768 9.44241L46.8774 9.39015C46.8792 9.24869 46.8927 9.10438 46.9177 8.95842C47.1763 7.44951 48.5974 6.04373 50.166 5.82101Z" fill="#D2D1E2" stroke="#956F00" stroke-width="0.5" stroke-linecap="round"/>
<path d="M68.6357 9.47864L72.7167 15.725C73.2794 16.5864 73.7058 17.5294 73.9809 18.5208L74.4218 20.1098" stroke="#956F00" stroke-width="0.5" stroke-linecap="round"/>
<path d="M49.697 52.5001C49.697 52.5001 63.297 61.2 76.097 47.3C76.097 47.3 64.497 104.8 74.897 121.3C85.297 137.8 99.397 159.7 99.397 159.7C99.397 159.7 71.297 190 40.797 167.3C37.297 166.2 24.597 157.9 33.697 123.2C43.097 87.3001 49.697 52.6 49.697 52.6V52.5001Z" fill="#FFF5E3"/>
<path d="M84.2657 249.669L87.5063 257.657C90.9671 266.743 137.5 337 137.5 337L108.5 352L72.9902 296.797L62 366.5H28C29.6746 329.356 38.8289 273.333 46.6435 246.074L44.0759 238.186L29.8978 179.775L28 171.587L37.1543 163C37.1543 163 52.7836 181.472 90.7407 166.994C128.698 152.516 109.942 194.752 109.942 194.752L84.3773 249.669H84.2657Z" fill="#412F51"/>
<path d="M84 250L73 297" stroke="#1A161A" stroke-width="0.8" stroke-miterlimit="10" stroke-linecap="round"/>
<path d="M47 246L63 189" stroke="#1A161A" stroke-width="0.8" stroke-miterlimit="10" stroke-linecap="round"/>
<path d="M109.797 263.8C109.797 263.8 93.5 263.3 84 250L101.997 195.5L109.697 263.8H109.797Z" fill="#C22C38"/>
<path d="M49.9969 51.3L32.0968 55.5001C26.5968 56.8001 21.8968 60.7001 19.8968 66.0001C19.3968 67.3001 19.0969 68.6001 18.9969 69.7001C18.2969 81.1001 16.7969 114.3 16.9969 120.7C17.3969 134 11.2969 146.9 28.6969 172.2C28.6969 172.2 33.8968 167.8 36.8968 163.6C36.8968 163.6 47.1968 96.8 47.8968 83.3C48.5968 69.8 47.8969 58.4 49.9969 51.3Z" fill="#DD524B"/>
<path d="M42.1972 53.2001C42.1972 53.2001 31.3972 61.7 30.0972 64.6L31.2972 75.8L43.1972 72.0001L33.7972 80.3C33.7972 80.3 38.6972 88.4 39.1972 93.3C39.6972 98.2 37.9972 119.6 41.4972 127.3" stroke="#1A161A" stroke-width="0.8" stroke-miterlimit="10" stroke-linecap="round"/>
<path d="M123.197 72.3C120.097 67.1 114.997 63.4 109.197 61.6C91.497 56.2 76.097 47.3 76.097 47.3C74.597 49.2 74.597 48.8001 70.997 54.5001C67.397 60.3001 68.897 63.9 62.797 88.3C56.697 112.7 60.097 122.4 69.597 131.3C79.097 140.2 91.597 159.7 91.597 159.7L84.8969 167.7L102.297 185.9C102.297 185.9 100.897 236.5 100.797 256.1C100.797 260.1 103.797 263.5 107.797 263.8C116.197 264.5 126.997 263.1 133.197 262.1C136.197 261.6 138.297 259 138.197 256C137.197 230 132.097 161.4 132.097 161.4L136.497 155.4C139.797 150.8 141.497 145.2 141.297 139.6C140.397 115 132.097 87.3001 123.197 72.5001V72.3Z" fill="#DD524B"/>
<path d="M105.797 82.8C105.797 82.8 103.997 112 107.797 129.2C108.797 133.7 107.797 138.4 105.097 142.1C100.997 147.6 95.1972 155.3 91.5972 159.6" stroke="#1A161A" stroke-width="0.8" stroke-miterlimit="10" stroke-linecap="round"/>
<path d="M132.097 161.2L106.497 189.9L102.297 185.8" stroke="#1A161A" stroke-width="0.8" stroke-miterlimit="10" stroke-linecap="round"/>
<path d="M87.1972 50.4001C87.1972 50.4001 82.7972 69.5001 80.2972 76.9001L68.7972 74.4001L74.8972 82.0001C74.8972 82.0001 60.7972 104.8 60.0972 114.3" stroke="#1A161A" stroke-width="0.8" stroke-miterlimit="10" stroke-linecap="round"/>
<path d="M25.1973 95.2001C25.1973 95.2001 28.7972 107.2 29.0972 115.2C29.3972 123.2 31.9972 149.7 36.7972 163.7" stroke="#1A161A" stroke-width="0.8" stroke-miterlimit="10" stroke-linecap="round"/>
<path d="M31.1447 184.012C31.1447 184.012 21.6441 211.505 31.1447 250.505L44.6441 239.505L31.1447 184.012Z" fill="#C22C38"/>
<path d="M81.6971 46.2001C81.6971 46.2001 39.3971 75.1001 27.2971 103C27.2971 103 25.7971 107.5 29.2971 116.7C29.2971 116.7 34.4971 91.1001 91.6971 53.3001C91.6971 53.3001 87.6971 45.6001 81.7971 46.2001H81.6971Z" fill="#15595D"/>
</svg>
