<svg width="962" height="973" viewBox="0 0 962 973" fill="none" xmlns="http://www.w3.org/2000/svg">
<path d="M182.051 207.631C199.701 207.666 182.716 239.186 167.111 236.236C153.666 233.691 167.611 207.606 182.051 207.631ZM208.896 241.551V264.876C208.896 266.716 208.951 266.186 196.481 266.181C176.231 266.181 94.806 269.541 94.666 269.341C94.276 268.796 94.521 269.341 93.996 245.626C93.916 241.981 93.916 244.366 143.851 242.496C216.446 239.776 208.946 236.666 208.896 241.551ZM243.216 297.956C243.116 289.796 243.216 286.641 240.486 284.161C231.486 276.006 230.921 275.901 230.961 272.831C231.21 266.526 230.997 260.211 230.326 253.936C225.332 248.386 219.877 243.268 214.021 238.636C210.381 236.476 205.901 236.316 190.661 236.451C189.851 236.451 189.521 236.236 189.296 235.371C188.557 233.674 188.003 231.902 187.646 230.086C187.601 228.201 189.421 226.781 190.311 225.086C192.374 221.441 193.301 217.262 192.971 213.086C191.406 197.201 163.771 202.946 158.271 225.301C155.871 235.071 162.181 237.301 159.886 237.421C134.606 238.776 134.576 238.816 134.576 237.171C134.576 235.671 134.576 237.171 134.051 216.701C133.991 214.341 132.626 213.526 131.096 213.846C128.676 214.346 129.286 214.936 129.791 234.986C129.866 237.881 130.101 238.436 128.941 238.486C116.626 238.931 116.606 239.546 116.576 237.736C115.996 204.176 117.076 201.881 113.621 202.031C109.821 202.201 111.236 204.156 111.946 236.031C112.006 238.761 112.561 238.941 111.476 239.031C106.301 239.421 97.366 240.091 93.701 240.601C90.126 241.101 91.001 242.006 90.436 267.286C90.356 270.846 89.936 269.786 86.271 270.261C77.956 271.331 77.441 271.051 76.736 272.611C74.931 276.611 75.116 290.456 73.986 917.716C73.986 917.716 78.986 917.776 80.531 917.716C79.231 904.426 79.741 735.451 79.781 730.216C83.586 274.671 75.996 274.366 81.396 274.366C145.206 274.366 200.021 269.931 214.521 269.756C218.461 269.711 216.706 271.756 216.656 286.936C214.881 811.371 214.626 904.546 213.116 917.706H245.206C242.446 877.511 245.231 459.911 243.216 297.956Z" fill="black"/>
<path d="M169.806 863.531C169.456 860.186 167.951 861.276 156.146 861.616C135.621 862.201 142.806 861.861 122.906 862.641C120.486 862.736 119.236 863.781 119.366 866.191C119.711 872.481 119.766 915.976 119.621 917.691C120.856 917.966 121.996 917.506 123.226 917.691C123.226 917.586 121.606 866.156 124.271 866.076C165.546 864.841 165.741 863.901 165.771 866.456C165.801 870.216 165.121 911.356 165.391 917.691C166.611 917.741 167.831 917.626 169.051 917.691C169.071 917.576 170.051 865.881 169.806 863.531Z" fill="black"/>
<path d="M92.946 786.231C93.216 783.161 94.061 783.191 96.396 783.166C99.396 783.131 195.721 780.051 196.081 780.086C199.581 780.421 198.441 780.621 198.216 818.276C198.186 823.356 186.781 822.376 147.241 824.206C95.206 826.616 93.241 826.886 93.011 823.746C92.816 821.376 92.681 789.001 92.946 786.231ZM193.446 799.916C193.446 783.116 193.991 783.171 192.186 783.206C192.081 783.206 144.731 785.991 100.016 787.146C97.976 787.201 98.581 787.026 98.611 803.466C98.641 822.256 98.036 822.256 99.946 822.166C134.126 820.536 143.946 820.436 191.971 819.036C194.026 818.976 193.446 819.146 193.446 799.916Z" fill="black"/>
<path d="M197.806 500.481C98.471 504.841 108.501 504.881 95.251 504.111C91.481 503.891 92.526 503.136 92.521 465.421C92.521 460.641 92.221 461.706 167.766 459.421C199.221 458.481 200.676 457.276 200.686 461.836C200.771 500.686 201.086 500.336 197.806 500.481ZM97.126 497.696C97.126 502.786 96.571 501.061 111.361 500.101C119.276 499.601 132.236 499.226 173.451 498.026C195.301 497.391 195.051 498.211 195.136 495.831C195.571 483.361 195.461 495.801 195.516 462.546C195.516 460.476 120.251 466.506 98.946 465.226C96.226 465.061 97.121 462.261 97.126 497.696Z" fill="black"/>
<path d="M92.561 564.561C92.561 539.386 89.996 542.891 107.061 542.011C122.856 541.201 129.186 541.146 167.366 539.951C199.406 538.951 200.126 538.051 200.081 541.101C199.526 580.601 200.496 580.286 198.316 580.561C196.716 580.756 100.316 586.461 93.876 584.101C91.976 583.396 92.571 583.851 92.561 564.561ZM195.011 544.641C195.011 541.201 195.596 542.141 188.826 542.536C188.721 542.536 106.126 546.576 99.271 545.951C97.476 545.791 97.486 545.656 97.486 547.861C97.526 580.896 97.541 580.601 97.621 580.896C98.026 582.396 98.956 580.896 121.376 580.106C186.576 577.881 164.256 579.046 193.691 577.971C195.631 577.901 195.041 578.026 195.011 544.641Z" fill="black"/>
<path d="M100.196 703.661C118.011 702.811 141.666 702.161 163.311 701.526C195.691 700.571 199.241 699.401 199.076 703.301C197.576 739.506 201.076 742.216 195.751 742.536C85.3409 749.181 92.8459 748.641 92.9009 742.451C93.2309 702.356 89.8109 704.156 100.196 703.661ZM192.446 703.731C188.681 703.836 144.581 706.286 99.5359 707.651C97.5359 707.711 98.1309 707.551 98.1609 725.271C98.1959 742.771 97.5059 742.711 99.8259 742.616C149.796 740.586 167.036 740.116 190.016 739.551C194.386 739.436 193.961 740.111 193.966 737.281C194.011 701.946 194.766 703.666 192.446 703.731Z" fill="black"/>
<path d="M92.906 644.326C92.906 626.881 91.636 622.911 96.541 623.151C99.786 623.306 96.541 623.056 182.326 620.471C203.221 619.841 199.301 618.036 199.251 629.791C199.116 662.231 200.321 661.161 196.216 661.961C195.996 662.006 101.406 666.221 96.656 666.201C91.731 666.181 92.906 664.156 92.906 644.326ZM194.521 628.426C194.521 623.726 194.881 623.076 193.311 623.181C167.681 624.891 98.491 627.061 98.391 627.151C97.221 628.191 97.651 627.151 97.671 660.011C97.671 661.366 97.476 662.426 98.716 662.311C112.376 661.066 134.061 660.576 187.851 659.056C195.116 658.851 194.451 659.726 194.461 656.871C194.531 634.231 194.521 628.526 194.521 628.426Z" fill="black"/>
<path d="M95.916 382.621C122.846 380.961 184.156 379.411 184.031 379.421C204.086 378.796 201.326 375.706 201.076 398.476C200.831 421.331 201.446 420.841 198.286 421.036C198.186 421.036 97.076 425.796 94.046 424.401C92.911 423.876 92.426 423.931 92.476 422.176C93.556 386.061 89.946 382.991 95.916 382.621ZM196.071 383.506C196.071 381.576 196.236 382.166 189.246 382.506C138.466 384.931 107.411 386.471 97.886 385.766C96.111 385.636 96.636 384.186 96.666 419.766C96.666 422.961 96.666 421.001 121.166 420.086L191.446 417.996C196.251 417.876 195.986 418.451 195.981 416.316C195.946 383.506 196.116 416.296 196.071 383.506Z" fill="black"/>
<path d="M190.886 340.926C95.486 344.241 92.521 346.826 92.521 341.271C92.521 329.071 92.491 332.456 92.971 306.976C93.091 300.476 92.436 301.706 167.086 299.421C200.676 298.421 200.631 297.731 200.666 299.986C201.386 343.406 204.231 340.461 190.886 340.926ZM197.581 302.726C197.736 301.116 196.971 301.651 190.251 301.976C95.931 306.536 102.751 305.026 95.866 305.301C97.281 339.086 94.416 341.301 98.206 341.026C118.236 339.656 98.616 340.091 191.646 337.476C196.716 337.331 196.506 337.896 196.571 335.936C196.701 332.271 197.476 303.726 197.581 302.726Z" fill="black"/>
<path d="M838.766 245.731C838.671 244.696 838.876 244.011 836.566 243.366C835.196 243.028 833.811 242.774 832.411 242.606C831.911 242.536 831.311 242.656 831.191 241.446C830.826 237.816 831.341 212.416 830.961 207.221C830.346 204.041 831.516 204.396 760.006 193.386C736.226 189.726 741.401 191.606 730.376 191.776C727.136 191.826 727.496 192.506 727.476 189.076C726.976 115.501 726.376 117.746 721.756 115.901C720.086 115.236 719.106 115.761 719.121 117.576C719.201 128.371 718.171 170.761 718.646 191.891C718.676 193.141 718.556 192.781 706.341 193.796C701.776 194.176 705.776 171.296 701.816 95.7963C701.201 84.0213 701.346 83.7963 700.021 82.9463C689.721 76.3113 695.551 73.5563 693.176 158.631C692.901 168.526 693.026 193.186 693.051 193.761C693.126 195.321 691.996 194.686 688.946 194.971C636.771 199.876 636.846 199.931 636.741 199.941C629.386 200.616 624.166 199.551 623.851 204.056C622.656 214.658 622.811 225.368 624.311 235.931C624.446 237.021 623.771 237.091 619.971 237.356C607.861 238.206 603.881 237.226 603.826 241.731C603.506 269.951 608.521 263.666 592.911 265.181C584.021 266.046 582.911 266.681 582.766 269.441V916.941C584.071 916.851 585.376 916.851 586.681 916.941C587.816 916.791 585.296 286.801 586.301 270.581C586.496 267.421 586.231 269.811 693.256 260.626C702.996 259.791 703.821 259.511 703.851 260.966C704.541 294.966 703.406 878.966 701.281 916.931C709.986 917.021 718.691 917.081 727.391 916.931C724.321 879.306 728.391 266.671 723.011 264.076C701.366 253.676 704.631 256.841 685.416 257.921C631.641 260.921 608.346 265.921 608.346 263.081C608.751 256.774 608.631 250.444 607.986 244.156C607.666 242.576 608.131 242.156 609.721 242.116C615.611 242.006 615.271 241.116 619.071 241.076C640.221 240.801 645.756 239.821 666.131 238.021C734.521 231.976 743.391 229.556 743.371 235.611C741.291 807.786 745.936 903.031 743.021 916.921C743.711 916.856 748.021 916.991 749.521 916.921C747.736 867.276 747.481 233.211 748.571 233.331C751.996 233.706 801.976 241.431 821.916 244.056C836.521 245.976 836.671 245.306 836.671 247.401C836.671 916.861 836.636 916.441 836.671 916.941C838.726 916.886 840.806 916.996 842.856 916.941C842.851 884.346 842.001 281.116 838.766 245.731ZM740.561 227.686C721.181 228.321 647.651 235.461 642.446 235.966C627.536 237.411 627.531 237.651 627.851 234.366C628.686 225.836 628.306 218.571 628.436 205.981C628.471 202.736 628.181 203.866 637.601 203.546C664.646 200.756 716.146 197.516 739.011 195.481C741.986 195.216 742.886 195.841 742.826 197.851C741.946 227.366 746.766 227.461 740.561 227.666V227.686ZM827.331 240.441C827.401 241.466 827.196 241.736 825.996 241.531C806.776 238.186 746.896 229.961 746.901 226.821C746.901 225.271 746.831 200.131 746.821 198.126C746.821 196.591 746.161 195.431 750.081 195.951C751.776 196.181 822.681 207.216 826.376 208.451C827.711 208.906 827.281 209.706 827.311 212.191C827.386 218.756 827.271 239.561 827.331 240.421V240.441Z" fill="black"/>
<path d="M788.416 263.021C768.606 260.446 764.246 258.721 763.856 263.391C762.441 280.196 762.796 704.511 762.796 916.891C764.356 916.836 765.916 916.931 767.486 916.891C767.486 898.256 767.191 903.891 767.486 885.281C767.521 883.351 768.031 884.601 773.716 884.621H818.276C819.746 884.656 819.666 884.666 819.666 886.891V916.891C821.376 916.981 823.091 916.786 824.806 916.891C824.806 909.296 824.061 273.016 822.446 267.996C821.791 265.986 822.506 267.451 788.416 263.021ZM768.946 737.991C772.646 738.571 776.401 738.736 780.141 738.491C819.231 738.696 819.171 737.331 819.181 740.236C819.286 771.671 819.911 771.161 817.496 770.141C813.496 768.451 790.641 768.771 782.131 768.641C780.621 768.451 779.101 768.341 777.576 768.311C767.941 769.096 767.651 769.596 767.466 768.206C767.426 767.881 767.436 768.206 767.436 740.036C767.446 738.731 767.161 737.581 768.946 737.991ZM819.181 734.426C819.241 736.276 822.566 734.291 775.761 733.926C767.961 733.866 767.446 735.651 767.436 732.766V698.951C767.436 696.451 764.936 697.616 809.556 699.061C811.056 699.111 812.581 699.391 814.101 699.421C815.106 699.361 816.106 699.251 817.101 699.091C820.986 698.781 818.061 699.856 819.181 734.426ZM816.986 553.241C811.671 551.176 792.386 551.156 787.931 550.716C768.461 548.791 767.496 552.216 767.486 548.241C767.426 519.106 766.706 519.386 769.396 519.741C778.396 520.976 817.691 521.976 817.806 521.981C819.511 522.011 819.136 521.886 819.141 537.836C819.146 552.356 819.806 554.336 816.986 553.231V553.241ZM819.121 624.566C818.921 626.641 817.046 624.701 813.781 624.516C811.856 624.401 783.991 621.356 768.566 621.631C766.936 621.661 767.441 621.456 767.446 607.291C767.446 595.551 767.446 592.321 767.476 591.911C767.626 590.206 767.511 591.486 811.671 593.911C819.511 594.341 819.121 593.991 819.131 595.851C819.221 619.261 819.166 624.096 819.121 624.566ZM819.091 590.286C818.806 592.061 806.311 588.786 779.956 587.321C767.036 586.616 767.456 588.541 767.456 584.321V556.131C767.581 553.431 768.861 554.706 774.641 554.916C817.171 556.491 807.236 556.346 817.191 555.986C819.716 555.891 819.121 555.791 819.121 574.131C819.131 590.256 819.146 589.916 819.091 590.286ZM818.741 391.686C818.741 407.591 819.356 408.056 816.891 407.006C808.531 405.323 800.071 404.182 791.566 403.591C767.696 401.181 767.866 403.046 767.856 400.016V373.366C767.856 370.236 767.741 371.256 781.251 372.751C781.351 372.751 815.691 375.886 817.541 375.881C819.241 375.876 818.741 375.816 818.741 391.686ZM770.476 406.236C772.341 406.571 805.081 409.811 815.036 410.341C817.921 410.496 818.721 409.941 818.751 412.036V447.141C818.751 450.471 820.111 446.321 769.716 444.086C767.216 443.976 767.846 444.301 767.846 429.216C767.846 405.231 766.751 405.571 770.476 406.236ZM818.711 371.036C818.711 372.751 818.841 372.566 811.671 371.611C767.906 365.776 767.726 367.876 767.846 366.141V336.411C767.846 333.441 767.641 334.311 777.256 335.381C808.906 338.916 814.666 338.246 817.591 338.586C818.926 338.741 818.701 339.856 818.701 341.561C818.701 351.956 818.726 364.191 818.711 371.036ZM817.271 335.651C801.586 332.542 785.676 330.713 769.696 330.181C767.076 330.046 768.011 330.416 767.816 316.921C767.551 298.531 766.411 298.921 770.446 299.721C775.446 300.681 812.531 303.871 812.706 303.886C818.706 304.326 818.671 303.331 818.676 305.836C818.791 338.231 819.231 336.441 817.271 335.651ZM776.696 448.826C792.816 450.121 776.696 448.916 811.996 451.196C818.496 451.616 818.751 450.196 818.761 453.261V467.096C818.761 488.871 821.051 481.291 807.556 480.961C807.451 480.961 784.391 478.766 769.481 478.506C767.671 478.476 767.481 478.341 767.481 476.671C767.481 470.011 767.391 463.346 767.536 456.696C767.766 446.416 765.301 447.911 776.696 448.826ZM818.781 496.456C819.306 503.666 819.306 510.911 818.781 518.121C818.701 519.651 817.056 518.661 815.281 518.471C767.571 513.266 767.486 517.206 767.476 514.126C767.476 514.026 767.431 484.826 767.476 484.126C767.746 481.301 771.786 484.681 816.571 485.171C819.601 485.231 818.586 484.806 818.781 496.456ZM814.781 269.566C817.706 269.916 819.441 269.486 819.126 271.906C818.666 275.406 818.776 271.906 818.691 298.496C818.691 304.186 821.081 298.771 768.651 295.391C767.186 295.296 767.341 295.431 767.371 266.076C767.356 264.231 763.101 263.441 814.766 269.566H814.781ZM768.946 625.796C777.976 627.396 815.711 628.261 817.066 628.296C819.971 628.381 819.141 628.051 819.141 645.436C819.141 661.631 819.696 661.661 817.836 661.556C809.836 661.106 817.836 661.341 786.116 659.086C767.766 657.781 767.486 660.376 767.416 657.276C766.691 625.181 766.801 625.416 768.946 625.796ZM768.691 662.591C808.276 666.266 819.116 663.266 819.121 666.501C819.121 697.391 819.941 696.501 817.571 695.881C801.711 693.941 785.731 693.106 769.756 693.381C767.426 693.471 767.426 693.431 767.426 692.101C767.381 660.196 766.891 662.421 768.691 662.591ZM768.976 772.901C785.006 773.941 801.056 773.286 817.096 773.376C819.141 773.376 819.201 773.241 819.201 775.191C819.236 809.356 820.236 807.406 816.841 807.141C809.381 806.556 776.006 804.571 768.441 806.471C767.086 806.811 767.441 807.631 767.441 789.786C767.446 772.761 766.781 772.761 768.976 772.901ZM767.426 825.026C767.426 808.526 767.141 809.026 768.331 809.316C775.431 810.971 811.536 810.316 812.121 810.466C817.336 811.571 819.121 809.121 819.231 811.871C819.231 812.446 819.261 822.401 819.276 838.771C819.276 842.411 819.446 842.156 817.476 841.771C800.901 840.191 784.226 839.881 767.601 840.846C767.256 835.581 767.206 830.296 767.446 825.026H767.426ZM818.351 881.676C801.831 880.191 785.236 879.801 768.666 880.506C765.926 880.856 768.466 879.121 767.416 845.101C767.356 843.101 769.726 844.986 775.556 845.101C792.426 845.436 809.906 845.626 813.011 845.601C818.291 845.601 819.576 844.101 819.591 846.986C819.811 885.506 820.166 882.086 818.351 881.676Z" fill="black"/>
<path d="M680.121 287.786C677.566 287.286 620.121 291.286 620.001 291.286C607.001 292.286 604.176 290.786 605.041 295.286C604.466 819.946 605.431 905.496 603.541 916.881C605.206 916.991 606.876 916.991 608.541 916.881C608.416 916.656 608.416 917.206 608.416 916.881C608.416 897.606 607.811 894.036 610.046 893.941C630.911 893.091 648.821 893.626 667.151 893.306C682.511 893.041 682.336 891.686 682.336 894.836C682.336 906.116 682.576 914.726 682.336 916.871C683.611 916.796 684.881 916.931 686.166 916.871V339.291C685.286 287.371 687.211 289.181 680.121 287.786ZM608.531 786.786C608.486 784.326 608.281 785.426 621.716 784.611C638.506 783.611 639.266 785.026 673.296 783.256C681.361 782.836 681.471 783.156 681.796 783.946C681.876 784.161 681.866 783.946 681.886 803.391C681.886 805.671 681.856 805.656 680.481 805.661C671.841 805.661 644.151 805.586 636.481 806.316C627.881 807.136 619.271 806.566 610.666 806.816C609.531 806.846 609.726 806.946 608.921 805.931C608.881 805.881 608.921 805.771 608.921 805.686C608.776 799.361 608.631 793.071 608.531 786.766V786.786ZM682.256 856.286C682.256 859.511 682.646 859.066 679.341 859.091C608.476 859.536 608.481 861.706 608.476 858.556C608.476 837.886 607.666 838.131 610.561 838.091C664.821 837.311 655.821 837.651 664.831 837.436C680.921 837.046 682.216 835.546 682.236 838.346C682.256 841.591 682.271 853.556 682.256 856.286ZM681.756 747.986C681.756 751.146 681.811 748.926 639.136 750.366C630.636 750.651 632.636 750.816 610.791 751.301C608.111 751.361 608.521 751.106 608.511 743.801C608.511 729.066 607.866 729.481 610.411 729.301C623.581 728.431 634.301 729.046 663.121 728.161C669.916 727.956 669.621 727.226 679.931 727.281C681.226 727.281 681.646 727.196 681.761 729.196C681.846 730.731 681.766 744.916 681.751 747.986H681.756ZM608.511 757.416C608.511 754.266 608.316 755.961 626.176 754.831C639.301 754.001 642.451 755.061 670.911 753.831C681.206 753.391 681.791 752.771 681.781 754.556C681.691 767.621 681.856 764.556 681.781 777.621C681.781 780.286 681.996 779.466 665.636 779.546C631.541 779.716 651.401 780.091 610.451 781.006C607.686 781.081 608.476 781.186 608.506 757.416H608.511ZM680.761 558.321C680.761 560.846 680.976 560.001 662.011 560.586C605.956 562.316 608.896 564.086 608.881 561.161C609.251 553.826 609.141 546.481 608.546 539.161C608.141 535.086 618.961 538.636 678.186 534.406C681.081 534.201 680.731 534.746 680.731 535.751C680.741 540.851 680.776 553.916 680.756 558.321H680.761ZM670.091 672.986C681.421 672.441 681.291 672.576 681.286 673.986C681.181 695.076 682.156 694.901 679.636 694.951C608.516 696.341 608.701 698.206 608.501 695.866C608.461 695.366 608.501 678.171 608.501 677.681C608.506 672.801 608.666 675.926 670.091 672.986ZM609.826 645.646C637.631 643.896 638.581 645.606 678.456 643.146C681.421 642.961 681.226 643.256 681.236 645.021C681.236 650.126 681.301 661.856 681.266 667.306C681.266 669.921 681.366 668.606 657.436 669.346C621.486 670.456 641.936 670.586 611.241 670.916C608.556 670.946 608.851 670.976 608.851 668.626C608.846 645.606 608.446 645.731 609.821 645.646H609.826ZM679.531 639.446C678.896 639.526 651.966 639.506 633.841 640.986C608.841 641.591 608.916 642.381 608.901 639.826C608.826 621.376 608.401 619.661 609.981 619.586C636.111 618.401 648.906 618.851 666.701 617.886C681.561 617.076 681.201 615.636 681.201 619.791C681.201 639.581 681.896 639.141 679.531 639.446ZM681.196 611.446C681.196 614.101 681.386 613.526 656.996 613.856L609.096 615.591C608.676 609.946 608.971 603.521 608.871 594.121C608.836 590.476 632.871 592.736 666.066 590.681C672.531 590.281 677.221 589.761 679.276 589.791C681.906 589.846 681.211 589.631 681.191 611.461L681.196 611.446ZM680.791 565.416C680.736 586.321 681.791 586.091 678.906 586.156C605.066 587.871 608.906 590.291 608.906 587.156C608.851 566.581 608.211 566.821 610.601 566.726C687.196 563.731 680.796 563.491 680.786 565.431L680.791 565.416ZM680.731 503.316C680.731 505.131 680.896 504.651 666.651 505.131C608.421 507.106 608.881 509.496 608.881 505.926C608.881 499.093 608.891 492.26 608.911 485.426C608.911 481.876 608.861 484.346 671.456 480.566C680.426 480.021 680.681 479.426 680.701 482.066C680.726 486.091 680.756 498.941 680.726 503.331L680.731 503.316ZM679.621 476.406C679.401 476.586 650.396 477.406 647.191 477.536C634.416 477.986 635.391 478.956 619.946 479.086C608.911 479.181 608.946 480.411 608.946 478.206C608.911 474.961 608.446 458.031 610.296 457.886C630.066 456.326 636.346 457.001 658.011 455.811C680.341 454.581 680.301 453.311 680.351 455.761C680.751 476.456 681.206 475.181 679.616 476.421L679.621 476.406ZM609.446 296.671C610.556 294.396 650.446 293.706 663.946 292.751C679.216 291.671 680.156 290.321 680.181 292.841C680.441 315.146 681.621 313.501 674.916 313.771C618.976 315.996 646.991 316.071 611.041 317.381C608.796 317.461 609.326 296.946 609.446 296.671ZM610.751 321.416C614.456 321.141 678.876 317.341 678.976 317.341C680.796 317.341 680.156 317.281 680.201 341.341C680.201 342.666 680.026 342.776 673.741 343.021C608.956 345.591 609.416 348.666 609.416 344.851C609.446 321.341 608.826 321.561 610.766 321.416H610.751ZM678.251 368.666C609.376 370.861 609.596 373.666 609.386 371.066C609.356 370.696 609.386 352.991 609.386 352.626C609.386 348.446 609.251 351.166 666.261 347.286C680.116 346.346 680.206 346.156 680.191 347.786C679.946 368.826 681.176 368.571 678.266 368.666H678.251ZM609.021 397.031L609.391 377.601C609.461 374.051 613.731 376.946 671.501 372.781C680.326 372.141 680.196 371.856 680.216 373.601C680.426 395.326 680.841 395.356 678.921 395.431C605.946 398.256 608.946 400.776 609.021 397.031ZM608.986 422.306V404.366C609.096 401.196 641.946 401.946 661.986 400.456C680.081 399.116 680.196 398.076 680.216 400.881C680.216 404.041 680.676 421.076 679.096 421.146C603.201 424.576 608.986 426.291 608.986 422.306ZM610.241 428.641C628.816 426.986 649.106 427.276 664.021 426.106C669.071 425.404 674.161 425.07 679.261 425.106C680.616 425.071 680.851 450.686 678.836 450.751C607.336 453.001 608.921 455.636 608.916 452.331C608.911 428.611 608.211 428.821 610.241 428.641ZM608.516 513.781C608.516 510.781 608.346 511.326 648.381 510.196C673.171 509.501 680.741 506.976 680.726 509.816C680.621 530.911 681.751 530.681 678.591 530.756C613.946 532.256 655.386 532.151 610.671 533.371C607.646 533.456 608.446 533.616 608.516 513.781ZM610.661 701.021C658.886 699.101 633.161 701.121 680.121 698.806C681.946 698.716 681.671 700.406 681.671 702.121C681.671 723.876 682.791 723.571 679.106 723.591C608.456 724.001 608.466 727.766 608.456 722.931C608.416 700.796 607.586 701.146 610.661 701.021ZM682.281 888.071C682.251 889.446 680.861 889.211 679.351 889.211C608.406 889.211 608.426 891.561 608.426 888.041C608.426 864.041 607.626 864.246 610.476 864.201L681.321 863.071C682.636 863.071 682.871 861.766 682.281 888.071ZM680.636 832.901C608.671 833.291 608.431 835.641 608.516 832.621C609.076 813.741 608.866 816.756 608.866 813.716C608.866 809.121 608.681 811.021 659.276 810.216C668.226 810.071 664.356 809.381 680.951 809.336C682.256 809.336 682.206 810.336 682.206 811.396C682.221 833.021 682.946 832.886 680.636 832.901Z" fill="black"/>
<path d="M735.176 204.791C735.116 201.706 734.606 202.126 732.021 202.071C730.021 202.026 646.986 208.071 633.321 210.241C633.196 210.25 633.071 210.285 632.961 210.344C632.846 210.403 632.751 210.485 632.671 210.585C632.596 210.684 632.536 210.799 632.506 210.921C632.476 211.044 632.471 211.172 632.491 211.296C632.701 225.296 631.641 229.796 634.916 230.856C638.771 232.111 647.376 229.306 730.951 223.026C734.396 222.766 735.141 222.451 735.236 219.526C735.291 217.961 735.206 206.271 735.176 204.791ZM731.846 219.026C732.001 220.696 731.516 219.786 721.226 220.526C631.936 227.026 635.806 229.671 635.581 226.171C634.456 208.776 632.121 212.671 653.081 211.201C738.166 205.236 731.886 204.701 731.926 207.051C731.946 208.231 731.836 218.971 731.846 219.026Z" fill="black"/>
<path d="M819.521 213.231C819.521 213.231 766.556 204.486 757.226 202.986C753.191 202.341 754.146 205.821 754.146 213.376C754.146 225.741 753.091 223.801 761.431 225.236C772.361 227.121 784.526 229.371 805.061 231.856C819.601 233.616 821.631 236.186 821.716 229.856C821.946 213.146 822.281 213.851 819.521 213.231ZM817.346 231.826C815.271 231.711 799.261 228.326 782.676 225.626C758.476 221.716 757.726 222.756 757.716 220.626C757.681 206.721 757.326 206.536 758.611 206.656C765.886 207.336 809.611 213.801 813.111 214.366C818.191 215.181 818.716 214.661 818.726 217.031C818.796 231.956 819.211 231.931 817.346 231.826Z" fill="black"/>
<path fill-rule="evenodd" clip-rule="evenodd" d="M327.858 887.486C312.168 887.621 301.297 887.681 299.921 887.556C296.161 887.216 294.296 886.236 294.056 883.556C293.958 882.466 293.866 881.506 293.78 880.541C292.447 865.661 292.489 850.661 293.476 341.446C293.771 187.995 292.732 179.926 295.575 178.18C295.76 178.067 295.961 177.98 296.181 177.881C296.296 177.831 366.811 145.091 400.216 129.031C406.275 126.119 408.477 125.213 409.196 123.632C410.125 121.588 408.572 118.415 409.666 108.311C409.689 108.094 409.755 107.897 409.684 107.801C409.229 107.184 403.133 110.73 343.946 139.696C342.163 140.566 336.079 143.449 328.331 147.121C309.391 156.097 280.507 169.785 280.191 170.296C280.191 170.296 280.421 911.841 280.386 912.216C278.66 912.756 276.875 913.081 275.071 913.186V171.806C275.106 171.347 275.135 170.936 275.221 170.538C276.185 166.092 284.323 163.202 388.881 113.146C404.839 105.503 409.715 102.362 414.893 101.745C418.928 101.263 423.146 102.314 432.936 103.961C432.942 103.962 433.053 103.98 433.261 104.012C437.05 104.608 472.896 110.24 484.551 112.681C485.426 112.865 486.026 112.975 486.451 113.309C487.661 114.264 487.431 117.051 487.946 128.641C488.736 146.211 488.931 272.356 489.156 418.706C489.191 440.518 489.226 462.778 489.261 485.194C487.686 485.114 486.056 485.029 484.371 484.941V467.301C484.371 467.017 484.376 466.797 484.291 466.621C483.921 465.863 481.866 465.927 470.431 465.196C422.228 462.098 416.614 460.562 416.124 461.555C416.023 461.759 416.139 462.07 416.146 462.496V481.161C413.829 481.031 411.653 480.91 409.65 480.798C409.584 475.392 409.508 470.943 409.421 467.586C409.361 464.977 409.415 462.884 409.45 461.528C409.48 460.393 409.496 459.774 409.421 459.796C406.584 460.602 401.971 461.923 396.183 463.581C368.863 471.404 315.381 486.72 299.146 490.701C298.994 490.738 298.862 490.767 298.75 490.829C297.807 491.347 298.146 494.197 298.146 523.671C298.153 552.146 297.49 557.581 298.815 558.121C299.209 558.281 299.779 558.006 300.596 557.776L331.498 549.606L331.443 554.671C320.805 557.381 311.586 559.751 305.826 561.281C304.015 561.761 302.612 562.091 301.531 562.351C298.431 563.081 297.986 563.186 298.186 564.391V624.391C298.189 624.636 298.188 624.821 298.276 624.931C298.686 625.426 301.013 624.346 314.606 620.731C316.63 620.196 322.659 618.746 330.774 616.821L330.717 622.061C313.969 625.951 300.956 628.861 299.471 628.816C299.173 628.806 298.934 628.801 298.744 628.891C297.626 629.431 298.181 633.426 298.181 660.816C298.181 688.841 297.775 692.926 298.546 693.161C298.716 693.216 298.944 693.081 299.246 692.971C302.317 691.861 314.642 689.271 330.026 686.256L329.964 691.971L300.716 697.376C298.215 697.851 298.215 698.126 298.216 699.486V699.541C297.402 767.246 297.68 767.151 298.981 766.706C299.056 766.676 299.134 766.651 299.216 766.636C301.422 766.226 313.589 764.601 329.203 762.561L329.146 767.931C327.273 768.161 325.513 768.376 323.86 768.581C298.162 771.736 298.154 771.741 298.191 772.826C298.375 780.651 298.348 795.451 298.325 807.886C298.304 819.436 298.287 828.941 298.446 828.921C304.643 828.041 315.673 826.936 328.523 825.766L328.465 831.081C319.328 831.816 311.479 832.441 306.346 832.856C302.379 833.171 300.034 833.361 299.971 833.366C298.145 833.486 298.157 833.941 298.2 835.651L298.206 835.866C298.535 852.551 298.278 863.411 298.112 870.466C297.808 883.351 297.803 883.566 302.206 883.461L327.906 883.021L327.858 887.486ZM484.456 460.452C484.531 460.226 484.326 459.909 484.326 459.521H484.311C485.001 399.2 484.691 399.166 482.921 398.974L482.896 398.971C464.656 396.9 453.306 395.718 445.162 394.87C433.131 393.617 428.092 393.092 418.161 391.506C417.485 391.398 417.012 391.155 416.684 391.283C415.591 391.709 416.106 396.254 416.106 423.601C416.106 451.21 415.535 455.181 416.77 455.859C416.988 455.978 417.262 455.995 417.606 456.021C477.816 460.618 484.121 461.499 484.456 460.452ZM409.301 392.172C409.478 397.923 409.482 432.45 409.483 446.741C409.484 449.759 409.484 451.874 409.486 452.626C409.486 453.365 409.532 453.879 409.357 454.299C408.774 455.693 405.744 456.063 390.456 460.246C387.414 461.08 383.993 462.017 380.306 463.026C351.528 470.906 306.504 483.234 298.801 485.826C298.663 485.873 298.551 485.977 298.46 485.961C297.889 485.861 298.146 481.041 298.146 427.786C298.021 425.943 400.451 394.613 409.301 392.172ZM409.133 386.765C409.421 386.412 409.421 385.826 409.421 384.471H409.446C409.387 337.704 410.073 330.404 408.663 329.974C408.272 329.855 407.72 330.264 406.946 330.506C406.065 330.782 404.657 331.225 402.81 331.806C382.245 338.271 307.253 361.849 299.101 363.161C298.988 363.18 298.888 363.196 298.799 363.236C297.733 363.718 298.229 367.657 298.146 420.561C298.143 420.864 298.111 421.092 298.209 421.217C298.641 421.764 301.584 420.328 320.506 414.406C382.464 395.027 397.498 390.544 403.124 388.867C405.402 388.188 406.138 387.968 407.821 387.406C408.518 387.169 408.911 387.037 409.133 386.765ZM297.855 359.687C298.15 360.303 307.511 356.574 407.706 325.471L407.726 325.466C408.035 325.372 408.295 325.3 408.511 325.161C410.109 324.135 409.356 319.447 409.321 274.751C409.321 273.644 409.503 272.869 409.198 272.521C408.392 271.601 404.183 273.663 384.206 280.446C306.079 306.967 298.847 307.515 298.179 309.901C298.107 310.156 298.111 310.431 298.111 310.761V358.941C298.127 359.24 297.793 359.558 297.855 359.687ZM400.101 133.731C390.446 138.136 368.876 148.161 327.706 167.931L327.711 167.926C301.275 180.612 297.778 181.183 297.454 182.522C297.374 182.852 297.486 183.228 297.496 183.841C297.568 188.626 297.579 196.091 297.587 201.517C297.592 204.755 297.596 207.267 297.611 208.051C297.625 208.642 354.114 187.21 386.51 174.918C399.366 170.041 408.428 166.602 408.661 166.551C409.106 166.481 409.331 166.141 409.331 164.981C409.351 148.049 409.361 142.122 409.366 139.159C409.371 136.199 409.371 136.196 409.371 131.136C409.371 130.591 409.487 130.175 409.332 130.005C408.989 129.626 407.317 130.451 400.101 133.731ZM362.55 188.945C345.342 195.354 330.636 200.83 299.346 211.966L299.351 211.961C297.487 212.615 297.527 213.388 297.581 214.451C297.591 214.64 297.601 214.838 297.601 215.046C297.688 253.613 297.653 253.917 297.733 254.186C297.736 254.194 297.738 254.202 297.741 254.211C298.045 255.199 380.826 226.773 402.128 219.458C406.054 218.11 407.892 217.479 406.741 217.881C407.387 217.659 407.879 217.553 408.251 217.282C410.005 216.003 409.079 211.048 409.001 172.881C409.001 171.595 408.963 171.61 405.67 172.925C404.318 173.465 402.417 174.223 399.746 175.201C383.822 181.024 372.747 185.148 362.55 188.945ZM319.44 252.459C310.976 255.184 303.932 257.452 299.411 258.966L299.416 258.956C297.549 259.582 297.553 259.629 297.765 262.007C297.867 263.145 298.016 264.817 298.031 267.341C298.162 296.096 298.024 298.598 298.16 301.086C298.194 301.72 298.247 302.352 298.326 303.416C343.84 288.436 370.695 279.816 386.54 274.731C408.804 267.585 409.326 267.417 409.326 266.386L408.916 225.121C408.916 222.731 408.001 222.116 402.476 224.266C380.961 232.649 344.148 244.503 319.44 252.459ZM482.816 117.051C482.101 116.319 480.536 116.418 477.256 115.886V115.906C421.638 106.869 414.514 105.098 413.949 106.33C413.809 106.638 414.076 107.132 414.101 107.746C414.215 110.65 414.307 112.833 414.379 114.539C414.553 118.682 414.61 120.018 414.571 122.061C414.553 123.512 415.336 123.518 417.006 123.532C417.69 123.537 418.523 123.544 419.511 123.651C447.871 126.744 463.616 128.837 472.351 129.998C483.016 131.416 483.236 131.446 483.221 130.211C483.101 120.98 483.871 118.124 482.816 117.051ZM415.149 127.062C414.096 127.531 414.647 131.605 414.946 152.776C415.009 156.876 414.989 159.803 414.974 161.896C414.938 167.08 414.938 167.139 416.331 167.196C425.058 167.561 453.869 170.243 470.256 171.768C476.101 172.312 480.366 172.709 481.571 172.801C481.986 172.835 482.301 172.91 482.546 172.807C483.671 172.331 483.181 168.027 483.181 137.991C483.181 137.065 483.241 136.5 483.006 136.121C482.441 135.225 480.206 135.377 471.541 134.266C440.91 130.323 428.987 128.89 423.555 128.237C419.296 127.725 419.027 127.693 416.861 127.306C416.054 127.163 415.508 126.903 415.149 127.062ZM415.035 171.679C414.976 171.812 415.032 171.996 415.036 172.226L415.056 172.231C415.81 210.567 414.214 216.245 415.683 217.198C415.947 217.369 416.309 217.388 416.801 217.416C472.946 220.78 481.671 224.982 482.991 223.317C483.281 222.948 483.211 222.29 483.211 221.271C483.236 182.169 483.621 178.075 482.411 177.533C482.261 177.467 482.091 177.454 481.896 177.436C420.993 172.215 415.433 170.792 415.035 171.679ZM482.031 228.111C471.666 227.746 427.266 222.826 416.966 221.611H416.986C415.062 221.382 415.068 221.491 415.267 225.146C415.355 226.753 415.48 229.046 415.496 232.296V267.406L415.496 267.415C415.561 268.867 415.571 269.092 420.496 269.521C426.416 270.021 477.351 275.701 479.546 276.021C483.226 276.553 483.231 276.454 483.271 275.37C483.271 275.312 483.271 275.25 483.276 275.186C483.281 274.953 483.276 272.251 483.266 267.647C483.256 259.929 483.231 246.864 483.231 231.111C483.231 230.782 483.241 230.481 483.246 230.208C483.291 228.823 483.311 228.153 482.031 228.111ZM483.126 281.801C482.566 280.776 479.861 280.925 466.391 279.576H466.411C422.533 275.182 416.017 273.243 415.4 274.412C415.207 274.78 415.596 275.455 415.591 276.456V325.396C415.599 326.607 416.518 326.616 417.666 326.628C417.931 326.631 418.209 326.633 418.491 326.651C427.498 327.22 444.017 328.972 458.191 330.476C468.701 331.591 477.921 332.569 481.836 332.826C482.356 332.859 482.771 333.068 483.091 332.97C484.396 332.569 484.126 327.013 483.281 282.991C483.271 282.464 483.286 282.087 483.126 281.801ZM483.771 341.668C483.811 338.262 483.816 338.011 482.751 337.926H482.771C424.735 333.369 416.645 330.294 415.702 331.774C415.478 332.125 415.657 332.734 415.666 333.641C416.193 380.633 415.377 385.839 416.775 386.523C416.954 386.61 417.171 386.624 417.431 386.641C432.431 387.656 462.856 391.216 482.931 393.691C483.131 393.718 483.291 393.789 483.416 393.751C484.201 393.519 483.751 389.148 483.751 344.691C483.751 343.476 483.761 342.482 483.771 341.668Z" fill="black"/>
<path d="M552.621 491.611C552.316 489.136 552.916 488.726 542.261 487.786C539.586 487.546 541.636 487.816 538.086 442.546C537.676 437.331 536.801 425.661 536.001 419.206C535.666 416.486 530.826 413.336 530.421 417.236C530.221 419.116 531.296 483.546 531.301 483.646C531.621 487.961 531.416 486.961 523.596 486.561C521.736 471.946 520.321 383.896 517.681 382.416C514.461 380.611 510.416 377.706 510.501 381.416C511.156 410.636 512.001 474.541 512.001 484.441C512.001 485.286 511.901 486.116 509.726 486.086C496.381 485.891 399.226 480.086 395.881 480.086C395.776 480.086 344.486 498.011 344.381 498.046C333.846 501.471 332.076 501.841 331.976 505.251L327.521 918.751H516.971C517.471 915.531 517.246 571.181 515.596 563.566C514.596 559.021 512.866 560.366 492.351 559.476L399.721 555.476C396.806 555.356 398.976 555.476 397.196 487.611C397.146 485.711 388.451 485.516 483.546 490.401C554.696 494.056 548.981 492.901 548.836 494.781C548.071 504.781 551.741 898.251 551.946 919.731C553.826 919.876 555.706 919.651 557.576 919.886C555.816 864.311 554.041 503.056 552.621 491.611ZM369.036 495.421C394.536 486.316 393.001 485.946 392.961 487.761C392.506 508.506 392.571 487.856 392.541 552.591C392.541 557.476 393.116 554.091 338.711 573.131C336.866 573.776 337.646 578.741 337.656 508.131C337.656 505.386 337.111 506.801 369.036 495.421ZM397.076 566.036C398.076 581.881 397.016 566.066 398.626 620.996C398.676 622.791 398.256 623.996 399.886 624.041C438.566 625.541 437.036 627.346 437.026 624.301C436.926 586.911 435.831 583.451 438.136 565.566C438.291 564.376 439.306 563.676 439.636 564.526C440.846 567.736 441.366 607.796 441.761 624.751C441.811 626.886 441.531 626.006 453.091 626.751C459.591 627.186 462.591 627.656 475.491 628.191C477.751 628.281 477.046 628.396 477.071 616.456C477.121 596.856 476.476 574.106 479.011 568.591C480.246 565.916 480.576 579.256 480.706 582.181C482.801 628.681 480.551 628.681 483.151 628.681C486.206 628.686 489.251 629.006 492.241 629.636C494.741 630.136 506.856 630.466 506.856 632.136C506.856 634.886 487.326 632.826 483.006 632.881C481.036 632.911 481.436 632.881 482.186 712.381C482.216 715.671 481.936 713.686 497.836 715.466C510.091 716.841 509.836 716.996 509.916 717.786C510.036 719.326 508.991 719.536 507.716 719.511C507.616 719.511 483.386 718.361 482.966 718.511C481.966 718.856 482.216 720.011 482.216 721.086C482.286 800.221 482.261 774.126 482.656 800.786C482.656 802.326 482.481 801.996 495.031 803.576C503.581 804.656 511.321 804.051 510.326 806.696C509.701 808.351 491.956 807.406 483.611 807.316C482.471 807.316 482.696 808.256 482.696 810.046C482.696 883.146 482.051 883.046 484.091 883.126C509.591 884.151 512.871 883.856 510.911 886.481C509.836 887.921 484.296 887.826 484.196 887.826C480.961 887.826 484.426 888.191 482.196 911.226C482.216 911.406 482.201 911.591 482.141 911.766C482.086 911.936 481.996 912.096 481.871 912.231C481.746 912.366 481.596 912.471 481.426 912.541C481.261 912.611 481.081 912.641 480.896 912.636C480.716 912.631 480.536 912.586 480.371 912.506C480.211 912.421 480.066 912.306 479.951 912.166C479.841 912.021 479.756 911.856 479.711 911.681C479.666 911.506 479.661 911.321 479.696 911.141C479.191 904.506 479.021 897.851 479.196 891.201C479.106 887.761 479.761 887.826 475.931 887.846C444.171 888.006 444.431 887.426 444.251 889.571C444.15 896.861 443.65 904.141 442.751 911.376C442.361 913.001 441.001 912.416 440.811 911.521C440.056 908.021 440.251 909.666 439.681 889.886C439.596 887.006 439.896 887.856 420.491 887.826C400.106 887.791 400.241 886.941 400.301 889.826C400.736 894.396 400.681 898.996 400.136 903.556C399.556 910.391 399.196 909.706 398.371 910.681C396.001 906.681 396.166 893.531 395.776 887.926C390.746 887.721 395.776 887.756 366.836 887.731C364.596 887.731 364.781 887.591 364.721 889.786C364.221 908.666 364.126 911.126 363.051 911.286C361.666 911.496 361.306 909.036 361.181 907.641C359.411 887.751 362.076 887.846 359.261 887.731C341.161 887.011 335.656 887.806 333.491 885.896C331.161 883.841 338.031 883.706 359.221 883.061C360.841 883.016 360.666 882.016 360.666 880.396V810.396C360.666 806.561 360.471 809.561 346.196 810.346C343.561 810.491 342.936 811.201 335.636 811.731C334.211 811.836 334.466 810.161 334.796 809.866C336.866 807.986 358.246 804.156 358.346 804.136C361.846 803.636 360.596 804.321 360.801 774.136C361.186 717.246 362.526 721.526 358.276 722.636C338.406 727.871 339.731 727.756 336.836 727.636C336.211 727.636 335.031 726.556 336.191 725.756C338.061 724.466 336.916 724.541 350.661 720.541C360.801 717.596 361.306 718.221 361.241 716.816C361.011 711.726 361.971 643.971 361.581 637.671C356.746 638.791 353.081 640.051 343.346 642.711C334.486 645.131 335.566 641.366 340.071 639.961C359.016 634.036 353.071 635.806 360.216 633.811C361.756 633.381 361.756 633.421 361.776 631.451C362.416 571.916 362.206 572.251 363.891 571.951C365.676 571.626 364.851 577.921 365.346 630.141C365.371 632.366 365.346 632.346 367.536 631.711C393.351 624.161 393.241 624.116 393.346 624.106C395.756 623.706 392.551 591.226 395.111 563.946C395.136 563.401 396.721 560.401 397.076 566.036Z" fill="black"/>
<path d="M406.796 713.821C398.986 713.186 399.191 711.911 399.241 714.971C400.141 771.251 399.571 793.736 399.741 796.471C399.831 798.041 400.106 797.886 402.046 797.971C436.221 799.081 422.996 798.921 436.241 799.496C440.071 799.666 438.271 808.171 438.041 720.466C438.041 719.286 437.821 718.106 437.741 716.916C437.631 715.276 437.656 716.326 406.796 713.821Z" fill="black"/>
<path d="M413.546 709.731C435.546 710.621 437.466 711.476 437.636 710.231C437.991 707.626 437.041 630.731 437.016 630.606C436.636 628.776 404.416 628.191 401.131 627.641C397.321 627.001 399.021 618.946 399.211 707.731C399.216 709.861 399.026 709.126 413.546 709.731Z" fill="black"/>
<path d="M437.696 805.116C436.331 805.011 437.626 805.051 401.296 802.646C398.491 802.456 400.296 796.351 400.246 880.241C400.246 883.126 400.091 883.061 403.016 883.061H438.406C439.951 883.061 439.646 881.716 439.626 879.996C438.716 805.096 439.446 805.231 437.696 805.116Z" fill="black"/>
<path d="M476.756 718.016C465.906 717.561 454.446 716.816 445.146 716.446C441.206 716.291 443.006 707.886 443.291 796.711C443.291 800.131 443.361 799.831 447.056 799.986C478.201 801.286 478.121 802.646 478.211 800.366C478.101 803.231 478.736 718.101 476.756 718.016Z" fill="black"/>
<path d="M443.596 711.366C476.141 713.756 443.596 711.301 476.151 713.866C479.311 714.111 477.046 715.581 477.116 634.431C477.116 632.216 477.071 632.431 475.216 632.401C461.966 632.086 441.636 629.221 441.771 631.311C441.771 631.191 442.606 706.936 442.661 709.691C442.681 710.651 442.531 711.291 443.596 711.366Z" fill="black"/>
<path d="M477.061 807.231C466.216 806.396 447.671 805.866 444.656 805.591C442.521 805.396 443.296 798.426 444.211 881.246C444.241 883.861 444.026 883.081 461.681 883.081C479.251 883.081 479.181 883.781 479.106 881.581C476.786 807.266 480.616 807.496 477.061 807.231Z" fill="black"/>
<path d="M370.836 801.866C370.936 801.866 392.366 797.781 393.771 797.501C396.471 796.966 395.271 797.646 395.166 784.386C394.936 745.646 395.336 763.676 394.631 713.941C394.606 711.881 396.606 711.761 374.631 718.071C365.131 720.791 365.181 720.511 365.291 721.876C365.291 721.981 365.176 773.321 364.891 792.906C364.706 804.401 363.446 803.296 370.836 801.866Z" fill="black"/>
<path d="M395.156 801.731C391.051 802.376 394.491 801.781 376.746 805.231C365.436 807.416 364.821 806.976 364.851 808.626C364.851 808.526 364.746 881.021 364.746 881.126C364.746 883.356 364.821 883.096 366.656 883.096H393.556C396.131 883.096 396.056 883.211 396.006 879.466C395.026 821.126 396.131 808.986 395.156 801.731Z" fill="black"/>
<path d="M365.301 715.351C365.376 717.176 365.241 716.591 373.551 714.416C394.931 708.821 394.656 709.416 394.621 707.846C394.686 710.691 394.461 640.676 394.461 630.671C394.461 628.341 394.706 627.631 393.496 628.001C364.496 636.866 365.301 634.931 365.301 638.941V715.351Z" fill="black"/>
<path d="M-11.669 915.431C278.061 911.361 934.871 914.766 934.871 914.766C935.406 914.791 935.911 915.021 936.281 915.411C936.646 915.796 936.856 916.311 936.856 916.851C936.856 917.386 936.646 917.901 936.281 918.286C935.911 918.676 935.406 918.906 934.871 918.931C934.871 918.931 67.216 919.431 -11.669 918.256C-12.0291 918.236 -12.3674 918.076 -12.6148 917.816C-12.8622 917.551 -13 917.206 -13 916.841C-13 916.481 -12.8622 916.136 -12.6148 915.871C-12.3674 915.611 -12.0291 915.451 -11.669 915.431Z" fill="black"/>
<path d="M173.946 197.357C211.946 56.8567 432.646 5.33133 443.446 469.731" stroke="black" stroke-width="3" stroke-dasharray="6 6"/>
<path d="M128 198.011C160.5 27.5106 342.5 -61.4894 364.761 111.995" stroke="black" stroke-width="3" stroke-dasharray="6 6"/>
<path d="M406.5 91.5C417.5 17 534.5 -22.5 515.5 372.5" stroke="black" stroke-width="3" stroke-dasharray="6 6"/>
<path d="M716.5 100.5C716.5 -5.49999 542.3 -92.1 535.5 395.5" stroke="black" stroke-width="3" stroke-dasharray="6 6"/>
</svg>
