<svg xmlns="http://www.w3.org/2000/svg" fill="none" viewBox="0 0 200 200" id="Infrastructures-Buildings--Streamline-Milano.svg"><desc>Infrastructures Buildings Streamline Illustration: https://streamlinehq.com</desc><g id="Infrastructures-Buildings--Streamline-Milano.svg"><g id="building 1"><path id="vector" fill="#000000" d="M44.021 41.48c3.53 0.007 0.133 6.311 -2.988 5.721 -2.689 -0.509 0.1 -5.726 2.988 -5.721Zm5.369 6.784v4.665c0 0.368 0.011 0.262 -2.483 0.261 -4.05 0 -20.335 0.672 -20.363 0.632 -0.078 -0.109 -0.029 0 -0.134 -4.743 -0.016 -0.729 -0.016 -0.252 9.971 -0.626 14.519 -0.544 13.019 -1.166 13.009 -0.189Zm6.864 11.281c-0.02 -1.632 0 -2.263 -0.546 -2.759 -1.8 -1.631 -1.913 -1.652 -1.905 -2.266 0.0498 -1.2611 0.0073 -2.5241 -0.127 -3.779 -0.9988 -1.1101 -2.0897 -2.1337 -3.261 -3.06 -0.728 -0.432 -1.624 -0.464 -4.672 -0.437 -0.162 0 -0.228 -0.043 -0.273 -0.216 -0.1478 -0.3394 -0.2585 -0.6938 -0.33 -1.057 -0.009 -0.377 0.355 -0.661 0.533 -1 0.4127 -0.729 0.598 -1.5649 0.532 -2.4 -0.313 -3.177 -5.84 -2.028 -6.94 2.443 -0.48 1.954 0.782 2.4 0.323 2.424 -5.056 0.271 -5.062 0.279 -5.062 -0.05 0 -0.3 0 0 -0.105 -4.094 -0.012 -0.472 -0.285 -0.635 -0.591 -0.571 -0.484 0.1 -0.362 0.218 -0.261 4.228 0.015 0.579 0.062 0.69 -0.17 0.7 -2.463 0.089 -2.467 0.212 -2.473 -0.15 -0.116 -6.712 0.1 -7.171 -0.591 -7.141 -0.76 0.034 -0.477 0.425 -0.335 6.8 0.012 0.546 0.123 0.582 -0.094 0.6 -1.035 0.078 -2.822 0.212 -3.555 0.314 -0.715 0.1 -0.54 0.281 -0.653 5.337 -0.016 0.712 -0.1 0.5 -0.833 0.595 -1.663 0.214 -1.766 0.158 -1.907 0.47 -0.361 0.8 -0.324 3.569 -0.55 129.021 0 0 1 0.012 1.309 0 -0.26 -2.658 -0.158 -36.453 -0.15 -37.5 0.761 -91.109 -0.757 -91.17 0.323 -91.17 12.762 0 23.725 -0.887 26.625 -0.922 0.788 -0.009 0.437 0.4 0.427 3.436 -0.355 104.887 -0.406 123.522 -0.708 126.154h6.418c-0.552 -8.039 0.005 -91.559 -0.398 -123.95Z" stroke-width="1"></path><path id="vector_2" fill="#000000" d="M41.572 172.66c-0.07 -0.669 -0.371 -0.451 -2.732 -0.383 -4.105 0.117 -2.668 0.049 -6.648 0.205 -0.484 0.019 -0.734 0.228 -0.708 0.71 0.069 1.258 0.08 9.957 0.051 10.3 0.247 0.055 0.475 -0.037 0.721 0 0 -0.021 -0.324 -10.307 0.209 -10.323 8.255 -0.247 8.294 -0.435 8.3 0.076 0.006 0.752 -0.13 8.98 -0.076 10.247 0.244 0.01 0.488 -0.013 0.732 0 0.004 -0.023 0.2 -10.362 0.151 -10.832Z" stroke-width="1"></path><path id="vector_3" fill="#000000" d="M26.2 157.2c0.054 -0.614 0.223 -0.608 0.69 -0.613 0.6 -0.007 19.865 -0.623 19.937 -0.616 0.7 0.067 0.472 0.107 0.427 7.638 -0.006 1.016 -2.287 0.82 -10.195 1.186 -10.407 0.482 -10.8 0.536 -10.846 -0.092 -0.039 -0.474 -0.066 -6.949 -0.013 -7.503Zm20.1 2.737c0 -3.36 0.109 -3.349 -0.252 -3.342 -0.021 0 -9.491 0.557 -18.434 0.788 -0.408 0.011 -0.287 -0.024 -0.281 3.264 0.006 3.758 -0.115 3.758 0.267 3.74 6.836 -0.326 8.8 -0.346 18.405 -0.626 0.411 -0.012 0.295 0.022 0.295 -3.824Z" stroke-width="1"></path><path id="vector_4" fill="#000000" d="M47.172 100.05c-19.867 0.872 -17.861 0.88 -20.511 0.726 -0.754 -0.044 -0.545 -0.195 -0.546 -7.738 0 -0.956 -0.06 -0.743 15.049 -1.2 6.291 -0.188 6.582 -0.429 6.584 0.483 0.017 7.77 0.08 7.7 -0.576 7.729Zm-20.136 -0.557c0 1.018 -0.111 0.673 2.847 0.481 1.583 -0.1 4.175 -0.175 12.418 -0.415 4.37 -0.127 4.32 0.037 4.337 -0.439 0.087 -2.494 0.065 -0.006 0.076 -6.657 0 -0.414 -15.053 0.792 -19.314 0.536 -0.544 -0.033 -0.365 -0.593 -0.364 6.494Z" stroke-width="1"></path><path id="vector_5" fill="#000000" d="M26.123 112.866c0 -5.035 -0.513 -4.334 2.9 -4.51 3.159 -0.162 4.425 -0.173 12.061 -0.412 6.408 -0.2 6.552 -0.38 6.543 0.23 -0.111 7.9 0.083 7.837 -0.353 7.892 -0.32 0.039 -19.6 1.18 -20.888 0.708 -0.38 -0.141 -0.261 -0.05 -0.263 -3.908Zm20.49 -3.984c0 -0.688 0.117 -0.5 -1.237 -0.421 -0.021 0 -16.54 0.808 -17.911 0.683 -0.359 -0.032 -0.357 -0.059 -0.357 0.382 0.008 6.607 0.011 6.548 0.027 6.607 0.081 0.3 0.267 0 4.751 -0.158 13.04 -0.445 8.576 -0.212 14.463 -0.427 0.388 -0.014 0.27 0.011 0.264 -6.666Z" stroke-width="1"></path><path id="vector_6" fill="#000000" d="M27.65 140.686c3.563 -0.17 8.294 -0.3 12.623 -0.427 6.476 -0.191 7.186 -0.425 7.153 0.355 -0.3 7.241 0.4 7.783 -0.665 7.847 -22.082 1.329 -20.581 1.221 -20.57 -0.017 0.066 -8.019 -0.618 -7.659 1.459 -7.758Zm18.45 0.014c-0.753 0.021 -9.573 0.511 -18.582 0.784 -0.4 0.012 -0.281 -0.02 -0.275 3.524 0.007 3.5 -0.131 3.488 0.333 3.469 9.994 -0.406 13.442 -0.5 18.038 -0.613 0.874 -0.023 0.789 0.112 0.79 -0.454 0.009 -7.067 0.16 -6.723 -0.304 -6.71Z" stroke-width="1"></path><path id="vector_7" fill="#000000" d="M26.192 128.819c0 -3.489 -0.254 -4.283 0.727 -4.235 0.649 0.031 0 -0.019 17.157 -0.536 4.179 -0.126 3.395 -0.487 3.385 1.864 -0.027 6.488 0.214 6.274 -0.607 6.434 -0.044 0.009 -18.962 0.852 -19.912 0.848 -0.985 -0.004 -0.75 -0.409 -0.75 -4.375Zm20.323 -3.18c0 -0.94 0.072 -1.07 -0.242 -1.049 -5.126 0.342 -18.964 0.776 -18.984 0.794 -0.234 0.208 -0.148 0 -0.144 6.572 0 0.271 -0.039 0.483 0.209 0.46 2.732 -0.249 7.069 -0.347 17.827 -0.651 1.453 -0.041 1.32 0.134 1.322 -0.437 0.014 -4.528 0.012 -5.669 0.012 -5.689Z" stroke-width="1"></path><path id="vector_8" fill="#000000" d="M26.794 76.478c5.386 -0.332 17.648 -0.642 17.623 -0.64 4.011 -0.125 3.459 -0.743 3.409 3.811 -0.049 4.571 0.074 4.473 -0.558 4.512 -0.02 0 -20.242 0.952 -20.848 0.673 -0.227 -0.105 -0.324 -0.094 -0.314 -0.445 0.216 -7.223 -0.506 -7.837 0.688 -7.911Zm20.031 0.177c0 -0.386 0.033 -0.268 -1.365 -0.2 -10.156 0.485 -16.367 0.793 -18.272 0.652 -0.355 -0.026 -0.25 -0.316 -0.244 6.8 0 0.639 0 0.247 4.9 0.064l14.056 -0.418c0.961 -0.024 0.908 0.091 0.907 -0.336 -0.007 -6.562 0.027 -0.004 0.018 -6.562Z" stroke-width="1"></path><path id="vector_9" fill="#000000" d="M45.788 68.139c-19.08 0.663 -19.673 1.18 -19.673 0.069 0 -2.44 -0.006 -1.763 0.09 -6.859 0.024 -1.3 -0.107 -1.054 14.823 -1.511 6.718 -0.2 6.709 -0.338 6.716 0.113 0.144 8.684 0.713 8.095 -1.956 8.188Zm1.339 -7.64c0.031 -0.322 -0.122 -0.215 -1.466 -0.15 -18.864 0.912 -17.5 0.61 -18.877 0.665 0.283 6.757 -0.29 7.2 0.468 7.145 4.006 -0.274 0.082 -0.187 18.688 -0.71 1.014 -0.029 0.972 0.084 0.985 -0.308 0.026 -0.733 0.181 -6.441 0.202 -6.641v-0.001Z" stroke-width="1"></path></g><g id="building 2"><g id="group"><path id="vector_10" fill="#000000" d="M175.364 49.1c-0.019 -0.207 0.022 -0.344 -0.44 -0.473 -0.274 -0.0677 -0.551 -0.1184 -0.831 -0.152 -0.1 -0.014 -0.22 0.01 -0.244 -0.232 -0.073 -0.726 0.03 -5.806 -0.046 -6.845 -0.123 -0.636 0.111 -0.565 -14.191 -2.767 -4.756 -0.732 -3.721 -0.356 -5.926 -0.322 -0.648 0.01 -0.576 0.146 -0.58 -0.54 -0.1 -14.715 -0.22 -14.266 -1.144 -14.635 -0.334 -0.133 -0.53 -0.028 -0.527 0.335 0.016 2.159 -0.19 10.637 -0.095 14.863 0.006 0.25 -0.018 0.178 -2.461 0.381 -0.913 0.076 -0.113 -4.5 -0.905 -19.6 -0.123 -2.355 -0.094 -2.4 -0.359 -2.57 -2.06 -1.327 -0.894 -1.878 -1.369 15.137 -0.055 1.979 -0.03 6.911 -0.025 7.026 0.015 0.312 -0.211 0.185 -0.821 0.242 -10.435 0.981 -10.42 0.992 -10.441 0.994 -1.471 0.135 -2.515 -0.078 -2.578 0.823 -0.239 2.1203 -0.208 4.2624 0.092 6.375 0.027 0.218 -0.108 0.232 -0.868 0.285 -2.422 0.17 -3.218 -0.026 -3.229 0.875 -0.064 5.644 0.939 4.387 -2.183 4.69 -1.778 0.173 -2 0.3 -2.029 0.852v129.5c0.261 -0.018 0.522 -0.018 0.783 0 0.227 -0.03 -0.277 -126.028 -0.076 -129.272 0.039 -0.632 -0.014 -0.154 21.391 -1.991 1.948 -0.167 2.113 -0.223 2.119 0.068 0.138 6.8 -0.089 123.6 -0.514 131.193 1.741 0.018 3.482 0.03 5.222 0 -0.614 -7.525 0.2 -130.052 -0.876 -130.571 -4.329 -2.08 -3.676 -1.447 -7.519 -1.231 -10.755 0.6 -15.414 1.6 -15.414 1.032 0.081 -1.2615 0.057 -2.5275 -0.072 -3.785 -0.064 -0.316 0.029 -0.4 0.347 -0.408 1.178 -0.022 1.11 -0.2 1.87 -0.208 4.23 -0.055 5.337 -0.251 9.412 -0.611 13.678 -1.209 15.452 -1.693 15.448 -0.482 -0.416 114.435 0.513 133.484 -0.07 136.262 0.138 -0.013 1 0.014 1.3 0 -0.357 -9.929 -0.408 -136.742 -0.19 -136.718 0.685 0.075 10.681 1.62 14.669 2.145 2.921 0.384 2.951 0.25 2.951 0.669 0 133.892 -0.007 133.808 0 133.908 0.411 -0.011 0.827 0.011 1.237 0 -0.001 -6.519 -0.171 -127.165 -0.818 -134.242Zm-19.641 -3.609c-3.876 0.127 -18.582 1.555 -19.623 1.656 -2.982 0.289 -2.983 0.337 -2.919 -0.32 0.167 -1.706 0.091 -3.159 0.117 -5.677 0.007 -0.649 -0.051 -0.423 1.833 -0.487 5.409 -0.558 15.709 -1.206 20.282 -1.613 0.595 -0.053 0.775 0.072 0.763 0.474 -0.176 5.903 0.788 5.922 -0.453 5.963v0.004Zm17.354 2.551c0.014 0.205 -0.027 0.259 -0.267 0.218 -3.844 -0.669 -15.82 -2.314 -15.819 -2.942 0 -0.31 -0.014 -5.338 -0.016 -5.739 0 -0.307 -0.132 -0.539 0.652 -0.435 0.339 0.046 14.52 2.253 15.259 2.5 0.267 0.091 0.181 0.251 0.187 0.748 0.015 1.313 -0.008 5.474 0.004 5.646v0.004Z" stroke-width="1"></path><path id="vector_11" fill="#000000" d="M165.294 52.558c-3.962 -0.515 -4.834 -0.86 -4.912 0.074 -0.283 3.361 -0.212 88.224 -0.212 130.7 0.312 -0.011 0.624 0.008 0.938 0 0 -3.727 -0.059 -2.6 0 -6.322 0.007 -0.386 0.109 -0.136 1.246 -0.132h8.912c0.294 0.007 0.278 0.009 0.278 0.454v6c0.342 0.018 0.685 -0.021 1.028 0 0 -1.519 -0.149 -128.775 -0.472 -129.779 -0.131 -0.402 0.012 -0.109 -6.806 -0.995Zm-3.894 94.994c0.74 0.116 1.491 0.149 2.239 0.1 7.818 0.041 7.806 -0.232 7.808 0.349 0.021 6.287 0.146 6.185 -0.337 5.981 -0.8 -0.338 -5.371 -0.274 -7.073 -0.3 -0.302 -0.038 -0.606 -0.06 -0.911 -0.066 -1.927 0.157 -1.985 0.257 -2.022 -0.021 -0.008 -0.065 -0.006 0 -0.006 -5.634 0.002 -0.261 -0.055 -0.491 0.302 -0.409Zm10.047 -0.713c0.012 0.37 0.677 -0.027 -8.684 -0.1 -1.56 -0.012 -1.663 0.345 -1.665 -0.232v-6.763c0 -0.5 -0.5 -0.267 8.424 0.022 0.3 0.01 0.605 0.066 0.909 0.072 0.201 -0.012 0.401 -0.034 0.6 -0.066 0.777 -0.062 0.192 0.153 0.416 7.067Zm-0.439 -36.237c-1.063 -0.413 -4.92 -0.417 -5.811 -0.505 -3.894 -0.385 -4.087 0.3 -4.089 -0.495 -0.012 -5.827 -0.156 -5.771 0.382 -5.7 1.8 0.247 9.659 0.447 9.682 0.448 0.341 0.006 0.266 -0.019 0.267 3.171 0.001 2.904 0.133 3.3 -0.431 3.079v0.002Zm0.427 14.265c-0.04 0.415 -0.415 0.027 -1.068 -0.01 -0.385 -0.023 -5.958 -0.632 -9.043 -0.577 -0.326 0.006 -0.225 -0.035 -0.224 -2.868 0 -2.348 0 -2.994 0.006 -3.076 0.03 -0.341 0.007 -0.085 8.839 0.4 1.568 0.086 1.49 0.016 1.492 0.388 0.018 4.682 0.007 5.649 -0.002 5.743Zm-0.006 -6.856c-0.057 0.355 -2.556 -0.3 -7.827 -0.593 -2.584 -0.141 -2.5 0.244 -2.5 -0.6v-5.638c0.025 -0.54 0.281 -0.285 1.437 -0.243 8.506 0.315 6.519 0.286 8.51 0.214 0.505 -0.019 0.386 -0.039 0.386 3.629 0.002 3.225 0.005 3.157 -0.006 3.231Zm-0.07 -39.72c0 3.181 0.123 3.274 -0.37 3.064 -1.672 -0.3367 -3.364 -0.5648 -5.065 -0.683 -4.774 -0.482 -4.74 -0.109 -4.742 -0.715v-5.33c0 -0.626 -0.023 -0.422 2.679 -0.123 0.02 0 6.888 0.627 7.258 0.626 0.34 -0.001 0.24 -0.013 0.24 3.161Zm-9.653 2.91c0.373 0.067 6.921 0.715 8.912 0.821 0.577 0.031 0.737 -0.08 0.743 0.339v7.021c0 0.666 0.272 -0.164 -9.807 -0.611 -0.5 -0.022 -0.374 0.043 -0.374 -2.974 0 -4.797 -0.219 -4.73 0.526 -4.597v0.001Zm9.647 -7.04c0 0.343 0.026 0.306 -1.408 0.115 -8.753 -1.167 -8.789 -0.747 -8.765 -1.094v-5.946c0 -0.594 -0.041 -0.42 1.882 -0.206 6.33 0.707 7.482 0.573 8.067 0.641 0.267 0.031 0.222 0.254 0.222 0.595 0 2.079 0.005 4.526 0.002 5.895Zm-0.288 -7.077c-3.137 -0.6218 -6.319 -0.9877 -9.515 -1.094 -0.524 -0.027 -0.337 0.047 -0.376 -2.652 -0.053 -3.678 -0.281 -3.6 0.526 -3.44 1 0.192 8.417 0.83 8.452 0.833 1.2 0.088 1.193 -0.111 1.194 0.39 0.023 6.479 0.111 6.121 -0.281 5.963Zm-8.115 22.635c3.224 0.259 0 0.018 7.06 0.474 1.3 0.084 1.351 -0.2 1.353 0.413v2.767c0 4.355 0.458 2.839 -2.241 2.773 -0.021 0 -4.633 -0.439 -7.615 -0.491 -0.362 -0.006 -0.4 -0.033 -0.4 -0.367 0 -1.332 -0.018 -2.665 0.011 -3.995 0.046 -2.056 -0.447 -1.757 1.832 -1.574Zm8.417 9.526c0.105 1.442 0.105 2.891 0 4.333 -0.016 0.306 -0.345 0.108 -0.7 0.07 -9.542 -1.041 -9.559 -0.253 -9.561 -0.869 0 -0.02 -0.009 -5.86 0 -6 0.054 -0.565 0.862 0.111 9.819 0.209 0.606 0.012 0.403 -0.073 0.442 2.257Zm-0.8 -45.378c0.585 0.07 0.932 -0.016 0.869 0.468 -0.092 0.7 -0.07 0 -0.087 5.318 0 1.138 0.478 0.055 -10.008 -0.621 -0.293 -0.019 -0.262 0.008 -0.256 -5.863 -0.003 -0.369 -0.854 -0.527 9.479 0.698h0.003Zm-9.167 71.246c1.806 0.32 9.353 0.493 9.624 0.5 0.581 0.017 0.415 -0.049 0.415 3.428 0 3.239 0.111 3.245 -0.261 3.224 -1.6 -0.09 0 -0.043 -6.344 -0.494 -3.67 -0.261 -3.726 0.258 -3.74 -0.362 -0.145 -6.419 -0.123 -6.372 0.306 -6.296Zm-0.051 7.359c7.917 0.735 10.085 0.135 10.086 0.782 0 6.178 0.164 6 -0.31 5.876 -3.172 -0.388 -6.368 -0.555 -9.563 -0.5 -0.466 0.018 -0.466 0.01 -0.466 -0.256 -0.009 -6.381 -0.107 -5.936 0.253 -5.902Zm0.057 22.062c3.206 0.208 6.416 0.077 9.624 0.095 0.409 0 0.421 -0.027 0.421 0.363 0.007 6.833 0.207 6.443 -0.472 6.39 -1.492 -0.117 -8.167 -0.514 -9.68 -0.134 -0.271 0.068 -0.2 0.232 -0.2 -3.337 0.001 -3.405 -0.132 -3.405 0.307 -3.377Zm-0.31 10.425c0 -3.3 -0.057 -3.2 0.181 -3.142 1.42 0.331 8.641 0.2 8.758 0.23 1.043 0.221 1.4 -0.269 1.422 0.281 0 0.115 0.006 2.106 0.009 5.38 0 0.728 0.034 0.677 -0.36 0.6 -3.315 -0.316 -6.65 -0.378 -9.975 -0.185 -0.069 -1.053 -0.079 -2.11 -0.031 -3.164h-0.004Zm10.185 11.33c-3.304 -0.297 -6.623 -0.375 -9.937 -0.234 -0.548 0.07 -0.04 -0.277 -0.25 -7.081 -0.012 -0.4 0.462 -0.023 1.628 0 3.374 0.067 6.87 0.105 7.491 0.1 1.056 0 1.313 -0.3 1.316 0.277 0.044 7.704 0.115 7.02 -0.248 6.938Z" stroke-width="1"></path><path id="vector_12" fill="#000000" d="M143.635 57.511c-0.511 -0.1 -12 0.7 -12.024 0.7 -2.6 0.2 -3.165 -0.1 -2.992 0.8 -0.115 104.932 0.078 122.042 -0.3 124.319 0.333 0.022 0.667 0.022 1 0 -0.025 -0.045 -0.025 0.065 -0.025 0 0 -3.855 -0.121 -4.569 0.326 -4.588 4.173 -0.17 7.755 -0.063 11.421 -0.127 3.072 -0.053 3.037 -0.324 3.037 0.306 0 2.256 0.048 3.978 0 4.407 0.255 -0.015 0.509 0.012 0.766 0V67.812c-0.176 -10.384 0.209 -10.022 -1.209 -10.301Zm-14.318 99.8c-0.009 -0.492 -0.05 -0.272 2.637 -0.435 3.358 -0.2 3.51 0.083 10.316 -0.271 1.613 -0.084 1.635 -0.02 1.7 0.138 0.016 0.043 0.014 0 0.018 3.889 0 0.456 -0.006 0.453 -0.281 0.454 -1.728 0 -7.266 -0.015 -8.8 0.131 -1.72 0.164 -3.442 0.05 -5.163 0.1 -0.227 0.006 -0.188 0.026 -0.349 -0.177 -0.008 -0.01 0 -0.032 0 -0.049 -0.029 -1.265 -0.058 -2.523 -0.078 -3.784v0.004Zm14.745 13.9c0 0.645 0.078 0.556 -0.583 0.561 -14.173 0.089 -14.172 0.523 -14.173 -0.107 0 -4.134 -0.162 -4.085 0.417 -4.093 10.852 -0.156 9.052 -0.088 10.854 -0.131 3.218 -0.078 3.477 -0.378 3.481 0.182 0.004 0.649 0.007 3.042 0.004 3.588Zm-0.1 -21.66c0 0.632 0.011 0.188 -8.524 0.476 -1.7 0.057 -1.3 0.09 -5.669 0.187 -0.536 0.012 -0.454 -0.039 -0.456 -1.5 0 -2.947 -0.129 -2.864 0.38 -2.9 2.634 -0.174 4.778 -0.051 10.542 -0.228 1.359 -0.041 1.3 -0.187 3.362 -0.176 0.259 0 0.343 -0.017 0.366 0.383 0.017 0.307 0.001 3.144 -0.002 3.758h0.001Zm-14.649 1.886c0 -0.63 -0.039 -0.291 3.533 -0.517 2.625 -0.166 3.255 0.046 8.947 -0.2 2.059 -0.088 2.176 -0.212 2.174 0.145 -0.018 2.613 0.015 2 0 4.613 0 0.533 0.043 0.369 -3.229 0.385 -6.819 0.034 -2.847 0.109 -11.037 0.292 -0.553 0.015 -0.395 0.036 -0.389 -4.718h0.001Zm14.45 -39.819c0 0.505 0.043 0.336 -3.75 0.453 -11.211 0.346 -10.623 0.7 -10.626 0.115 0.074 -1.467 0.052 -2.936 -0.067 -4.4 -0.081 -0.815 2.083 -0.105 13.928 -0.951 0.579 -0.041 0.509 0.068 0.509 0.269 0.002 1.02 0.009 3.633 0.005 4.514h0.001Zm-2.134 22.933c2.266 -0.109 2.24 -0.082 2.239 0.2 -0.021 4.218 0.174 4.183 -0.33 4.193 -14.224 0.278 -14.187 0.651 -14.227 0.183 -0.008 -0.1 0 -3.539 0 -3.637 0.001 -0.976 0.032 -0.351 12.317 -0.939h0.001Zm-12.053 -5.468c5.561 -0.35 5.751 -0.008 13.726 -0.5 0.593 -0.037 0.554 0.022 0.556 0.375 0 1.021 0.013 3.367 0.006 4.457 0 0.523 0.02 0.26 -4.766 0.408 -7.19 0.222 -3.1 0.248 -9.239 0.314 -0.537 0.006 -0.478 0.012 -0.478 -0.458 -0.001 -4.604 -0.081 -4.579 0.194 -4.596h0.001Zm13.941 -1.24c-0.127 0.016 -5.513 0.012 -9.138 0.308 -5 0.121 -4.985 0.279 -4.988 -0.232 -0.015 -3.69 -0.1 -4.033 0.216 -4.048 5.226 -0.237 7.785 -0.147 11.344 -0.34 2.972 -0.162 2.9 -0.45 2.9 0.381 0 3.958 0.138 3.87 -0.335 3.931h0.001Zm0.333 -5.6c0 0.531 0.038 0.416 -4.84 0.482l-9.58 0.347c-0.084 -1.129 -0.025 -2.414 -0.045 -4.294 -0.007 -0.729 4.8 -0.277 11.439 -0.688 1.293 -0.08 2.231 -0.184 2.642 -0.178 0.526 0.011 0.387 -0.032 0.383 4.334l0.001 -0.003Zm-0.081 -9.206c-0.011 4.181 0.2 4.135 -0.377 4.148 -14.768 0.343 -14 0.827 -14 0.2 -0.011 -4.115 -0.139 -4.067 0.339 -4.086 15.319 -0.599 14.039 -0.647 14.037 -0.259l0.001 -0.003Zm-0.012 -12.42c0 0.363 0.033 0.267 -2.816 0.363 -11.646 0.395 -11.554 0.873 -11.554 0.159 0 -1.3667 0.002 -2.7333 0.006 -4.1 0 -0.71 -0.01 -0.216 12.509 -0.972 1.794 -0.109 1.845 -0.228 1.849 0.3 0.005 0.805 0.011 3.375 0.005 4.253l0.001 -0.003Zm-0.222 -5.382c-0.044 0.036 -5.845 0.2 -6.486 0.226 -2.555 0.09 -2.36 0.284 -5.449 0.31 -2.207 0.019 -2.2 0.265 -2.2 -0.176 -0.007 -0.649 -0.1 -4.035 0.27 -4.064 3.954 -0.312 5.21 -0.177 9.543 -0.415 4.466 -0.246 4.458 -0.5 4.468 -0.01 0.08 4.139 0.171 3.884 -0.147 4.132l0.001 -0.003ZM129.5 59.288c0.222 -0.455 8.2 -0.593 10.9 -0.784 3.054 -0.216 3.242 -0.486 3.247 0.018 0.052 4.461 0.288 4.132 -1.053 4.186 -11.188 0.445 -5.585 0.46 -12.775 0.722 -0.449 0.016 -0.343 -4.087 -0.319 -4.142Zm0.261 4.949c0.741 -0.055 13.625 -0.815 13.645 -0.815 0.364 0 0.236 -0.012 0.245 4.8 0 0.265 -0.035 0.287 -1.292 0.336 -12.957 0.514 -12.865 1.129 -12.865 0.366 0.006 -4.702 -0.118 -4.658 0.27 -4.687h-0.003Zm13.5 9.45c-13.775 0.439 -13.731 1 -13.773 0.48 -0.006 -0.074 0 -3.615 0 -3.688 0 -0.836 -0.027 -0.292 11.375 -1.068 2.771 -0.188 2.789 -0.226 2.786 0.1 -0.049 4.208 0.197 4.157 -0.385 4.176h-0.003Zm-13.846 5.673 0.074 -3.886c0.014 -0.71 0.868 -0.131 12.422 -0.964 1.765 -0.128 1.739 -0.185 1.743 0.164 0.042 4.345 0.125 4.351 -0.259 4.366 -14.595 0.565 -13.995 1.069 -13.98 0.32Zm-0.007 5.055v-3.588c0.022 -0.634 6.592 -0.484 10.6 -0.782 3.619 -0.268 3.642 -0.476 3.646 0.085 0 0.632 0.092 4.039 -0.224 4.053 -15.179 0.686 -14.022 1.029 -14.022 0.232Zm0.251 1.267c3.715 -0.331 7.773 -0.273 10.756 -0.507 1.01 -0.1405 2.028 -0.2073 3.048 -0.2 0.271 -0.007 0.318 5.116 -0.085 5.129 -14.3 0.45 -13.983 0.977 -13.984 0.316 -0.001 -4.744 -0.141 -4.702 0.265 -4.738Zm-0.345 17.028c0 -0.6 -0.034 -0.491 7.973 -0.717 4.958 -0.139 6.472 -0.644 6.469 -0.076 -0.021 4.219 0.205 4.173 -0.427 4.188 -12.929 0.3 -4.641 0.279 -13.584 0.523 -0.605 0.017 -0.445 0.049 -0.431 -3.918Zm0.429 37.448c9.645 -0.384 4.5 0.02 13.892 -0.443 0.365 -0.018 0.31 0.32 0.31 0.663 0 4.351 0.224 4.29 -0.513 4.294 -14.13 0.082 -14.128 0.835 -14.13 -0.132 -0.008 -4.427 -0.174 -4.357 0.441 -4.382Zm14.324 37.41c-0.006 0.275 -0.284 0.228 -0.586 0.228 -14.189 0 -14.185 0.47 -14.185 -0.234 0 -4.8 -0.16 -4.759 0.41 -4.768l14.169 -0.226c0.263 0 0.31 -0.261 0.192 5Zm-0.329 -11.034c-14.393 0.078 -14.441 0.548 -14.424 -0.056 0.112 -3.776 0.07 -3.173 0.07 -3.781 0 -0.919 -0.037 -0.539 10.082 -0.7 1.79 -0.029 1.016 -0.167 4.335 -0.176 0.261 0 0.251 0.2 0.251 0.412 0.003 4.325 0.148 4.298 -0.314 4.301Z" stroke-width="1"></path><path id="vector_13" fill="#000000" d="M154.646 40.912c-0.012 -0.617 -0.114 -0.533 -0.631 -0.544 -0.4 -0.009 -17.007 1.2 -19.74 1.634 -0.025 0.0017 -0.05 0.0087 -0.072 0.0206 -0.023 0.0118 -0.042 0.0282 -0.058 0.0481 -0.015 0.0198 -0.027 0.0428 -0.033 0.0673 -0.006 0.0245 -0.007 0.0501 -0.003 0.075 0.042 2.8 -0.17 3.7 0.485 3.912 0.771 0.251 2.492 -0.31 19.207 -1.566 0.689 -0.052 0.838 -0.115 0.857 -0.7 0.011 -0.313 -0.006 -2.651 -0.012 -2.947Zm-0.666 2.847c0.031 0.334 -0.066 0.152 -2.124 0.3 -17.858 1.3 -17.084 1.829 -17.129 1.129 -0.225 -3.479 -0.692 -2.7 3.5 -2.994 17.017 -1.193 15.761 -1.3 15.769 -0.83 0.004 0.236 -0.018 2.384 -0.016 2.395Z" stroke-width="1"></path><path id="vector_14" fill="#000000" d="M171.515 42.6s-10.593 -1.749 -12.459 -2.049c-0.807 -0.129 -0.616 0.567 -0.616 2.078 0 2.473 -0.211 2.085 1.457 2.372 2.186 0.377 4.619 0.827 8.726 1.324 2.908 0.352 3.314 0.866 3.331 -0.4 0.046 -3.342 0.113 -3.201 -0.439 -3.325Zm-0.435 3.719c-0.415 -0.023 -3.617 -0.7 -6.934 -1.24 -4.84 -0.782 -4.99 -0.574 -4.992 -1 -0.007 -2.781 -0.078 -2.818 0.179 -2.794 1.455 0.136 10.2 1.429 10.9 1.542 1.016 0.163 1.121 0.059 1.123 0.533 0.014 2.985 0.097 2.979 -0.276 2.958v0.001Z" stroke-width="1"></path></g></g><g id="building 3"><path id="Subtract" fill="#000000" fill-rule="evenodd" d="M73.1824 177.451c-3.1379 0.027 -5.3122 0.039 -5.5874 0.014 -0.752 -0.068 -1.125 -0.264 -1.173 -0.8 -0.0195 -0.218 -0.0379 -0.41 -0.0551 -0.603 -0.2666 -2.976 -0.2582 -5.976 -0.0609 -107.819 0.0591 -30.6903 -0.1488 -32.3041 0.4198 -32.6532 0.037 -0.0227 0.0773 -0.0401 0.1212 -0.0598 0.023 -0.01 14.126 -6.558 20.807 -9.77 1.2118 -0.5825 1.6523 -0.7637 1.7961 -1.0799 0.1858 -0.4088 -0.1249 -1.0434 0.0939 -3.0641 0.0047 -0.0435 0.0178 -0.0828 0.0037 -0.102 -0.0911 -0.1234 -1.3103 0.5858 -13.1477 6.379 -0.3565 0.1739 -1.5733 0.7506 -3.123 1.485 -3.788 1.7951 -9.5648 4.5328 -9.628 4.635 0 0 0.046 148.309 0.039 148.384 -0.3451 0.108 -0.7021 0.173 -1.063 0.194V34.315c0.0071 -0.0918 0.0128 -0.174 0.0301 -0.2537 0.1927 -0.8891 1.8203 -1.4671 22.7319 -11.4783 3.1916 -1.5286 4.1669 -2.1568 5.2024 -2.2803 0.8071 -0.0963 1.6507 0.1139 3.6086 0.4433 0.0012 0.0002 0.0235 0.0037 0.065 0.0102 0.7579 0.1191 7.927 1.2456 10.258 1.7338 0.175 0.0368 0.295 0.0587 0.38 0.1256 0.242 0.1909 0.196 0.7484 0.299 3.0664 0.158 3.514 0.197 28.743 0.242 58.013 0.007 4.3623 0.014 8.8143 0.021 13.2976 -0.315 -0.0161 -0.641 -0.033 -0.978 -0.0506v-3.528c0 -0.0568 0.001 -0.1008 -0.016 -0.136 -0.074 -0.1516 -0.485 -0.1389 -2.772 -0.285 -9.6406 -0.6196 -10.7634 -0.9268 -10.8614 -0.7283 -0.0201 0.0408 0.003 0.103 0.0044 0.1883v3.733c-0.4633 -0.026 -0.8985 -0.0503 -1.2992 -0.0726 -0.0131 -1.0812 -0.0283 -1.9711 -0.0458 -2.6424 -0.012 -0.5218 -0.0011 -0.9404 0.0059 -1.2117 0.0059 -0.2269 0.0091 -0.3508 -0.0059 -0.3463 -0.5673 0.1612 -1.49 0.4254 -2.6476 0.7569 -5.4639 1.5647 -16.1603 4.6278 -19.4074 5.4241 -0.0304 0.0074 -0.0567 0.0131 -0.0792 0.0255 -0.1886 0.1037 -0.1208 0.6737 -0.1208 6.5685 0.0015 5.695 -0.1311 6.782 0.1338 6.89 0.0788 0.032 0.1929 -0.023 0.3562 -0.069l6.1804 -1.634 -0.0109 1.013c-2.1277 0.542 -3.9714 1.016 -5.1235 1.322 -0.3622 0.096 -0.6428 0.162 -0.8589 0.214 -0.62 0.146 -0.7091 0.167 -0.6691 0.408v12c0.0007 0.049 0.0004 0.086 0.0181 0.108 0.0819 0.099 0.5474 -0.117 3.2659 -0.84 0.4048 -0.107 1.6106 -0.397 3.2336 -0.782l-0.0113 1.048c-3.3497 0.778 -5.9523 1.36 -6.2493 1.351 -0.0596 -0.002 -0.1073 -0.003 -0.1453 0.015 -0.2237 0.108 -0.1127 0.907 -0.1127 6.385 0 5.605 -0.0812 6.422 0.073 6.469 0.034 0.011 0.0796 -0.016 0.14 -0.038 0.6143 -0.222 3.0793 -0.74 6.156 -1.343l-0.0123 1.143 -5.8497 1.081c-0.5001 0.095 -0.5001 0.15 -0.5 0.422l0 0.011c-0.1627 13.541 -0.1071 13.522 0.1531 13.433 0.015 -0.006 0.0306 -0.011 0.0469 -0.014 0.4412 -0.082 2.8747 -0.407 5.9975 -0.815l-0.0115 1.074c-0.3746 0.046 -0.7265 0.089 -1.0571 0.13 -5.1396 0.631 -5.1412 0.632 -5.1339 0.849 0.0368 1.565 0.0314 4.525 0.0269 7.012 -0.0042 2.31 -0.0077 4.211 0.0241 4.207 1.2394 -0.176 3.4454 -0.397 6.0154 -0.631l-0.0115 1.063c-1.8275 0.147 -3.3973 0.272 -4.4239 0.355 -0.7933 0.063 -1.2623 0.101 -1.275 0.102 -0.3651 0.024 -0.3628 0.115 -0.3541 0.457l0.0011 0.043c0.0658 3.337 0.0145 5.509 -0.0188 6.92 -0.0608 2.577 -0.0618 2.62 0.8188 2.599l5.14 -0.088 -0.0096 0.893Zm31.3196 -85.4069c0.015 -0.0452 -0.026 -0.1085 -0.026 -0.1861h-0.003c0.138 -12.0643 0.076 -12.0711 -0.278 -12.1095l-0.005 -0.0005c-3.648 -0.4142 -5.9179 -0.6506 -7.5468 -0.8202 -2.4062 -0.2506 -3.4139 -0.3556 -5.4002 -0.6728 -0.1351 -0.0217 -0.2297 -0.0703 -0.2954 -0.0447 -0.2185 0.0853 -0.1156 0.9942 -0.1156 6.4637 0 5.5218 -0.1142 6.3159 0.1329 6.4515 0.0436 0.0239 0.0984 0.0273 0.1671 0.0325 12.042 0.9194 13.303 1.0956 13.37 0.8861Zm-15.031 -13.656c0.0355 1.1502 0.0362 8.0556 0.0365 10.9139 0.0001 0.6035 0.0002 1.0266 0.0005 1.177 0 0.1478 0.0093 0.2505 -0.0258 0.3346 -0.1166 0.2787 -0.7225 0.3528 -3.7802 1.1894 -0.6083 0.1668 -1.2925 0.3541 -2.03 0.556 -5.7555 1.5759 -14.7604 4.0415 -16.301 4.56 -0.0275 0.0094 -0.05 0.0302 -0.0682 0.027 -0.1141 -0.02 -0.0628 -0.9841 -0.0628 -11.635 -0.025 -0.3687 20.4611 -6.6346 22.231 -7.1229Zm-0.0335 -1.0814c0.0575 -0.0705 0.0575 -0.1878 0.0575 -0.4587h0.005c-0.0117 -9.3535 0.1254 -10.8134 -0.1565 -10.8994 -0.0782 -0.0239 -0.1887 0.058 -0.3435 0.1064 -0.1762 0.0552 -0.4578 0.1438 -0.8272 0.2599 -4.1129 1.2931 -19.1113 6.0087 -20.7418 6.2711 -0.0225 0.0037 -0.0425 0.0069 -0.0604 0.015 -0.2132 0.0963 -0.114 0.8842 -0.1306 11.465 -0.0006 0.0605 -0.007 0.1062 0.0127 0.1312 0.0864 0.1094 0.675 -0.1778 4.4593 -1.3622 12.3916 -3.8759 15.3985 -4.7724 16.5237 -5.1079 0.4556 -0.1358 0.6027 -0.1797 0.9393 -0.2921 0.1394 -0.0475 0.2181 -0.0739 0.2625 -0.1283Zm-22.2557 -5.4155c0.0591 0.1232 1.9312 -0.6226 21.9702 -6.8432l0.004 -0.001c0.0619 -0.0189 0.1138 -0.0333 0.157 -0.061 0.3196 -0.2053 0.169 -1.1429 0.162 -10.082 0 -0.2215 0.0365 -0.3765 -0.0245 -0.4461 -0.1612 -0.184 -1.0031 0.2284 -4.9985 1.5851 -15.6253 5.3042 -17.0717 5.4137 -17.2054 5.891 -0.0143 0.0509 -0.0136 0.106 -0.0136 0.172v9.636c0.0033 0.0597 -0.0636 0.1234 -0.0512 0.1492ZM87.631 26.7c-1.931 0.881 -6.245 2.886 -14.479 6.84l0.001 -0.001c-5.2871 2.5372 -5.9865 2.6514 -6.0514 2.9192 -0.016 0.0659 0.0064 0.1411 0.0084 0.2638 0.0144 0.957 0.0167 2.45 0.0183 3.5352 0.001 0.6475 0.0017 1.1499 0.0047 1.3068 0.0029 0.1181 11.3007 -4.1683 17.7799 -6.6266 2.5712 -0.9755 4.3835 -1.6632 4.4301 -1.6734 0.089 -0.014 0.134 -0.082 0.134 -0.314 0.004 -3.3864 0.006 -4.5718 0.007 -5.1645 0.001 -0.592 0.001 -0.5926 0.001 -1.6045 0 -0.1091 0.0232 -0.1922 -0.0077 -0.2263 -0.0686 -0.0758 -0.4031 0.0892 -1.8463 0.7453Zm-7.5101 11.0428c-3.4417 1.2817 -6.3828 2.3769 -12.6409 4.6042l0.001 -0.001c-0.3727 0.1308 -0.3648 0.2853 -0.354 0.4979 0.002 0.0378 0.004 0.0775 0.004 0.1191 0.0175 7.7133 0.0104 7.7741 0.0265 7.828 0.0005 0.0016 0.001 0.0032 0.0015 0.005 0.0608 0.1976 16.617 -5.4876 20.8775 -6.9506 0.7852 -0.2696 1.1528 -0.3958 0.9225 -0.3154 0.1292 -0.0444 0.2277 -0.0656 0.302 -0.1198 0.3509 -0.2559 0.1657 -1.2469 0.15 -8.8802 0 -0.2573 -0.0075 -0.2543 -0.6662 0.0087 -0.2704 0.108 -0.6505 0.2597 -1.1848 0.4553 -3.1848 1.1646 -5.3998 1.9894 -7.4391 2.7488Zm-8.622 12.7027c-1.6929 0.545 -3.1016 0.9986 -4.0059 1.3015l0.001 -0.002c-0.3733 0.1251 -0.3725 0.1345 -0.3301 0.6101 0.0204 0.2276 0.0502 0.562 0.0531 1.0669 0.0263 5.7509 -0.0014 6.2514 0.0258 6.749 0.0069 0.1267 0.0174 0.2531 0.0332 0.466 9.1029 -2.996 14.4739 -4.72 17.6428 -5.737 4.4528 -1.4292 4.5572 -1.4628 4.5572 -1.669l-0.082 -8.253c0 -0.478 -0.183 -0.601 -1.288 -0.171 -4.3029 1.6766 -11.6655 4.0473 -16.6071 5.6385ZM104.174 23.364c-0.143 -0.1465 -0.456 -0.1267 -1.112 -0.233v0.004c-11.1236 -1.8074 -12.5484 -2.1617 -12.6613 -1.9152 -0.0281 0.0615 0.0253 0.1603 0.0303 0.2832 0.0228 0.5808 0.0412 1.0173 0.0556 1.3586 0.0349 0.8285 0.0462 1.0957 0.0384 1.5044 -0.0035 0.2902 0.153 0.2914 0.4871 0.2941 0.1368 0.0011 0.3033 0.0024 0.5009 0.0239 5.6721 0.6186 8.821 1.0372 10.568 1.2694 2.133 0.2836 2.177 0.2895 2.174 0.0426 -0.024 -1.8463 0.13 -2.4175 -0.081 -2.632Zm-13.5333 2.0022c-0.2106 0.0937 -0.1004 0.9085 -0.0407 5.1428 0.0127 0.8199 0.0086 1.4054 0.0057 1.824 -0.0072 1.0367 -0.0073 1.0486 0.2713 1.06 1.7454 0.073 7.5077 0.6094 10.785 0.9144 1.169 0.1088 2.022 0.1882 2.263 0.2066 0.083 0.0067 0.146 0.0217 0.195 0.0012 0.225 -0.0953 0.127 -0.9561 0.127 -6.9632 0 -0.1852 0.012 -0.2983 -0.035 -0.374 -0.113 -0.1793 -0.56 -0.1488 -2.293 -0.371 -6.1261 -0.7887 -8.5107 -1.0752 -9.5971 -1.2058 -0.8518 -0.1024 -0.9056 -0.1088 -1.3389 -0.1862 -0.1613 -0.0287 -0.2705 -0.0807 -0.3423 -0.0488Zm-0.0228 8.9234c-0.0118 0.0265 -0.0007 0.0633 0.0001 0.1094l0.004 0.001c0.1509 7.6671 -0.1684 8.8027 0.1255 8.9934 0.0527 0.0342 0.1251 0.038 0.2235 0.0436 11.229 0.6728 12.974 1.5131 13.238 1.1802 0.058 -0.0739 0.044 -0.2054 0.044 -0.4092 0.005 -7.8205 0.082 -8.6393 -0.16 -8.7477 -0.03 -0.0131 -0.064 -0.0158 -0.103 -0.0193 -12.1805 -1.0442 -13.2926 -1.3289 -13.3721 -1.1514ZM104.017 45.576c-2.073 -0.073 -10.953 -1.057 -13.013 -1.3h0.004c-0.3848 -0.0458 -0.3836 -0.0241 -0.3437 0.707 0.0176 0.3214 0.0426 0.7799 0.0457 1.43v7.022l0.0001 0.0018c0.0129 0.2904 0.0149 0.3354 0.9999 0.4212 1.184 0.1 11.371 1.236 11.81 1.3 0.736 0.1063 0.737 0.0865 0.745 -0.1303 0 -0.0116 0 -0.0239 0.001 -0.0367 0.001 -0.0467 0 -0.587 -0.002 -1.5078 -0.002 -1.5437 -0.007 -4.1567 -0.007 -7.3072 0 -0.0658 0.002 -0.126 0.003 -0.1806 0.009 -0.2771 0.013 -0.411 -0.243 -0.4194Zm0.219 10.7379c-0.112 -0.2049 -0.653 -0.1752 -3.347 -0.4449h0.004c-8.7756 -0.8788 -10.0788 -1.2667 -10.2021 -1.0328 -0.0387 0.0735 0.0391 0.2085 0.0381 0.4088v9.788c0.0016 0.2421 0.1854 0.244 0.4151 0.2463 0.053 0.0006 0.1086 0.0011 0.1649 0.0047 1.8014 0.1137 5.1052 0.4642 7.9401 0.7649 2.1019 0.223 3.9459 0.4186 4.7289 0.4701 0.104 0.0065 0.187 0.0483 0.251 0.0287 0.261 -0.0801 0.207 -1.1914 0.038 -9.9957 -0.002 -0.1054 0.001 -0.1809 -0.031 -0.2381Zm0.129 11.9735c0.008 -0.6813 0.009 -0.7314 -0.204 -0.7484h0.004c-11.6072 -0.9114 -13.2251 -1.5265 -13.4138 -1.2305 -0.0448 0.0703 -0.0089 0.1921 -0.0072 0.3735 0.1055 9.3984 -0.0577 10.4395 0.2218 10.5763 0.0359 0.0175 0.0792 0.0202 0.1312 0.0237 3 0.203 9.085 0.915 13.1 1.41 0.04 0.0053 0.072 0.0196 0.097 0.012 0.157 -0.0465 0.067 -0.9206 0.067 -9.812 0 -0.243 0.002 -0.4418 0.004 -0.6046Z" clip-rule="evenodd" stroke-width="1"></path></g><g id="bulding 4"><g id="group_2"><path id="vector_15" fill="#000000" d="M118.135 98.276c-0.061 -0.495 0.059 -0.577 -2.072 -0.765 -0.535 -0.048 -0.125 0.006 -0.835 -9.048 -0.082 -1.043 -0.257 -3.377 -0.417 -4.668 -0.067 -0.544 -1.035 -1.174 -1.116 -0.394 -0.04 0.376 0.175 13.262 0.176 13.282 0.064 0.863 0.023 0.663 -1.541 0.583 -0.372 -2.923 -0.655 -20.533 -1.183 -20.829 -0.644 -0.361 -1.453 -0.942 -1.436 -0.2 0.131 5.844 0.3 18.625 0.3 20.605 0 0.169 -0.02 0.335 -0.455 0.329 -2.669 -0.039 -22.1 -1.2 -22.769 -1.2 -0.021 0 -10.279 3.585 -10.3 3.592 -2.107 0.685 -2.461 0.759 -2.481 1.441l-0.891 82.7h37.89c0.1 -0.644 0.055 -69.514 -0.275 -71.037 -0.2 -0.909 -0.546 -0.64 -4.649 -0.818l-18.526 -0.8c-0.583 -0.024 -0.149 0 -0.505 -13.573 -0.01 -0.38 -1.749 -0.419 17.27 0.558 14.23 0.731 13.087 0.5 13.058 0.876 -0.153 2 0.581 80.694 0.622 84.99 0.376 0.029 0.752 -0.016 1.126 0.031 -0.352 -11.115 -0.707 -83.366 -0.991 -85.655Zm-36.717 0.762c5.1 -1.821 4.793 -1.895 4.785 -1.532 -0.091 4.149 -0.078 0.019 -0.084 12.966 0 0.977 0.115 0.3 -10.766 4.108 -0.369 0.129 -0.213 1.122 -0.211 -13 0 -0.549 -0.109 -0.266 6.276 -2.542Zm5.608 14.123c0.2 3.169 -0.012 0.006 0.31 10.992 0.01 0.359 -0.074 0.6 0.252 0.609 7.736 0.3 7.43 0.661 7.428 0.052 -0.02 -7.478 -0.239 -8.17 0.222 -11.747 0.031 -0.238 0.234 -0.378 0.3 -0.208 0.242 0.642 0.346 8.654 0.425 12.045 0.01 0.427 -0.046 0.251 2.266 0.4 1.3 0.087 1.9 0.181 4.48 0.288 0.452 0.018 0.311 0.041 0.316 -2.347 0.01 -3.92 -0.119 -8.47 0.388 -9.573 0.247 -0.535 0.313 2.133 0.339 2.718 0.419 9.3 -0.031 9.3 0.489 9.3 0.611 0.001 1.22 0.065 1.818 0.191 0.5 0.1 2.923 0.166 2.923 0.5 0 0.55 -3.906 0.138 -4.77 0.149 -0.394 0.006 -0.314 0 -0.164 15.9 0.006 0.658 -0.05 0.261 3.13 0.617 2.451 0.275 2.4 0.306 2.416 0.464 0.024 0.308 -0.185 0.35 -0.44 0.345 -0.02 0 -4.866 -0.23 -4.95 -0.2 -0.2 0.069 -0.15 0.3 -0.15 0.515 0.014 15.827 0.009 10.608 0.088 15.94 0 0.308 -0.035 0.242 2.475 0.558 1.71 0.216 3.258 0.095 3.059 0.624 -0.125 0.331 -3.674 0.142 -5.343 0.124 -0.228 0 -0.183 0.188 -0.183 0.546 0 14.62 -0.129 14.6 0.279 14.616 5.1 0.205 5.756 0.146 5.364 0.671 -0.215 0.288 -5.323 0.269 -5.343 0.269 -0.647 0 0.046 0.073 -0.4 4.68 0.004 0.036 0.001 0.073 -0.011 0.108 -0.011 0.034 -0.029 0.066 -0.054 0.093 -0.025 0.027 -0.055 0.048 -0.089 0.062 -0.033 0.014 -0.069 0.02 -0.106 0.019 -0.036 -0.001 -0.072 -0.01 -0.105 -0.026 -0.032 -0.017 -0.061 -0.04 -0.084 -0.068 -0.022 -0.029 -0.039 -0.062 -0.048 -0.097 -0.009 -0.035 -0.01 -0.072 -0.003 -0.108 -0.101 -1.327 -0.135 -2.658 -0.1 -3.988 -0.018 -0.688 0.113 -0.675 -0.653 -0.671 -6.352 0.032 -6.3 -0.084 -6.336 0.345 -0.0201 1.458 -0.1202 2.914 -0.3 4.361 -0.078 0.325 -0.35 0.208 -0.388 0.029 -0.151 -0.7 -0.112 -0.371 -0.226 -4.327 -0.017 -0.576 0.043 -0.406 -3.838 -0.412 -4.077 -0.007 -4.05 -0.177 -4.038 0.4 0.0871 0.914 0.0761 1.834 -0.033 2.746 -0.116 1.367 -0.188 1.23 -0.353 1.425 -0.474 -0.8 -0.441 -3.43 -0.519 -4.551 -1.006 -0.041 0 -0.034 -5.788 -0.039 -0.448 0 -0.411 -0.028 -0.423 0.411 -0.1 3.776 -0.119 4.268 -0.334 4.3 -0.277 0.042 -0.349 -0.45 -0.374 -0.729 -0.354 -3.978 0.179 -3.959 -0.384 -3.982 -3.62 -0.144 -4.721 0.015 -5.154 -0.367 -0.466 -0.411 0.908 -0.438 5.146 -0.567 0.324 -0.009 0.289 -0.209 0.289 -0.533v-14c0 -0.767 -0.039 -0.167 -2.894 -0.01 -0.527 0.029 -0.652 0.171 -2.112 0.277 -0.285 0.021 -0.234 -0.314 -0.168 -0.373 0.414 -0.376 4.69 -1.142 4.71 -1.146 0.7 -0.1 0.45 0.037 0.491 -6 0.077 -11.378 0.345 -10.522 -0.505 -10.3 -3.974 1.047 -3.709 1.024 -4.288 1 -0.125 0 -0.361 -0.216 -0.129 -0.376 0.374 -0.258 0.145 -0.243 2.894 -1.043 2.028 -0.589 2.129 -0.464 2.116 -0.745 -0.046 -1.018 0.146 -14.569 0.068 -15.829 -0.967 0.224 -1.7 0.476 -3.647 1.008 -1.772 0.484 -1.556 -0.269 -0.655 -0.55 3.789 -1.185 2.6 -0.831 4.029 -1.23 0.308 -0.086 0.308 -0.078 0.312 -0.472 0.128 -11.907 0.086 -11.84 0.423 -11.9 0.357 -0.065 0.192 1.194 0.291 11.638 0.005 0.445 0 0.441 0.438 0.314 5.163 -1.51 5.141 -1.519 5.162 -1.521 0.482 -0.08 -0.159 -6.576 0.353 -12.032 0.005 -0.109 0.322 -0.709 0.393 0.418Z" stroke-width="1"></path><path id="vector_16" fill="#000000" d="M88.97 142.718c-1.562 -0.127 -1.521 -0.382 -1.511 0.23 0.18 11.256 0.066 15.753 0.1 16.3 0.018 0.314 0.073 0.283 0.461 0.3 6.835 0.222 4.19 0.19 6.839 0.305 0.766 0.034 0.406 1.735 0.36 -15.806 0 -0.236 -0.044 -0.472 -0.06 -0.71 -0.022 -0.328 -0.017 -0.118 -6.189 -0.619Z" stroke-width="1"></path><path id="vector_17" fill="#000000" d="M90.32 141.9c4.4 0.178 4.784 0.349 4.818 0.1 0.071 -0.521 -0.119 -15.9 -0.124 -15.925 -0.076 -0.366 -6.52 -0.483 -7.177 -0.593 -0.762 -0.128 -0.422 -1.739 -0.384 16.018 0.001 0.426 -0.037 0.279 2.867 0.4Z" stroke-width="1"></path><path id="vector_18" fill="#000000" d="M95.15 160.977c-0.273 -0.021 -0.014 -0.013 -7.28 -0.494 -0.561 -0.038 -0.2 -1.259 -0.21 15.519 0 0.577 -0.031 0.564 0.554 0.564h7.078c0.309 0 0.248 -0.269 0.244 -0.613 -0.182 -14.98 -0.036 -14.953 -0.386 -14.976Z" stroke-width="1"></path><path id="vector_19" fill="#000000" d="M102.962 143.557c-2.17 -0.091 -4.462 -0.24 -6.322 -0.314 -0.788 -0.031 -0.428 -1.712 -0.371 16.053 0 0.684 0.014 0.624 0.753 0.655 6.229 0.26 6.213 0.532 6.231 0.076 -0.022 0.573 0.105 -16.453 -0.291 -16.47Z" stroke-width="1"></path><path id="vector_20" fill="#000000" d="M96.33 142.227c6.509 0.478 0 -0.013 6.511 0.5 0.632 0.049 0.179 0.343 0.193 -15.887 0 -0.443 -0.009 -0.4 -0.38 -0.406 -2.65 -0.063 -6.716 -0.636 -6.689 -0.218 0 -0.024 0.167 15.125 0.178 15.676 0.004 0.192 -0.026 0.32 0.187 0.335Z" stroke-width="1"></path><path id="vector_21" fill="#000000" d="M103.023 161.4c-2.169 -0.167 -5.878 -0.273 -6.481 -0.328 -0.427 -0.039 -0.272 -1.433 -0.089 15.131 0.006 0.523 -0.037 0.367 3.494 0.367 3.514 0 3.5 0.14 3.485 -0.3 -0.464 -14.863 0.302 -14.817 -0.409 -14.87Z" stroke-width="1"></path><path id="vector_22" fill="#000000" d="M81.778 160.327c0.02 0 4.306 -0.817 4.587 -0.873 0.54 -0.107 0.3 0.029 0.279 -2.623 -0.046 -7.748 0.034 -4.142 -0.107 -14.089 -0.005 -0.412 0.395 -0.436 -4 0.826 -1.9 0.544 -1.89 0.488 -1.868 0.761 0 0.021 -0.023 10.289 -0.08 14.206 -0.037 2.299 -0.289 2.078 1.189 1.792Z" stroke-width="1"></path><path id="vector_23" fill="#000000" d="M86.642 160.3c-0.821 0.129 -0.133 0.01 -3.682 0.7 -2.262 0.437 -2.385 0.349 -2.379 0.679 0 -0.02 -0.021 14.479 -0.021 14.5 0 0.446 0.015 0.394 0.382 0.394h5.38c0.515 0 0.5 0.023 0.49 -0.726 -0.196 -11.668 0.025 -14.096 -0.17 -15.547Z" stroke-width="1"></path><path id="vector_24" fill="#000000" d="M80.671 143.024c0.015 0.365 -0.012 0.248 1.65 -0.187 4.276 -1.119 4.221 -1 4.214 -1.314 0.013 0.569 -0.032 -13.434 -0.032 -15.435 0 -0.466 0.049 -0.608 -0.193 -0.534 -5.8 1.773 -5.639 1.386 -5.639 2.188v15.282Z" stroke-width="1"></path></g></g><path id="line" fill="#000000" d="M5.277 183.04c57.946 -0.814 189.308 -0.133 189.308 -0.133 0.107 0.005 0.208 0.051 0.282 0.129 0.073 0.077 0.115 0.18 0.115 0.288 0 0.107 -0.042 0.21 -0.115 0.287 -0.074 0.078 -0.175 0.124 -0.282 0.129 0 0 -173.531 0.1 -189.308 -0.135 -0.07202 -0.004 -0.13968 -0.036 -0.18916 -0.088 -0.04947 -0.053 -0.07703 -0.122 -0.07703 -0.195 0 -0.072 0.02756 -0.141 0.07703 -0.194 0.04948 -0.052 0.11714 -0.084 0.18916 -0.088Z" stroke-width="1"></path></g></svg>