<svg width="935" height="1000" viewBox="0 0 935 1000" fill="none" xmlns="http://www.w3.org/2000/svg">
<path d="M155.051 207.631C172.701 207.666 155.716 239.186 140.111 236.236C126.666 233.691 140.611 207.606 155.051 207.631ZM181.896 241.551V264.876C181.896 266.716 181.951 266.186 169.481 266.181C149.231 266.181 67.806 269.541 67.666 269.341C67.276 268.796 67.521 269.341 66.996 245.626C66.916 241.981 66.916 244.366 116.851 242.496C189.446 239.776 181.946 236.666 181.896 241.551ZM216.216 297.956C216.116 289.796 216.216 286.641 213.486 284.161C204.486 276.006 203.921 275.901 203.961 272.831C204.21 266.526 203.997 260.211 203.326 253.936C198.332 248.386 192.877 243.268 187.021 238.636C183.381 236.476 178.901 236.316 163.661 236.451C162.851 236.451 162.521 236.236 162.296 235.371C161.557 233.674 161.003 231.902 160.646 230.086C160.601 228.201 162.421 226.781 163.311 225.086C165.374 221.441 166.301 217.262 165.971 213.086C164.406 197.201 136.771 202.946 131.271 225.301C128.871 235.071 135.181 237.301 132.886 237.421C107.606 238.776 107.576 238.816 107.576 237.171C107.576 235.671 107.576 237.171 107.051 216.701C106.991 214.341 105.626 213.526 104.096 213.846C101.676 214.346 102.286 214.936 102.791 234.986C102.866 237.881 103.101 238.436 101.941 238.486C89.6259 238.931 89.606 239.546 89.576 237.736C88.996 204.176 90.076 201.881 86.621 202.031C82.821 202.201 84.236 204.156 84.946 236.031C85.006 238.761 85.561 238.941 84.476 239.031C79.301 239.421 70.366 240.091 66.701 240.601C63.126 241.101 64.001 242.006 63.436 267.286C63.356 270.846 62.936 269.786 59.271 270.261C50.956 271.331 50.441 271.051 49.736 272.611C47.931 276.611 48.116 290.456 46.986 917.716C46.986 917.716 51.986 917.776 53.531 917.716C52.231 904.426 52.741 735.451 52.781 730.216C56.586 274.671 48.996 274.366 54.396 274.366C118.206 274.366 173.021 269.931 187.521 269.756C191.461 269.711 189.706 271.756 189.656 286.936C187.881 811.371 187.626 904.546 186.116 917.706H218.206C215.446 877.511 218.231 459.911 216.216 297.956Z" fill="#0F172A"/>
<path d="M142.806 863.531C142.456 860.186 140.951 861.276 129.146 861.616C108.621 862.201 115.806 861.861 95.906 862.641C93.486 862.736 92.236 863.781 92.366 866.191C92.711 872.481 92.766 915.976 92.621 917.691C93.856 917.966 94.996 917.506 96.226 917.691C96.226 917.586 94.606 866.156 97.271 866.076C138.546 864.841 138.741 863.901 138.771 866.456C138.801 870.216 138.121 911.356 138.391 917.691C139.611 917.741 140.831 917.626 142.051 917.691C142.071 917.576 143.051 865.881 142.806 863.531Z" fill="#0F172A"/>
<path d="M65.946 786.231C66.216 783.161 67.061 783.191 69.396 783.166C72.396 783.131 168.721 780.051 169.081 780.086C172.581 780.421 171.441 780.621 171.216 818.276C171.186 823.356 159.781 822.376 120.241 824.206C68.206 826.616 66.241 826.886 66.011 823.746C65.816 821.376 65.681 789.001 65.946 786.231ZM166.446 799.916C166.446 783.116 166.991 783.171 165.186 783.206C165.081 783.206 117.731 785.991 73.016 787.146C70.976 787.201 71.581 787.026 71.611 803.466C71.641 822.256 71.036 822.256 72.946 822.166C107.126 820.536 116.946 820.436 164.971 819.036C167.026 818.976 166.446 819.146 166.446 799.916Z" fill="#0F172A"/>
<path d="M170.806 500.481C71.471 504.841 81.501 504.881 68.251 504.111C64.481 503.891 65.526 503.136 65.521 465.421C65.521 460.641 65.221 461.706 140.766 459.421C172.221 458.481 173.676 457.276 173.686 461.836C173.771 500.686 174.086 500.336 170.806 500.481ZM70.126 497.696C70.126 502.786 69.571 501.061 84.361 500.101C92.276 499.601 105.236 499.226 146.451 498.026C168.301 497.391 168.051 498.211 168.136 495.831C168.571 483.361 168.461 495.801 168.516 462.546C168.516 460.476 93.251 466.506 71.946 465.226C69.226 465.061 70.121 462.261 70.126 497.696Z" fill="#0F172A"/>
<path d="M65.561 564.561C65.561 539.386 62.996 542.891 80.061 542.011C95.856 541.201 102.186 541.146 140.366 539.951C172.406 538.951 173.126 538.051 173.081 541.101C172.526 580.601 173.496 580.286 171.316 580.561C169.716 580.756 73.316 586.461 66.876 584.101C64.976 583.396 65.571 583.851 65.561 564.561ZM168.011 544.641C168.011 541.201 168.596 542.141 161.826 542.536C161.721 542.536 79.126 546.576 72.271 545.951C70.476 545.791 70.486 545.656 70.486 547.861C70.526 580.896 70.541 580.601 70.621 580.896C71.026 582.396 71.956 580.896 94.376 580.106C159.576 577.881 137.256 579.046 166.691 577.971C168.631 577.901 168.041 578.026 168.011 544.641Z" fill="#0F172A"/>
<path d="M73.1959 703.661C91.0109 702.811 114.666 702.161 136.311 701.526C168.691 700.571 172.241 699.401 172.076 703.301C170.576 739.506 174.076 742.216 168.751 742.536C58.3409 749.181 65.8459 748.641 65.9009 742.451C66.2309 702.356 62.8109 704.156 73.1959 703.661ZM165.446 703.731C161.681 703.836 117.581 706.286 72.5359 707.651C70.5359 707.711 71.1309 707.551 71.1609 725.271C71.1959 742.771 70.5059 742.711 72.8259 742.616C122.796 740.586 140.036 740.116 163.016 739.551C167.386 739.436 166.961 740.111 166.966 737.281C167.011 701.946 167.766 703.666 165.446 703.731Z" fill="#0F172A"/>
<path d="M65.906 644.326C65.906 626.881 64.636 622.911 69.541 623.151C72.786 623.306 69.541 623.056 155.326 620.471C176.221 619.841 172.301 618.036 172.251 629.791C172.116 662.231 173.321 661.161 169.216 661.961C168.996 662.006 74.406 666.221 69.656 666.201C64.731 666.181 65.906 664.156 65.906 644.326ZM167.521 628.426C167.521 623.726 167.881 623.076 166.311 623.181C140.681 624.891 71.491 627.061 71.391 627.151C70.221 628.191 70.651 627.151 70.671 660.011C70.671 661.366 70.476 662.426 71.716 662.311C85.376 661.066 107.061 660.576 160.851 659.056C168.116 658.851 167.451 659.726 167.461 656.871C167.531 634.231 167.521 628.526 167.521 628.426Z" fill="#0F172A"/>
<path d="M68.916 382.621C95.846 380.961 157.156 379.411 157.031 379.421C177.086 378.796 174.326 375.706 174.076 398.476C173.831 421.331 174.446 420.841 171.286 421.036C171.186 421.036 70.076 425.796 67.046 424.401C65.911 423.876 65.426 423.931 65.476 422.176C66.556 386.061 62.946 382.991 68.916 382.621ZM169.071 383.506C169.071 381.576 169.236 382.166 162.246 382.506C111.466 384.931 80.411 386.471 70.886 385.766C69.111 385.636 69.636 384.186 69.666 419.766C69.666 422.961 69.666 421.001 94.166 420.086L164.446 417.996C169.251 417.876 168.986 418.451 168.981 416.316C168.946 383.506 169.116 416.296 169.071 383.506Z" fill="#0F172A"/>
<path d="M163.886 340.926C68.486 344.241 65.521 346.826 65.521 341.271C65.521 329.071 65.491 332.456 65.971 306.976C66.091 300.476 65.436 301.706 140.086 299.421C173.676 298.421 173.631 297.731 173.666 299.986C174.386 343.406 177.231 340.461 163.886 340.926ZM170.581 302.726C170.736 301.116 169.971 301.651 163.251 301.976C68.931 306.536 75.751 305.026 68.866 305.301C70.281 339.086 67.416 341.301 71.206 341.026C91.236 339.656 71.616 340.091 164.646 337.476C169.716 337.331 169.506 337.896 169.571 335.936C169.701 332.271 170.476 303.726 170.581 302.726Z" fill="#0F172A"/>
<path d="M811.766 245.731C811.671 244.696 811.876 244.011 809.566 243.366C808.196 243.028 806.811 242.774 805.411 242.606C804.911 242.536 804.311 242.656 804.191 241.446C803.826 237.816 804.341 212.416 803.961 207.221C803.346 204.041 804.516 204.396 733.006 193.386C709.226 189.726 714.401 191.606 703.376 191.776C700.136 191.826 700.496 192.506 700.476 189.076C699.976 115.501 699.376 117.746 694.756 115.901C693.086 115.236 692.106 115.761 692.121 117.576C692.201 128.371 691.171 170.761 691.646 191.891C691.676 193.141 691.556 192.781 679.341 193.796C674.776 194.176 678.776 171.296 674.816 95.7963C674.201 84.0213 674.346 83.7963 673.021 82.9463C662.721 76.3113 668.551 73.5563 666.176 158.631C665.901 168.526 666.026 193.186 666.051 193.761C666.126 195.321 664.996 194.686 661.946 194.971C609.771 199.876 609.846 199.931 609.741 199.941C602.386 200.616 597.166 199.551 596.851 204.056C595.656 214.658 595.811 225.368 597.311 235.931C597.446 237.021 596.771 237.091 592.971 237.356C580.861 238.206 576.881 237.226 576.826 241.731C576.506 269.951 581.521 263.666 565.911 265.181C557.021 266.046 555.911 266.681 555.766 269.441V916.941C557.071 916.851 558.376 916.851 559.681 916.941C560.816 916.791 558.296 286.801 559.301 270.581C559.496 267.421 559.231 269.811 666.256 260.626C675.996 259.791 676.821 259.511 676.851 260.966C677.541 294.966 676.406 878.966 674.281 916.931C682.986 917.021 691.691 917.081 700.391 916.931C697.321 879.306 701.391 266.671 696.011 264.076C674.366 253.676 677.631 256.841 658.416 257.921C604.641 260.921 581.346 265.921 581.346 263.081C581.751 256.774 581.631 250.444 580.986 244.156C580.666 242.576 581.131 242.156 582.721 242.116C588.611 242.006 588.271 241.116 592.071 241.076C613.221 240.801 618.756 239.821 639.131 238.021C707.521 231.976 716.391 229.556 716.371 235.611C714.291 807.786 718.936 903.031 716.021 916.921C716.711 916.856 721.021 916.991 722.521 916.921C720.736 867.276 720.481 233.211 721.571 233.331C724.996 233.706 774.976 241.431 794.916 244.056C809.521 245.976 809.671 245.306 809.671 247.401C809.671 916.861 809.636 916.441 809.671 916.941C811.726 916.886 813.806 916.996 815.856 916.941C815.851 884.346 815.001 281.116 811.766 245.731ZM713.561 227.686C694.181 228.321 620.651 235.461 615.446 235.966C600.536 237.411 600.531 237.651 600.851 234.366C601.686 225.836 601.306 218.571 601.436 205.981C601.471 202.736 601.181 203.866 610.601 203.546C637.646 200.756 689.146 197.516 712.011 195.481C714.986 195.216 715.886 195.841 715.826 197.851C714.946 227.366 719.766 227.461 713.561 227.666V227.686ZM800.331 240.441C800.401 241.466 800.196 241.736 798.996 241.531C779.776 238.186 719.896 229.961 719.901 226.821C719.901 225.271 719.831 200.131 719.821 198.126C719.821 196.591 719.161 195.431 723.081 195.951C724.776 196.181 795.681 207.216 799.376 208.451C800.711 208.906 800.281 209.706 800.311 212.191C800.386 218.756 800.271 239.561 800.331 240.421V240.441Z" fill="#0F172A"/>
<path d="M761.416 263.021C741.606 260.446 737.246 258.721 736.856 263.391C735.441 280.196 735.796 704.511 735.796 916.891C737.356 916.836 738.916 916.931 740.486 916.891C740.486 898.256 740.191 903.891 740.486 885.281C740.521 883.351 741.031 884.601 746.716 884.621H791.276C792.746 884.656 792.666 884.666 792.666 886.891V916.891C794.376 916.981 796.091 916.786 797.806 916.891C797.806 909.296 797.061 273.016 795.446 267.996C794.791 265.986 795.506 267.451 761.416 263.021ZM741.946 737.991C745.646 738.571 749.401 738.736 753.141 738.491C792.231 738.696 792.171 737.331 792.181 740.236C792.286 771.671 792.911 771.161 790.496 770.141C786.496 768.451 763.641 768.771 755.131 768.641C753.621 768.451 752.101 768.341 750.576 768.311C740.941 769.096 740.651 769.596 740.466 768.206C740.426 767.881 740.436 768.206 740.436 740.036C740.446 738.731 740.161 737.581 741.946 737.991ZM792.181 734.426C792.241 736.276 795.566 734.291 748.761 733.926C740.961 733.866 740.446 735.651 740.436 732.766V698.951C740.436 696.451 737.936 697.616 782.556 699.061C784.056 699.111 785.581 699.391 787.101 699.421C788.106 699.361 789.106 699.251 790.101 699.091C793.986 698.781 791.061 699.856 792.181 734.426ZM789.986 553.241C784.671 551.176 765.386 551.156 760.931 550.716C741.461 548.791 740.496 552.216 740.486 548.241C740.426 519.106 739.706 519.386 742.396 519.741C751.396 520.976 790.691 521.976 790.806 521.981C792.511 522.011 792.136 521.886 792.141 537.836C792.146 552.356 792.806 554.336 789.986 553.231V553.241ZM792.121 624.566C791.921 626.641 790.046 624.701 786.781 624.516C784.856 624.401 756.991 621.356 741.566 621.631C739.936 621.661 740.441 621.456 740.446 607.291C740.446 595.551 740.446 592.321 740.476 591.911C740.626 590.206 740.511 591.486 784.671 593.911C792.511 594.341 792.121 593.991 792.131 595.851C792.221 619.261 792.166 624.096 792.121 624.566ZM792.091 590.286C791.806 592.061 779.311 588.786 752.956 587.321C740.036 586.616 740.456 588.541 740.456 584.321V556.131C740.581 553.431 741.861 554.706 747.641 554.916C790.171 556.491 780.236 556.346 790.191 555.986C792.716 555.891 792.121 555.791 792.121 574.131C792.131 590.256 792.146 589.916 792.091 590.286ZM791.741 391.686C791.741 407.591 792.356 408.056 789.891 407.006C781.531 405.323 773.071 404.182 764.566 403.591C740.696 401.181 740.866 403.046 740.856 400.016V373.366C740.856 370.236 740.741 371.256 754.251 372.751C754.351 372.751 788.691 375.886 790.541 375.881C792.241 375.876 791.741 375.816 791.741 391.686ZM743.476 406.236C745.341 406.571 778.081 409.811 788.036 410.341C790.921 410.496 791.721 409.941 791.751 412.036V447.141C791.751 450.471 793.111 446.321 742.716 444.086C740.216 443.976 740.846 444.301 740.846 429.216C740.846 405.231 739.751 405.571 743.476 406.236ZM791.711 371.036C791.711 372.751 791.841 372.566 784.671 371.611C740.906 365.776 740.726 367.876 740.846 366.141V336.411C740.846 333.441 740.641 334.311 750.256 335.381C781.906 338.916 787.666 338.246 790.591 338.586C791.926 338.741 791.701 339.856 791.701 341.561C791.701 351.956 791.726 364.191 791.711 371.036ZM790.271 335.651C774.586 332.542 758.676 330.713 742.696 330.181C740.076 330.046 741.011 330.416 740.816 316.921C740.551 298.531 739.411 298.921 743.446 299.721C748.446 300.681 785.531 303.871 785.706 303.886C791.706 304.326 791.671 303.331 791.676 305.836C791.791 338.231 792.231 336.441 790.271 335.651ZM749.696 448.826C765.816 450.121 749.696 448.916 784.996 451.196C791.496 451.616 791.751 450.196 791.761 453.261V467.096C791.761 488.871 794.051 481.291 780.556 480.961C780.451 480.961 757.391 478.766 742.481 478.506C740.671 478.476 740.481 478.341 740.481 476.671C740.481 470.011 740.391 463.346 740.536 456.696C740.766 446.416 738.301 447.911 749.696 448.826ZM791.781 496.456C792.306 503.666 792.306 510.911 791.781 518.121C791.701 519.651 790.056 518.661 788.281 518.471C740.571 513.266 740.486 517.206 740.476 514.126C740.476 514.026 740.431 484.826 740.476 484.126C740.746 481.301 744.786 484.681 789.571 485.171C792.601 485.231 791.586 484.806 791.781 496.456ZM787.781 269.566C790.706 269.916 792.441 269.486 792.126 271.906C791.666 275.406 791.776 271.906 791.691 298.496C791.691 304.186 794.081 298.771 741.651 295.391C740.186 295.296 740.341 295.431 740.371 266.076C740.356 264.231 736.101 263.441 787.766 269.566H787.781ZM741.946 625.796C750.976 627.396 788.711 628.261 790.066 628.296C792.971 628.381 792.141 628.051 792.141 645.436C792.141 661.631 792.696 661.661 790.836 661.556C782.836 661.106 790.836 661.341 759.116 659.086C740.766 657.781 740.486 660.376 740.416 657.276C739.691 625.181 739.801 625.416 741.946 625.796ZM741.691 662.591C781.276 666.266 792.116 663.266 792.121 666.501C792.121 697.391 792.941 696.501 790.571 695.881C774.711 693.941 758.731 693.106 742.756 693.381C740.426 693.471 740.426 693.431 740.426 692.101C740.381 660.196 739.891 662.421 741.691 662.591ZM741.976 772.901C758.006 773.941 774.056 773.286 790.096 773.376C792.141 773.376 792.201 773.241 792.201 775.191C792.236 809.356 793.236 807.406 789.841 807.141C782.381 806.556 749.006 804.571 741.441 806.471C740.086 806.811 740.441 807.631 740.441 789.786C740.446 772.761 739.781 772.761 741.976 772.901ZM740.426 825.026C740.426 808.526 740.141 809.026 741.331 809.316C748.431 810.971 784.536 810.316 785.121 810.466C790.336 811.571 792.121 809.121 792.231 811.871C792.231 812.446 792.261 822.401 792.276 838.771C792.276 842.411 792.446 842.156 790.476 841.771C773.901 840.191 757.226 839.881 740.601 840.846C740.256 835.581 740.206 830.296 740.446 825.026H740.426ZM791.351 881.676C774.831 880.191 758.236 879.801 741.666 880.506C738.926 880.856 741.466 879.121 740.416 845.101C740.356 843.101 742.726 844.986 748.556 845.101C765.426 845.436 782.906 845.626 786.011 845.601C791.291 845.601 792.576 844.101 792.591 846.986C792.811 885.506 793.166 882.086 791.351 881.676Z" fill="#0F172A"/>
<path d="M653.121 287.786C650.566 287.286 593.121 291.286 593.001 291.286C580.001 292.286 577.176 290.786 578.041 295.286C577.466 819.946 578.431 905.496 576.541 916.881C578.206 916.991 579.876 916.991 581.541 916.881C581.416 916.656 581.416 917.206 581.416 916.881C581.416 897.606 580.811 894.036 583.046 893.941C603.911 893.091 621.821 893.626 640.151 893.306C655.511 893.041 655.336 891.686 655.336 894.836C655.336 906.116 655.576 914.726 655.336 916.871C656.611 916.796 657.881 916.931 659.166 916.871V339.291C658.286 287.371 660.211 289.181 653.121 287.786ZM581.531 786.786C581.486 784.326 581.281 785.426 594.716 784.611C611.506 783.611 612.266 785.026 646.296 783.256C654.361 782.836 654.471 783.156 654.796 783.946C654.876 784.161 654.866 783.946 654.886 803.391C654.886 805.671 654.856 805.656 653.481 805.661C644.841 805.661 617.151 805.586 609.481 806.316C600.881 807.136 592.271 806.566 583.666 806.816C582.531 806.846 582.726 806.946 581.921 805.931C581.881 805.881 581.921 805.771 581.921 805.686C581.776 799.361 581.631 793.071 581.531 786.766V786.786ZM655.256 856.286C655.256 859.511 655.646 859.066 652.341 859.091C581.476 859.536 581.481 861.706 581.476 858.556C581.476 837.886 580.666 838.131 583.561 838.091C637.821 837.311 628.821 837.651 637.831 837.436C653.921 837.046 655.216 835.546 655.236 838.346C655.256 841.591 655.271 853.556 655.256 856.286ZM654.756 747.986C654.756 751.146 654.811 748.926 612.136 750.366C603.636 750.651 605.636 750.816 583.791 751.301C581.111 751.361 581.521 751.106 581.511 743.801C581.511 729.066 580.866 729.481 583.411 729.301C596.581 728.431 607.301 729.046 636.121 728.161C642.916 727.956 642.621 727.226 652.931 727.281C654.226 727.281 654.646 727.196 654.761 729.196C654.846 730.731 654.766 744.916 654.751 747.986H654.756ZM581.511 757.416C581.511 754.266 581.316 755.961 599.176 754.831C612.301 754.001 615.451 755.061 643.911 753.831C654.206 753.391 654.791 752.771 654.781 754.556C654.691 767.621 654.856 764.556 654.781 777.621C654.781 780.286 654.996 779.466 638.636 779.546C604.541 779.716 624.401 780.091 583.451 781.006C580.686 781.081 581.476 781.186 581.506 757.416H581.511ZM653.761 558.321C653.761 560.846 653.976 560.001 635.011 560.586C578.956 562.316 581.896 564.086 581.881 561.161C582.251 553.826 582.141 546.481 581.546 539.161C581.141 535.086 591.961 538.636 651.186 534.406C654.081 534.201 653.731 534.746 653.731 535.751C653.741 540.851 653.776 553.916 653.756 558.321H653.761ZM643.091 672.986C654.421 672.441 654.291 672.576 654.286 673.986C654.181 695.076 655.156 694.901 652.636 694.951C581.516 696.341 581.701 698.206 581.501 695.866C581.461 695.366 581.501 678.171 581.501 677.681C581.506 672.801 581.666 675.926 643.091 672.986ZM582.826 645.646C610.631 643.896 611.581 645.606 651.456 643.146C654.421 642.961 654.226 643.256 654.236 645.021C654.236 650.126 654.301 661.856 654.266 667.306C654.266 669.921 654.366 668.606 630.436 669.346C594.486 670.456 614.936 670.586 584.241 670.916C581.556 670.946 581.851 670.976 581.851 668.626C581.846 645.606 581.446 645.731 582.821 645.646H582.826ZM652.531 639.446C651.896 639.526 624.966 639.506 606.841 640.986C581.841 641.591 581.916 642.381 581.901 639.826C581.826 621.376 581.401 619.661 582.981 619.586C609.111 618.401 621.906 618.851 639.701 617.886C654.561 617.076 654.201 615.636 654.201 619.791C654.201 639.581 654.896 639.141 652.531 639.446ZM654.196 611.446C654.196 614.101 654.386 613.526 629.996 613.856L582.096 615.591C581.676 609.946 581.971 603.521 581.871 594.121C581.836 590.476 605.871 592.736 639.066 590.681C645.531 590.281 650.221 589.761 652.276 589.791C654.906 589.846 654.211 589.631 654.191 611.461L654.196 611.446ZM653.791 565.416C653.736 586.321 654.791 586.091 651.906 586.156C578.066 587.871 581.906 590.291 581.906 587.156C581.851 566.581 581.211 566.821 583.601 566.726C660.196 563.731 653.796 563.491 653.786 565.431L653.791 565.416ZM653.731 503.316C653.731 505.131 653.896 504.651 639.651 505.131C581.421 507.106 581.881 509.496 581.881 505.926C581.881 499.093 581.891 492.26 581.911 485.426C581.911 481.876 581.861 484.346 644.456 480.566C653.426 480.021 653.681 479.426 653.701 482.066C653.726 486.091 653.756 498.941 653.726 503.331L653.731 503.316ZM652.621 476.406C652.401 476.586 623.396 477.406 620.191 477.536C607.416 477.986 608.391 478.956 592.946 479.086C581.911 479.181 581.946 480.411 581.946 478.206C581.911 474.961 581.446 458.031 583.296 457.886C603.066 456.326 609.346 457.001 631.011 455.811C653.341 454.581 653.301 453.311 653.351 455.761C653.751 476.456 654.206 475.181 652.616 476.421L652.621 476.406ZM582.446 296.671C583.556 294.396 623.446 293.706 636.946 292.751C652.216 291.671 653.156 290.321 653.181 292.841C653.441 315.146 654.621 313.501 647.916 313.771C591.976 315.996 619.991 316.071 584.041 317.381C581.796 317.461 582.326 296.946 582.446 296.671ZM583.751 321.416C587.456 321.141 651.876 317.341 651.976 317.341C653.796 317.341 653.156 317.281 653.201 341.341C653.201 342.666 653.026 342.776 646.741 343.021C581.956 345.591 582.416 348.666 582.416 344.851C582.446 321.341 581.826 321.561 583.766 321.416H583.751ZM651.251 368.666C582.376 370.861 582.596 373.666 582.386 371.066C582.356 370.696 582.386 352.991 582.386 352.626C582.386 348.446 582.251 351.166 639.261 347.286C653.116 346.346 653.206 346.156 653.191 347.786C652.946 368.826 654.176 368.571 651.266 368.666H651.251ZM582.021 397.031L582.391 377.601C582.461 374.051 586.731 376.946 644.501 372.781C653.326 372.141 653.196 371.856 653.216 373.601C653.426 395.326 653.841 395.356 651.921 395.431C578.946 398.256 581.946 400.776 582.021 397.031ZM581.986 422.306V404.366C582.096 401.196 614.946 401.946 634.986 400.456C653.081 399.116 653.196 398.076 653.216 400.881C653.216 404.041 653.676 421.076 652.096 421.146C576.201 424.576 581.986 426.291 581.986 422.306ZM583.241 428.641C601.816 426.986 622.106 427.276 637.021 426.106C642.071 425.404 647.161 425.07 652.261 425.106C653.616 425.071 653.851 450.686 651.836 450.751C580.336 453.001 581.921 455.636 581.916 452.331C581.911 428.611 581.211 428.821 583.241 428.641ZM581.516 513.781C581.516 510.781 581.346 511.326 621.381 510.196C646.171 509.501 653.741 506.976 653.726 509.816C653.621 530.911 654.751 530.681 651.591 530.756C586.946 532.256 628.386 532.151 583.671 533.371C580.646 533.456 581.446 533.616 581.516 513.781ZM583.661 701.021C631.886 699.101 606.161 701.121 653.121 698.806C654.946 698.716 654.671 700.406 654.671 702.121C654.671 723.876 655.791 723.571 652.106 723.591C581.456 724.001 581.466 727.766 581.456 722.931C581.416 700.796 580.586 701.146 583.661 701.021ZM655.281 888.071C655.251 889.446 653.861 889.211 652.351 889.211C581.406 889.211 581.426 891.561 581.426 888.041C581.426 864.041 580.626 864.246 583.476 864.201L654.321 863.071C655.636 863.071 655.871 861.766 655.281 888.071ZM653.636 832.901C581.671 833.291 581.431 835.641 581.516 832.621C582.076 813.741 581.866 816.756 581.866 813.716C581.866 809.121 581.681 811.021 632.276 810.216C641.226 810.071 637.356 809.381 653.951 809.336C655.256 809.336 655.206 810.336 655.206 811.396C655.221 833.021 655.946 832.886 653.636 832.901Z" fill="#0F172A"/>
<path d="M708.176 204.791C708.116 201.706 707.606 202.126 705.021 202.071C703.021 202.026 619.986 208.071 606.321 210.241C606.196 210.25 606.071 210.285 605.961 210.344C605.846 210.403 605.751 210.485 605.671 210.585C605.596 210.684 605.536 210.799 605.506 210.921C605.476 211.044 605.471 211.172 605.491 211.296C605.701 225.296 604.641 229.796 607.916 230.856C611.771 232.111 620.376 229.306 703.951 223.026C707.396 222.766 708.141 222.451 708.236 219.526C708.291 217.961 708.206 206.271 708.176 204.791ZM704.846 219.026C705.001 220.696 704.516 219.786 694.226 220.526C604.936 227.026 608.806 229.671 608.581 226.171C607.456 208.776 605.121 212.671 626.081 211.201C711.166 205.236 704.886 204.701 704.926 207.051C704.946 208.231 704.836 218.971 704.846 219.026Z" fill="#0F172A"/>
<path d="M792.521 213.231C792.521 213.231 739.556 204.486 730.226 202.986C726.191 202.341 727.146 205.821 727.146 213.376C727.146 225.741 726.091 223.801 734.431 225.236C745.361 227.121 757.526 229.371 778.061 231.856C792.601 233.616 794.631 236.186 794.716 229.856C794.946 213.146 795.281 213.851 792.521 213.231ZM790.346 231.826C788.271 231.711 772.261 228.326 755.676 225.626C731.476 221.716 730.726 222.756 730.716 220.626C730.681 206.721 730.326 206.536 731.611 206.656C738.886 207.336 782.611 213.801 786.111 214.366C791.191 215.181 791.716 214.661 791.726 217.031C791.796 231.956 792.211 231.931 790.346 231.826Z" fill="#0F172A"/>
<path fill-rule="evenodd" clip-rule="evenodd" d="M300.858 887.486C285.168 887.621 274.297 887.681 272.921 887.556C269.161 887.216 267.296 886.236 267.056 883.556C266.958 882.466 266.866 881.506 266.78 880.541C265.447 865.661 265.489 850.661 266.476 341.446C266.771 187.995 265.732 179.926 268.575 178.18C268.76 178.067 268.961 177.98 269.181 177.881C269.296 177.831 339.811 145.091 373.216 129.031C379.275 126.119 381.477 125.213 382.196 123.632C383.125 121.588 381.572 118.415 382.666 108.311C382.689 108.094 382.755 107.897 382.684 107.801C382.229 107.184 376.133 110.73 316.946 139.696C315.163 140.566 309.079 143.449 301.331 147.121C282.391 156.097 253.507 169.785 253.191 170.296C253.191 170.296 253.421 911.841 253.386 912.216C251.66 912.756 249.875 913.081 248.071 913.186V171.806C248.106 171.347 248.135 170.936 248.221 170.538C249.185 166.092 257.323 163.202 361.881 113.146C377.839 105.503 382.715 102.362 387.893 101.745C391.928 101.263 396.146 102.314 405.936 103.961C405.942 103.962 406.053 103.98 406.261 104.012C410.05 104.608 445.896 110.24 457.551 112.681C458.426 112.865 459.026 112.975 459.451 113.309C460.661 114.264 460.431 117.051 460.946 128.641C461.736 146.211 461.931 272.356 462.156 418.706C462.191 440.518 462.226 462.778 462.261 485.194C460.686 485.114 459.056 485.029 457.371 484.941V467.301C457.371 467.017 457.376 466.797 457.291 466.621C456.921 465.863 454.866 465.927 443.431 465.196C395.228 462.098 389.614 460.562 389.124 461.555C389.023 461.759 389.139 462.07 389.146 462.496V481.161C386.829 481.031 384.653 480.91 382.65 480.798C382.584 475.392 382.508 470.943 382.421 467.586C382.361 464.977 382.415 462.884 382.45 461.528C382.48 460.393 382.496 459.774 382.421 459.796C379.584 460.602 374.971 461.923 369.183 463.581C341.863 471.404 288.381 486.72 272.146 490.701C271.994 490.738 271.862 490.767 271.75 490.829C270.807 491.347 271.146 494.197 271.146 523.671C271.153 552.146 270.49 557.581 271.815 558.121C272.209 558.281 272.779 558.006 273.596 557.776L304.498 549.606L304.443 554.671C293.805 557.381 284.586 559.751 278.826 561.281C277.015 561.761 275.612 562.091 274.531 562.351C271.431 563.081 270.986 563.186 271.186 564.391V624.391C271.189 624.636 271.188 624.821 271.276 624.931C271.686 625.426 274.013 624.346 287.606 620.731C289.63 620.196 295.659 618.746 303.774 616.821L303.717 622.061C286.969 625.951 273.956 628.861 272.471 628.816C272.173 628.806 271.934 628.801 271.744 628.891C270.626 629.431 271.181 633.426 271.181 660.816C271.181 688.841 270.775 692.926 271.546 693.161C271.716 693.216 271.944 693.081 272.246 692.971C275.317 691.861 287.642 689.271 303.026 686.256L302.964 691.971L273.716 697.376C271.215 697.851 271.215 698.126 271.216 699.486V699.541C270.402 767.246 270.68 767.151 271.981 766.706C272.056 766.676 272.134 766.651 272.216 766.636C274.422 766.226 286.589 764.601 302.203 762.561L302.146 767.931C300.273 768.161 298.513 768.376 296.86 768.581C271.162 771.736 271.154 771.741 271.191 772.826C271.375 780.651 271.348 795.451 271.325 807.886C271.304 819.436 271.287 828.941 271.446 828.921C277.643 828.041 288.673 826.936 301.523 825.766L301.465 831.081C292.328 831.816 284.479 832.441 279.346 832.856C275.379 833.171 273.034 833.361 272.971 833.366C271.145 833.486 271.157 833.941 271.2 835.651L271.206 835.866C271.535 852.551 271.278 863.411 271.112 870.466C270.808 883.351 270.803 883.566 275.206 883.461L300.906 883.021L300.858 887.486ZM457.456 460.452C457.531 460.226 457.326 459.909 457.326 459.521H457.311C458.001 399.2 457.691 399.166 455.921 398.974L455.896 398.971C437.656 396.9 426.306 395.718 418.162 394.87C406.131 393.617 401.092 393.092 391.161 391.506C390.485 391.398 390.012 391.155 389.684 391.283C388.591 391.709 389.106 396.254 389.106 423.601C389.106 451.21 388.535 455.181 389.77 455.859C389.988 455.978 390.262 455.995 390.606 456.021C450.816 460.618 457.121 461.499 457.456 460.452ZM382.301 392.172C382.478 397.923 382.482 432.45 382.483 446.741C382.484 449.759 382.484 451.874 382.486 452.626C382.486 453.365 382.532 453.879 382.357 454.299C381.774 455.693 378.744 456.063 363.456 460.246C360.414 461.08 356.993 462.017 353.306 463.026C324.528 470.906 279.504 483.234 271.801 485.826C271.663 485.873 271.551 485.977 271.46 485.961C270.889 485.861 271.146 481.041 271.146 427.786C271.021 425.943 373.451 394.613 382.301 392.172ZM382.133 386.765C382.421 386.412 382.421 385.826 382.421 384.471H382.446C382.387 337.704 383.073 330.404 381.663 329.974C381.272 329.855 380.72 330.264 379.946 330.506C379.065 330.782 377.657 331.225 375.81 331.806C355.245 338.271 280.253 361.849 272.101 363.161C271.988 363.18 271.888 363.196 271.799 363.236C270.733 363.718 271.229 367.657 271.146 420.561C271.143 420.864 271.111 421.092 271.209 421.217C271.641 421.764 274.584 420.328 293.506 414.406C355.464 395.027 370.498 390.544 376.124 388.867C378.402 388.188 379.138 387.968 380.821 387.406C381.518 387.169 381.911 387.037 382.133 386.765ZM270.855 359.687C271.15 360.303 280.511 356.574 380.706 325.471L380.726 325.466C381.035 325.372 381.295 325.3 381.511 325.161C383.109 324.135 382.356 319.447 382.321 274.751C382.321 273.644 382.503 272.869 382.198 272.521C381.392 271.601 377.183 273.663 357.206 280.446C279.079 306.967 271.847 307.515 271.179 309.901C271.107 310.156 271.111 310.431 271.111 310.761V358.941C271.127 359.24 270.793 359.558 270.855 359.687ZM373.101 133.731C363.446 138.136 341.876 148.161 300.706 167.931L300.711 167.926C274.275 180.612 270.778 181.183 270.454 182.522C270.374 182.852 270.486 183.228 270.496 183.841C270.568 188.626 270.579 196.091 270.587 201.517C270.592 204.755 270.596 207.267 270.611 208.051C270.625 208.642 327.114 187.21 359.51 174.918C372.366 170.041 381.428 166.602 381.661 166.551C382.106 166.481 382.331 166.141 382.331 164.981C382.351 148.049 382.361 142.122 382.366 139.159C382.371 136.199 382.371 136.196 382.371 131.136C382.371 130.591 382.487 130.175 382.332 130.005C381.989 129.626 380.317 130.451 373.101 133.731ZM335.55 188.945C318.342 195.354 303.636 200.83 272.346 211.966L272.351 211.961C270.487 212.615 270.527 213.388 270.581 214.451C270.591 214.64 270.601 214.838 270.601 215.046C270.688 253.613 270.653 253.917 270.733 254.186C270.736 254.194 270.738 254.202 270.741 254.211C271.045 255.199 353.826 226.773 375.128 219.458C379.054 218.11 380.892 217.479 379.741 217.881C380.387 217.659 380.879 217.553 381.251 217.282C383.005 216.003 382.079 211.048 382.001 172.881C382.001 171.595 381.963 171.61 378.67 172.925C377.318 173.465 375.417 174.223 372.746 175.201C356.822 181.024 345.747 185.148 335.55 188.945ZM292.44 252.459C283.976 255.184 276.932 257.452 272.411 258.966L272.416 258.956C270.549 259.582 270.553 259.629 270.765 262.007C270.867 263.145 271.016 264.817 271.031 267.341C271.162 296.096 271.024 298.598 271.16 301.086C271.194 301.72 271.247 302.352 271.326 303.416C316.84 288.436 343.695 279.816 359.54 274.731C381.804 267.585 382.326 267.417 382.326 266.386L381.916 225.121C381.916 222.731 381.001 222.116 375.476 224.266C353.961 232.649 317.148 244.503 292.44 252.459ZM455.816 117.051C455.101 116.319 453.536 116.418 450.256 115.886V115.906C394.638 106.869 387.514 105.098 386.949 106.33C386.809 106.638 387.076 107.132 387.101 107.746C387.215 110.65 387.307 112.833 387.379 114.539C387.553 118.682 387.61 120.018 387.571 122.061C387.553 123.512 388.336 123.518 390.006 123.532C390.69 123.537 391.523 123.544 392.511 123.651C420.871 126.744 436.616 128.837 445.351 129.998C456.016 131.416 456.236 131.446 456.221 130.211C456.101 120.98 456.871 118.124 455.816 117.051ZM388.149 127.062C387.096 127.531 387.647 131.605 387.946 152.776C388.009 156.876 387.989 159.803 387.974 161.896C387.938 167.08 387.938 167.139 389.331 167.196C398.058 167.561 426.869 170.243 443.256 171.768C449.101 172.312 453.366 172.709 454.571 172.801C454.986 172.835 455.301 172.91 455.546 172.807C456.671 172.331 456.181 168.027 456.181 137.991C456.181 137.065 456.241 136.5 456.006 136.121C455.441 135.225 453.206 135.377 444.541 134.266C413.91 130.323 401.987 128.89 396.555 128.237C392.296 127.725 392.027 127.693 389.861 127.306C389.054 127.163 388.508 126.903 388.149 127.062ZM388.035 171.679C387.976 171.812 388.032 171.996 388.036 172.226L388.056 172.231C388.81 210.567 387.214 216.245 388.683 217.198C388.947 217.369 389.309 217.388 389.801 217.416C445.946 220.78 454.671 224.982 455.991 223.317C456.281 222.948 456.211 222.29 456.211 221.271C456.236 182.169 456.621 178.075 455.411 177.533C455.261 177.467 455.091 177.454 454.896 177.436C393.993 172.215 388.433 170.792 388.035 171.679ZM455.031 228.111C444.666 227.746 400.266 222.826 389.966 221.611H389.986C388.062 221.382 388.068 221.491 388.267 225.146C388.355 226.753 388.48 229.046 388.496 232.296V267.406L388.496 267.415C388.561 268.867 388.571 269.092 393.496 269.521C399.416 270.021 450.351 275.701 452.546 276.021C456.226 276.553 456.231 276.454 456.271 275.37C456.271 275.312 456.271 275.25 456.276 275.186C456.281 274.953 456.276 272.251 456.266 267.647C456.256 259.929 456.231 246.864 456.231 231.111C456.231 230.782 456.241 230.481 456.246 230.208C456.291 228.823 456.311 228.153 455.031 228.111ZM456.126 281.801C455.566 280.776 452.861 280.925 439.391 279.576H439.411C395.533 275.182 389.017 273.243 388.4 274.412C388.207 274.78 388.596 275.455 388.591 276.456V325.396C388.599 326.607 389.518 326.616 390.666 326.628C390.931 326.631 391.209 326.633 391.491 326.651C400.498 327.22 417.017 328.972 431.191 330.476C441.701 331.591 450.921 332.569 454.836 332.826C455.356 332.859 455.771 333.068 456.091 332.97C457.396 332.569 457.126 327.013 456.281 282.991C456.271 282.464 456.286 282.087 456.126 281.801ZM456.771 341.668C456.811 338.262 456.816 338.011 455.751 337.926H455.771C397.735 333.369 389.645 330.294 388.702 331.774C388.478 332.125 388.657 332.734 388.666 333.641C389.193 380.633 388.377 385.839 389.775 386.523C389.954 386.61 390.171 386.624 390.431 386.641C405.431 387.656 435.856 391.216 455.931 393.691C456.131 393.718 456.291 393.789 456.416 393.751C457.201 393.519 456.751 389.148 456.751 344.691C456.751 343.476 456.761 342.482 456.771 341.668Z" fill="#0F172A"/>
<path d="M525.621 491.611C525.316 489.136 525.916 488.726 515.261 487.786C512.586 487.546 514.636 487.816 511.086 442.546C510.676 437.331 509.801 425.661 509.001 419.206C508.666 416.486 503.826 413.336 503.421 417.236C503.221 419.116 504.296 483.546 504.301 483.646C504.621 487.961 504.416 486.961 496.596 486.561C494.736 471.946 493.321 383.896 490.681 382.416C487.461 380.611 483.416 377.706 483.501 381.416C484.156 410.636 485.001 474.541 485.001 484.441C485.001 485.286 484.901 486.116 482.726 486.086C469.381 485.891 372.226 480.086 368.881 480.086C368.776 480.086 317.486 498.011 317.381 498.046C306.846 501.471 305.076 501.841 304.976 505.251L300.521 918.751H489.971C490.471 915.531 490.246 571.181 488.596 563.566C487.596 559.021 485.866 560.366 465.351 559.476L372.721 555.476C369.806 555.356 371.976 555.476 370.196 487.611C370.146 485.711 361.451 485.516 456.546 490.401C527.696 494.056 521.981 492.901 521.836 494.781C521.071 504.781 524.741 898.251 524.946 919.731C526.826 919.876 528.706 919.651 530.576 919.886C528.816 864.311 527.041 503.056 525.621 491.611ZM342.036 495.421C367.536 486.316 366.001 485.946 365.961 487.761C365.506 508.506 365.571 487.856 365.541 552.591C365.541 557.476 366.116 554.091 311.711 573.131C309.866 573.776 310.646 578.741 310.656 508.131C310.656 505.386 310.111 506.801 342.036 495.421ZM370.076 566.036C371.076 581.881 370.016 566.066 371.626 620.996C371.676 622.791 371.256 623.996 372.886 624.041C411.566 625.541 410.036 627.346 410.026 624.301C409.926 586.911 408.831 583.451 411.136 565.566C411.291 564.376 412.306 563.676 412.636 564.526C413.846 567.736 414.366 607.796 414.761 624.751C414.811 626.886 414.531 626.006 426.091 626.751C432.591 627.186 435.591 627.656 448.491 628.191C450.751 628.281 450.046 628.396 450.071 616.456C450.121 596.856 449.476 574.106 452.011 568.591C453.246 565.916 453.576 579.256 453.706 582.181C455.801 628.681 453.551 628.681 456.151 628.681C459.206 628.686 462.251 629.006 465.241 629.636C467.741 630.136 479.856 630.466 479.856 632.136C479.856 634.886 460.326 632.826 456.006 632.881C454.036 632.911 454.436 632.881 455.186 712.381C455.216 715.671 454.936 713.686 470.836 715.466C483.091 716.841 482.836 716.996 482.916 717.786C483.036 719.326 481.991 719.536 480.716 719.511C480.616 719.511 456.386 718.361 455.966 718.511C454.966 718.856 455.216 720.011 455.216 721.086C455.286 800.221 455.261 774.126 455.656 800.786C455.656 802.326 455.481 801.996 468.031 803.576C476.581 804.656 484.321 804.051 483.326 806.696C482.701 808.351 464.956 807.406 456.611 807.316C455.471 807.316 455.696 808.256 455.696 810.046C455.696 883.146 455.051 883.046 457.091 883.126C482.591 884.151 485.871 883.856 483.911 886.481C482.836 887.921 457.296 887.826 457.196 887.826C453.961 887.826 457.426 888.191 455.196 911.226C455.216 911.406 455.201 911.591 455.141 911.766C455.086 911.936 454.996 912.096 454.871 912.231C454.746 912.366 454.596 912.471 454.426 912.541C454.261 912.611 454.081 912.641 453.896 912.636C453.716 912.631 453.536 912.586 453.371 912.506C453.211 912.421 453.066 912.306 452.951 912.166C452.841 912.021 452.756 911.856 452.711 911.681C452.666 911.506 452.661 911.321 452.696 911.141C452.191 904.506 452.021 897.851 452.196 891.201C452.106 887.761 452.761 887.826 448.931 887.846C417.171 888.006 417.431 887.426 417.251 889.571C417.15 896.861 416.65 904.141 415.751 911.376C415.361 913.001 414.001 912.416 413.811 911.521C413.056 908.021 413.251 909.666 412.681 889.886C412.596 887.006 412.896 887.856 393.491 887.826C373.106 887.791 373.241 886.941 373.301 889.826C373.736 894.396 373.681 898.996 373.136 903.556C372.556 910.391 372.196 909.706 371.371 910.681C369.001 906.681 369.166 893.531 368.776 887.926C363.746 887.721 368.776 887.756 339.836 887.731C337.596 887.731 337.781 887.591 337.721 889.786C337.221 908.666 337.126 911.126 336.051 911.286C334.666 911.496 334.306 909.036 334.181 907.641C332.411 887.751 335.076 887.846 332.261 887.731C314.161 887.011 308.656 887.806 306.491 885.896C304.161 883.841 311.031 883.706 332.221 883.061C333.841 883.016 333.666 882.016 333.666 880.396V810.396C333.666 806.561 333.471 809.561 319.196 810.346C316.561 810.491 315.936 811.201 308.636 811.731C307.211 811.836 307.466 810.161 307.796 809.866C309.866 807.986 331.246 804.156 331.346 804.136C334.846 803.636 333.596 804.321 333.801 774.136C334.186 717.246 335.526 721.526 331.276 722.636C311.406 727.871 312.731 727.756 309.836 727.636C309.211 727.636 308.031 726.556 309.191 725.756C311.061 724.466 309.916 724.541 323.661 720.541C333.801 717.596 334.306 718.221 334.241 716.816C334.011 711.726 334.971 643.971 334.581 637.671C329.746 638.791 326.081 640.051 316.346 642.711C307.486 645.131 308.566 641.366 313.071 639.961C332.016 634.036 326.071 635.806 333.216 633.811C334.756 633.381 334.756 633.421 334.776 631.451C335.416 571.916 335.206 572.251 336.891 571.951C338.676 571.626 337.851 577.921 338.346 630.141C338.371 632.366 338.346 632.346 340.536 631.711C366.351 624.161 366.241 624.116 366.346 624.106C368.756 623.706 365.551 591.226 368.111 563.946C368.136 563.401 369.721 560.401 370.076 566.036Z" fill="#0F172A"/>
<path d="M379.796 713.821C371.986 713.186 372.191 711.911 372.241 714.971C373.141 771.251 372.571 793.736 372.741 796.471C372.831 798.041 373.106 797.886 375.046 797.971C409.221 799.081 395.996 798.921 409.241 799.496C413.071 799.666 411.271 808.171 411.041 720.466C411.041 719.286 410.821 718.106 410.741 716.916C410.631 715.276 410.656 716.326 379.796 713.821Z" fill="#0F172A"/>
<path d="M386.546 709.731C408.546 710.621 410.466 711.476 410.636 710.231C410.991 707.626 410.041 630.731 410.016 630.606C409.636 628.776 377.416 628.191 374.131 627.641C370.321 627.001 372.021 618.946 372.211 707.731C372.216 709.861 372.026 709.126 386.546 709.731Z" fill="#0F172A"/>
<path d="M410.696 805.116C409.331 805.011 410.626 805.051 374.296 802.646C371.491 802.456 373.296 796.351 373.246 880.241C373.246 883.126 373.091 883.061 376.016 883.061H411.406C412.951 883.061 412.646 881.716 412.626 879.996C411.716 805.096 412.446 805.231 410.696 805.116Z" fill="#0F172A"/>
<path d="M449.756 718.016C438.906 717.561 427.446 716.816 418.146 716.446C414.206 716.291 416.006 707.886 416.291 796.711C416.291 800.131 416.361 799.831 420.056 799.986C451.201 801.286 451.121 802.646 451.211 800.366C451.101 803.231 451.736 718.101 449.756 718.016Z" fill="#0F172A"/>
<path d="M416.596 711.366C449.141 713.756 416.596 711.301 449.151 713.866C452.311 714.111 450.046 715.581 450.116 634.431C450.116 632.216 450.071 632.431 448.216 632.401C434.966 632.086 414.636 629.221 414.771 631.311C414.771 631.191 415.606 706.936 415.661 709.691C415.681 710.651 415.531 711.291 416.596 711.366Z" fill="#0F172A"/>
<path d="M450.061 807.231C439.216 806.396 420.671 805.866 417.656 805.591C415.521 805.396 416.296 798.426 417.211 881.246C417.241 883.861 417.026 883.081 434.681 883.081C452.251 883.081 452.181 883.781 452.106 881.581C449.786 807.266 453.616 807.496 450.061 807.231Z" fill="#0F172A"/>
<path d="M343.836 801.866C343.936 801.866 365.366 797.781 366.771 797.501C369.471 796.966 368.271 797.646 368.166 784.386C367.936 745.646 368.336 763.676 367.631 713.941C367.606 711.881 369.606 711.761 347.631 718.071C338.131 720.791 338.181 720.511 338.291 721.876C338.291 721.981 338.176 773.321 337.891 792.906C337.706 804.401 336.446 803.296 343.836 801.866Z" fill="#0F172A"/>
<path d="M368.156 801.731C364.051 802.376 367.491 801.781 349.746 805.231C338.436 807.416 337.821 806.976 337.851 808.626C337.851 808.526 337.746 881.021 337.746 881.126C337.746 883.356 337.821 883.096 339.656 883.096H366.556C369.131 883.096 369.056 883.211 369.006 879.466C368.026 821.126 369.131 808.986 368.156 801.731Z" fill="#0F172A"/>
<path d="M338.301 715.351C338.376 717.176 338.241 716.591 346.551 714.416C367.931 708.821 367.656 709.416 367.621 707.846C367.686 710.691 367.461 640.676 367.461 630.671C367.461 628.341 367.706 627.631 366.496 628.001C337.496 636.866 338.301 634.931 338.301 638.941V715.351Z" fill="#0F172A"/>
<path d="M-38.669 915.431C251.061 911.361 907.871 914.766 907.871 914.766C908.406 914.791 908.911 915.021 909.281 915.411C909.646 915.796 909.856 916.311 909.856 916.851C909.856 917.386 909.646 917.901 909.281 918.286C908.911 918.676 908.406 918.906 907.871 918.931C907.871 918.931 40.216 919.431 -38.669 918.256C-39.0291 918.236 -39.3674 918.076 -39.6148 917.816C-39.8622 917.551 -40 917.206 -40 916.841C-40 916.481 -39.8622 916.136 -39.6148 915.871C-39.3674 915.611 -39.0291 915.451 -38.669 915.431Z" fill="#0F172A"/>
<path d="M146.946 197.357C184.946 56.8567 405.646 5.33133 416.446 469.731" stroke="#0F172A" stroke-width="3" stroke-dasharray="6 6"/>
<path d="M101 198.011C133.5 27.5106 315.5 -61.4894 337.761 111.995" stroke="#0F172A" stroke-width="3" stroke-dasharray="6 6"/>
<path d="M379.5 91.5C390.5 17 507.5 -22.5 488.5 372.5" stroke="#0F172A" stroke-width="3" stroke-dasharray="6 6"/>
<path d="M689.5 100.5C689.5 -5.49999 515.3 -92.1 508.5 395.5" stroke="#0F172A" stroke-width="3" stroke-dasharray="6 6"/>
</svg>
