<svg width="4000" height="4000" viewBox="0 0 4000 4000" fill="none" xmlns="http://www.w3.org/2000/svg">
<path fill-rule="evenodd" clip-rule="evenodd" d="M3000 2000C3552.29 2000 4000 1552.29 4000 1000C4000 447.715 3552.29 0 3000 0H2000V1000C2000 1552.29 2447.71 2000 3000 2000ZM3000 2000C2447.71 2000 2000 2447.71 2000 3000C2000 2447.71 1552.29 2000 1000 2000C447.715 2000 0 2447.71 0 3000C0 3552.29 447.715 4000 1000 4000H2000H3000C3552.29 4000 4000 3552.29 4000 3000C4000 2447.71 3552.29 2000 3000 2000Z" fill="#F9FAFB"/>
</svg>
