<svg width="481" height="428" viewBox="0 0 481 428" fill="none" xmlns="http://www.w3.org/2000/svg">
<path fill-rule="evenodd" clip-rule="evenodd" d="M379.21 133.84C384.397 135.347 389.547 136.973 394.66 138.72C446.5 156.61 480 184.62 480.02 213.62C480.02 243.81 444.19 273.35 389.19 291.62C386.277 292.58 383.3 293.51 380.26 294.41C381.347 298.783 382.307 303.07 383.14 307.27C394.01 362.26 385.64 407.46 359.89 422.4C334.98 436.86 294.69 422.65 253.89 387.47C249.437 383.637 245.103 379.683 240.89 375.61C237.557 378.857 234.223 381.94 230.89 384.86C188.75 421.76 145.52 437.06 119.75 422.17C94.8 407.75 87 365.68 97 312.68C98.0934 306.893 99.35 301.17 100.77 295.51C96.3966 294.257 92.0634 292.9 87.77 291.44C34.84 273.31 0 243.41 0 213.59C0 184.73 32.46 156.9 83.22 139.15C88.9 137.17 94.84 135.3 100.99 133.55C99.6766 128.263 98.4933 122.953 97.4399 117.62C86.91 63.69 94.34 20.6 119.34 6.08999C145.42 -9.05001 188.87 7.19999 232.22 45.78C234.953 48.18 237.62 50.6333 240.22 53.14C244.12 49.3667 248.103 45.7 252.17 42.14C293.53 6.05999 334.53 -9.03001 359.53 5.44999C385.64 20.54 393.29 66.38 381.59 123.28C380.863 126.82 380.07 130.34 379.21 133.84ZM349.31 23.25C334.21 14.53 301.09 26.73 265.66 57.64H265.64C261.88 60.9267 258.207 64.31 254.62 67.79C269.271 83.7735 282.825 100.729 295.19 118.54C316.785 120.497 338.226 123.891 359.37 128.7C360.143 125.52 360.863 122.33 361.53 119.13C371.63 70 365.38 32.54 349.31 23.25ZM155.34 263.14C150.607 254.947 146.07 246.65 141.73 238.25C135.63 252.75 130.41 267 126.17 280.72C140.784 283.855 155.551 286.234 170.41 287.85C165.183 279.737 160.16 271.5 155.34 263.14ZM141.716 189.888C146.052 181.506 150.573 173.223 155.28 165.04C159.993 156.847 164.9 148.77 170 140.81C154.78 142.71 140.18 145.22 126.48 148.29C130.647 161.76 135.722 175.709 141.716 189.888ZM173.05 175.31C165.757 187.983 158.95 200.91 152.63 214.09H152.6C158.9 227.197 165.727 240.117 173.08 252.85C180.433 265.583 188.253 278.013 196.54 290.14C210.53 291.05 225 291.52 240 291.52C255 291.52 269.75 290.97 284 289.97C292.06 277.81 299.727 265.397 307 252.73C314.333 239.997 321.213 227.017 327.64 213.79C321.127 200.663 314.23 187.797 306.95 175.19C299.67 162.583 291.96 150.25 283.82 138.19C269.55 137.1 254.82 136.53 240.03 136.53C225.24 136.53 210.6 137.1 196.32 138.18C188.093 150.267 180.337 162.643 173.05 175.31ZM338.67 237.51C334.223 246.117 329.583 254.613 324.75 263C319.997 271.26 315.08 279.42 310 287.48C325.053 285.713 340.004 283.16 354.79 279.83C350.146 265.456 344.766 251.331 338.67 237.51ZM324.66 164.93C329.44 173.163 334.043 181.497 338.47 189.93C344.283 176.399 349.413 162.585 353.84 148.54C340.07 145.39 325.38 142.81 310.07 140.87C315.13 148.79 319.993 156.81 324.66 164.93ZM268.48 116.66C259.644 104.799 250.215 93.391 240.23 82.48C230.62 92.87 221.07 104.32 211.74 116.66C230.667 115.76 249.58 115.76 268.48 116.66ZM218.66 61.13C181.23 27.86 145.72 14.54 129.66 23.86C114.58 32.61 108.59 67.46 117.64 113.69C118.62 118.663 119.72 123.603 120.94 128.51C142.054 123.792 163.453 120.451 185 118.51C197.484 100.722 211.134 83.7812 225.86 67.8C223.46 65.49 221.05 63.26 218.66 61.13ZM94.4 272C98.3 273.333 102.25 274.57 106.25 275.71C112.789 254.686 120.703 234.115 129.94 214.13C120.812 194.417 112.995 174.123 106.54 153.38C100.987 154.953 95.48 156.69 90.02 158.59C46.5601 173.74 20.5 196.08 20.5 213.59C20.5 221.83 26.52 232 38.4 242.19C51.67 253.56 71 264 94.4 272ZM163.64 403.1C180.09 397.27 198.75 385.7 217.38 369.38C220.49 366.65 223.54 363.83 226.52 360.9C211.688 344.817 197.926 327.781 185.32 309.9C163.569 308.241 141.955 305.104 120.63 300.51C119.317 305.843 118.15 311.177 117.13 316.51C108.54 361.83 114.84 395.62 129.98 404.37C137.09 408.48 148.86 408.33 163.64 403.1ZM211.92 311.52C221.38 324.02 231.08 335.65 240.8 346.16C250.784 335.067 260.196 323.471 269 311.42C259.46 311.85 249.78 312.06 240 312.06C230.473 312.06 221.113 311.88 211.92 311.52ZM349.6 404.61C356.71 400.49 362.46 390.19 365.32 374.75C368.5 357.56 367.81 335.58 363 311.28C362.247 307.48 361.38 303.6 360.4 299.64C338.99 304.479 317.272 307.837 295.4 309.69C283.153 327.639 269.713 344.745 255.17 360.89C259.24 364.76 263.24 368.45 267.24 371.89C302.12 401.98 334.47 413.39 349.6 404.61ZM374.66 274.64C377.4 273.82 380.1 272.98 382.72 272.11C430.23 256.33 459.5 232.19 459.5 213.59C459.5 196.16 432.4 173.48 387.98 158.16C383.39 156.57 378.62 155.07 373.71 153.64C367.273 174.159 359.469 194.224 350.35 213.7C359.824 233.439 367.947 253.799 374.66 274.64ZM263.927 249.371C256.838 254.079 248.51 256.578 240 256.55C234.362 256.543 228.78 255.426 223.574 253.261C218.367 251.096 213.639 247.926 209.659 243.932C205.678 239.939 202.524 235.2 200.376 229.987C198.228 224.774 197.128 219.188 197.14 213.55C197.14 205.039 199.666 196.72 204.397 189.646C209.128 182.572 215.852 177.06 223.717 173.81C231.583 170.56 240.235 169.716 248.581 171.387C256.926 173.057 264.587 177.167 270.595 183.194C276.603 189.222 280.688 196.897 282.331 205.247C283.974 213.598 283.103 222.248 279.827 230.103C276.55 237.957 271.017 244.663 263.927 249.371Z" fill="black"/>
</svg>
